<svg xmlns="http://www.w3.org/2000/svg" viewBox="0 0 200 200" style="">
	<defs><style>.cls-1{fill:#1cbfa5}.cls-2{fill:#1c3e57}</style></defs>
	<g id="Icon_colorful">
		<path class="cls-1 cygeCONY_0" d="M94.88 86a2.06 2.06 0 0 1-1.28-.45 2 2 0 0 1-.75-1.55 14.39 14.39 0 0 0-6.68-12.43 2 2 0 0 1-.32-3.18 83 83 0 0 1 27.73-17.74 41.2 41.2 0 0 1 18.57-2.41h.32a6.81 6.81 0 0 1 5.36 10l-.16.29a41.2 41.2 0 0 1-12.25 14.16A83.11 83.11 0 0 1 95.32 86a2.12 2.12 0 0 1-.44 0zm-4.45-16.34a18.39 18.39 0 0 1 6.34 11.8 78.48 78.48 0 0 0 26.28-12.11 37.07 37.07 0 0 0 11-12.75l.15-.3a2.73 2.73 0 0 0-2.15-4h-.33A37.09 37.09 0 0 0 115 54.43a78.4 78.4 0 0 0-24.57 15.23z"></path>
		<path class="cls-1 cygeCONY_1" d="M101.28 84.33a2.06 2.06 0 0 1-2-2.13c.47-9.75-7.73-14.81-8.08-15a2 2 0 0 1 2.08-3.49c.44.26 10.65 6.47 10.06 18.71a2 2 0 0 1-2.06 1.91z"></path>
		<path class="cls-1 cygeCONY_2" d="M81.21 67.71a2 2 0 0 1-1.15-.36L76.5 64.9a2.06 2.06 0 0 1-.88-1.69 2 2 0 0 1 .92-1.68l9.6-6.3a19.16 19.16 0 0 1 20.49-.47 2 2 0 1 1-2.1 3.47 15.13 15.13 0 0 0-16.15.38l-7.09 4.66 1.07.74a2 2 0 0 1-1.15 3.7zM95.09 97.7a2 2 0 0 1-2-2L93 91.38a2 2 0 0 1 2-2.06 2 2 0 0 1 2.07 2v1.3l7.78-3.34A15.09 15.09 0 0 0 114.08 76a2 2 0 0 1 4.06.17A19.17 19.17 0 0 1 106.43 93l-10.54 4.53a2.05 2.05 0 0 1-.8.17zm28.56-36.26a2 2 0 0 1-1-3.82l4.76-2.56a2 2 0 1 1 1.92 3.58l-4.76 2.56a2 2 0 0 1-.92.24zm-11.44 6.15a2 2 0 0 1-1-3.82l4.79-2.56a2 2 0 0 1 1.93 3.58l-4.76 2.56a2.1 2.1 0 0 1-.96.24z"></path>
		<path class="cls-2 cygeCONY_3" d="M56.41 152.54a2 2 0 0 1-2-2v-28.91a2 2 0 0 1 4.06 0v28.88a2 2 0 0 1-2.06 2.03zm13.08 0a2 2 0 0 1-2-2v-33.4a2 2 0 0 1 4.06 0v33.4a2 2 0 0 1-2.06 2zm13.09 0a2 2 0 0 1-2-2v-40.19a2 2 0 0 1 4.06 0v40.16a2 2 0 0 1-2.06 2.03zm13.09 0a2 2 0 0 1-2-2v-37.71a2 2 0 0 1 4.06 0v37.68a2 2 0 0 1-2.06 2.03zm13.08 0a2 2 0 0 1-2-2v-51.7a2 2 0 0 1 4.06 0v51.67a2 2 0 0 1-2.06 2.03zm13.09 0a2 2 0 0 1-2-2V94.37a2 2 0 0 1 4.06 0v56.14a2 2 0 0 1-2.06 2.03zm13.09 0a2 2 0 0 1-2-2V84a2 2 0 0 1 4.07 0v66.5a2 2 0 0 1-2.07 2.04zm13.07 0a2 2 0 0 1-2-2V73.87a2 2 0 0 1 4.06 0v76.64a2 2 0 0 1-2.06 2.03z"></path>
		<path class="cls-1 cygeCONY_4" d="M58 96.36a2 2 0 0 1-.9-3.86l24.6-12a2 2 0 1 1 1.78 3.64l-24.59 12a2 2 0 0 1-.89.22zm-11-6.22a2 2 0 0 1-.89-3.85l24.59-12a2 2 0 1 1 1.79 3.65l-24.6 12a2 2 0 0 1-.89.2zm9.48 18.67a2 2 0 0 1-.92-3.85L80 92.56a2 2 0 0 1 1.84 3.62l-24.4 12.4a2.05 2.05 0 0 1-.96.23z"></path>
		<path class="cls-2 cygeCONY_5" d="M153 152.54H49.63a2 2 0 1 1 0-4.06H153a2 2 0 1 1 0 4.06z"></path></g>
		<style data-made-with="vivus-instant">
			.cygeCONY_0{
				stroke-dasharray:253 255;
				stroke-dashoffset:254;
				animation:cygeCONY_draw 1333ms linear 0ms forwards;
			}
			.cygeCONY_1{
				stroke-dasharray:53 55;
				stroke-dashoffset:54;
				animation:cygeCONY_draw 1333ms linear 133ms forwards;
			}
			.cygeCONY_2{
				stroke-dasharray:210 212;
				stroke-dashoffset:211;
				animation:cygeCONY_draw 1333ms linear 266ms forwards;
			}
			.cygeCONY_3{
				stroke-dasharray:885 887;
				stroke-dashoffset:886;
				animation:cygeCONY_draw 1333ms linear 399ms forwards;
			}
			.cygeCONY_4{
				stroke-dasharray:204 206;
				stroke-dashoffset:205;
				animation:cygeCONY_draw 1333ms linear 533ms forwards;
			}
			.cygeCONY_5{
				stroke-dasharray:220 222;
				stroke-dashoffset:221;
				animation:cygeCONY_draw 1333ms linear 666ms forwards;
			}
			@keyframes cygeCONY_draw{
				100%{
					stroke-dashoffset:0;
				}
			}
			@keyframes cygeCONY_fade{
				0%{
					stroke-opacity:1;
				}
				93.54838709677419%{
					stroke-opacity:1;
				}
				100%{
					stroke-opacity:0;
				}
			}
	</style>
</svg>