<svg xmlns="http://www.w3.org/2000/svg" viewBox="0 0 200 200"><defs><style>.cls-1{fill:#1c3e57}.cls-2{fill:#1cbfa5}</style></defs><g id="Icon_colorful"><path class="cls-1" d="M100.54 69h.23c2.45 0 5.83-1.08 8.45-6a19 19 0 0 0 2.11-8.9v-2.62c0-2.76-5.75-5.91-10.78-5.91s-9.44 3.06-10.44 4.71a1.83 1.83 0 0 0-.26.95v2.84A19.15 19.15 0 0 0 92 63c2.66 5.1 6.13 6.07 8.54 6zm-7-17.11a11.38 11.38 0 0 1 7-2.67 10.74 10.74 0 0 1 7.12 2.61v2.22a15.53 15.53 0 0 1-1.66 7.21c-1.47 2.78-3.27 4.17-5.45 4.1s-3.88-1.32-5.35-4.1a15.4 15.4 0 0 1-1.68-7.19zm49.14 26.87h-13.79a1.84 1.84 0 0 0 0 3.67h13.79a9.15 9.15 0 0 1 9.15 9.15v17.88H147v-15.1a1.84 1.84 0 0 0-3.67 0v57.55h-4.62a1.83 1.83 0 0 0 0 3.66h6.45a1.83 1.83 0 0 0 1.84-1.83v-34.63h6.7a1.83 1.83 0 0 0 1.83-1.84V91.58a12.83 12.83 0 0 0-12.85-12.82zm9.15 36.68H147v-2.31h4.86zm-17.95-37.38h.22c2.24 0 5.32-1 7.71-5.5a17.28 17.28 0 0 0 1.9-8v-2.35c0-2.61-5.14-5.47-9.82-5.47s-8.54 2.76-9.47 4.29a1.81 1.81 0 0 0-.27 1v2.53a17.28 17.28 0 0 0 1.9 8c2.47 4.66 5.67 5.58 7.83 5.5zm-6.07-15.38a10.14 10.14 0 0 1 6.08-2.27 9.63 9.63 0 0 1 6.16 2.21v1.9a13.55 13.55 0 0 1-1.48 6.33c-1.27 2.4-2.82 3.6-4.69 3.54s-3.32-1.14-4.59-3.54a13.68 13.68 0 0 1-1.48-6.33zM71.1 78.76H57.32A12.83 12.83 0 0 0 44.5 91.58v25.69a1.83 1.83 0 0 0 1.83 1.84H53v34.63a1.83 1.83 0 0 0 1.83 1.83h6.46a1.83 1.83 0 0 0 0-3.66H56.7V94.36a1.84 1.84 0 0 0-3.67 0v15.1h-4.86V91.58a9.15 9.15 0 0 1 9.15-9.15H71.1a1.84 1.84 0 1 0 0-3.67zM53 113.13v2.31h-4.83v-2.31zm13-35.07h.21c2.25 0 5.33-1 7.72-5.5a17.28 17.28 0 0 0 1.9-8V62a1.81 1.81 0 0 0-.27-1c-.94-1.53-4.9-4.29-9.47-4.29s-9.82 2.86-9.82 5.47v2.31a17.15 17.15 0 0 0 1.9 8c2.49 4.73 5.67 5.65 7.83 5.57zm-6-15.44a9.63 9.63 0 0 1 6.16-2.21 10.13 10.13 0 0 1 6.07 2.26v1.85a13.67 13.67 0 0 1-1.47 6.33c-1.27 2.4-2.84 3.57-4.69 3.54s-3.32-1.14-4.59-3.54A13.55 13.55 0 0 1 60 64.52zm12.9 63.45a26.57 26.57 0 0 1 1.2-6 27.85 27.85 0 0 0-1.2 6zm53-5.97a27.14 27.14 0 0 1 1.2 6 27.85 27.85 0 0 0-1.18-6zm-15.5-50.18H89.6a14.15 14.15 0 0 0-14.14 14.14v28.81a1.82 1.82 0 0 0 1.12 1.68 27.47 27.47 0 0 1 2.54-3.6v-3H82a29.8 29.8 0 0 0-2.88 3A28.13 28.13 0 0 1 82 108c.48-.42 1-.82 1.47-1.21q.73-.57 1.5-1.08l.43-.28.51-.32c.41-.25.83-.48 1.25-.71l.63-.33.55-.27.29-.13.47-.21-.47.2V87.18a1.83 1.83 0 1 0-3.66 0v17.15h-5.9V84.06A10.49 10.49 0 0 1 89.6 73.58h20.8a10.49 10.49 0 0 1 10.48 10.48v20.27H115V87.18a1.84 1.84 0 0 0-3.67 0v16.45l-.47-.2.47.21.31.14.51.25.66.34q.64.34 1.26.72l.4.25.53.34c.5.34 1 .69 1.48 1.06.49.39 1 .78 1.45 1.2a28.13 28.13 0 0 1 2.89 3 28.83 28.83 0 0 0-2.89-3h2.89v3a27.47 27.47 0 0 1 2.54 3.6 1.82 1.82 0 0 0 1.12-1.68v-28.8a14.15 14.15 0 0 0-14.08-14.14z"/><path class="cls-1" d="M81.34 114l.06-.05a23.38 23.38 0 0 1 3.76-3.87 23.62 23.62 0 0 0-3.82 3.92zm33.5-3.89a23.84 23.84 0 0 1 3.76 3.89l.06.05a24.07 24.07 0 0 0-3.82-3.94zm6.39 8.15a23.42 23.42 0 0 1 2 6.18 23.33 23.33 0 0 0-2-6.32s-.02.1 0 .14zm-42.46 0v-.14a23.66 23.66 0 0 0-2 6.3 23.41 23.41 0 0 1 2-6.16z"/><path class="cls-2" d="M115 151c.46-.31.92-.63 1.36-1-.36.39-.86.71-1.36 1zm-31.66-6a23.51 23.51 0 0 1-6.09-10.56A23.24 23.24 0 0 0 83.34 145zM100 116.88a5.09 5.09 0 0 1 5.31 4.83 1.83 1.83 0 0 0 3.66 0 8.63 8.63 0 0 0-7.14-8.31v-1a1.83 1.83 0 1 0-3.66 0v1a8.63 8.63 0 0 0-7.17 8.31 8.75 8.75 0 0 0 9 8.49 4.85 4.85 0 1 1-5.31 4.8 1.83 1.83 0 1 0-3.69 0 8.63 8.63 0 0 0 7.14 8.31v1.4a1.83 1.83 0 1 0 3.66 0v-1.4A8.63 8.63 0 0 0 109 135a8.75 8.75 0 0 0-9-8.49 4.85 4.85 0 1 1 0-9.66zm-14.45 30.05a23.42 23.42 0 0 0 4.33 2.69l-.13-.09a23.83 23.83 0 0 1-4.2-2.6zm40.61-11.13c-.08.29-.17.57-.26.86.1-.29.18-.57.26-.86zm-.54 1.68zm-.39 1.04c0 .13-.11.25-.16.37.05-.13.11-.25.16-.38z"/><path class="cls-2" d="M115 151c.47-.31.92-.63 1.37-1l.11-.08c.33-.25.64-.51.95-.77s.47-.4.7-.6l.22-.2a26.88 26.88 0 0 0 6.69-9.5c-.37.87-.78 1.73-1.23 2.56.45-.83.86-1.69 1.23-2.57.05-.12.11-.24.16-.37.14-.34.27-.7.39-1.05s.19-.53.27-.8.19-.58.27-.88c.16-.56.31-1.12.43-1.7v-.06l.06-.23c.06-.31.11-.61.16-.92s.07-.45.11-.68l.09-.74c0-.31.06-.63.09-.94s0-.39 0-.58v-1.57c0-.57 0-1.27-.07-1.9v-.4a27.14 27.14 0 0 0-1.2-6 28.55 28.55 0 0 0-1.78-4.26c-.23-.44-.47-.87-.72-1.3a27.47 27.47 0 0 0-2.54-3.6 28.13 28.13 0 0 0-2.89-3c-.47-.42-1-.81-1.45-1.2-.48-.37-1-.72-1.48-1.06l-.53-.34-.4-.25q-.61-.37-1.26-.72l-.66-.34-.51-.25-.31-.14-.47-.21-.47-.21-.78-.3-.53-.19-.76-.26c-.19-.07-.38-.12-.58-.18l-.74-.21-.64-.16-.7-.16-.71-.14-.67-.12-.8-.11-.6-.07-.93-.08H98.03l-.94.08-.59.07-.81.11-.65.12-.72.14-.7.16-.65.16-.73.21-.59.18-.75.25-.53.2-.77.3-.49.21-.47.21-.29.13-.55.27-.63.33c-.43.23-.84.46-1.25.71l-.51.32-.43.28q-.77.51-1.5 1.08c-.5.39-1 .79-1.47 1.21a27.18 27.18 0 0 0-2.89 3 27.47 27.47 0 0 0-2.54 3.6c-.25.43-.49.86-.72 1.3a20 20 0 0 0-8 3.47v-2.15a1.83 1.83 0 0 0-3.66 0v5.6A20 20 0 0 0 89 153.24a27.11 27.11 0 0 0 22 0 27.37 27.37 0 0 0 4-2.24zm-26.32-44.84v0zM85 151a16.14 16.14 0 0 1-5.29.89 16.39 16.39 0 0 1-5.59-31.8 26.57 26.57 0 0 0-1.2 6v.4c0 .63-.07 1.26-.07 1.9v2.15c0 .2 0 .63.09.94l.09.74c0 .23.07.46.11.69s.1.6.16.9a2 2 0 0 1 0 .24 26.89 26.89 0 0 0 8.2 14.31l.22.2c.23.2.47.41.71.6s.61.51.93.75l.13.11c.44.33.89.65 1.35 1zm29.49-4.09a23.61 23.61 0 0 1-4.2 2.6l-.13.09a23.42 23.42 0 0 1-24.57-2.69l-.15-.12q-.48-.37-.93-.78c-.29-.25-.57-.51-.85-.78l-.28-.27a23.24 23.24 0 0 1-6.09-10.56l-.12-.47c-.06-.27-.13-.54-.18-.81s-.16-.84-.23-1.26l-.06-.52c0-.34-.08-.68-.11-1v-.48c0-.49-.05-1-.05-1.49v-1.27a2.83 2.83 0 0 1 0-.29c0-.33 0-.66.08-1v-.23q.06-.54.15-1.08v-.09a23.5 23.5 0 0 1 8.36-14.3l.1-.09c.27-.22.55-.43.83-.64l.45-.32.51-.34.6-.39.36-.22.73-.42.2-.1a23.45 23.45 0 0 1 3.88-1.59l.29-.09.78-.22.44-.12.71-.16.55-.12.65-.11.66-.1.58-.07.8-.07h3.5l.8.07.58.07.66.1.64.11.56.12.7.16.45.12.78.22.3.1h.09a23.17 23.17 0 0 1 3.44 1.45l.3.14.21.11.72.42.37.22.6.39.51.35c.15.1.3.2.44.31s.57.42.84.65l.1.07a24.07 24.07 0 0 1 3.82 3.93 24.38 24.38 0 0 1 2.53 4.08 23.33 23.33 0 0 1 2 6.32v.06q.09.56.15 1.11v.21c0 .33.06.67.08 1a2.45 2.45 0 0 1 0 .27v1.27c0 .43 0 1-.05 1.49v.48c0 .34-.07.68-.11 1l-.06.52c-.07.42-.14.84-.23 1.26s-.12.54-.19.81-.07.31-.11.47a23.54 23.54 0 0 1-6.06 10.5l-.26.25c-.28.28-.58.55-.87.81s-.61.52-.93.77zM126.61 134a.14.14 0 0 0 0 .06c-.12.58-.27 1.14-.43 1.7q.24-.83.43-1.76zm-.71 2.66c-.08.27-.17.53-.27.8.09-.26.18-.53.27-.8z"/><path class="cls-2" d="M135.19 122.1v-4.93a1.83 1.83 0 1 0-3.66 0v1.73a19.89 19.89 0 0 0-7.39-3.05 28.55 28.55 0 0 1 1.78 4.26 16.39 16.39 0 0 1-5.59 31.8A16.14 16.14 0 0 1 115 151a27.37 27.37 0 0 1-4.05 2.22 20 20 0 0 0 24.2-31.14z"/></g></svg>