<svg viewBox="0 0 200 200" xmlns="http://www.w3.org/2000/svg"><path d="m61.9 64.33a10 10 0 1 1 9.95-10 10 10 0 0 1 -9.95 10zm0-16.91a7 7 0 1 0 6.95 6.95 7 7 0 0 0 -6.95-6.95z" fill="#1cbfa5"/><path d="m80.1 85.21a1.54 1.54 0 0 1 -.7-.17l-18.2-9.57a1.49 1.49 0 0 1 -.8-1.33v-11.31a1.5 1.5 0 0 1 3 0v10.4l17.39 9.15a1.5 1.5 0 0 1 -.69 2.83z" fill="#1cbfa5"/><path d="m138.1 64.33a10 10 0 1 1 10-10 10 10 0 0 1 -10 10zm0-16.91a7 7 0 1 0 7 6.95 7 7 0 0 0 -7-6.95z" fill="#1cbfa5"/><path d="m119.9 85.21a1.5 1.5 0 0 1 -.69-2.83l17.39-9.15v-10.4a1.5 1.5 0 0 1 3 0v11.31a1.49 1.49 0 0 1 -.8 1.33l-18.2 9.53a1.54 1.54 0 0 1 -.7.21z" fill="#1cbfa5"/><g fill="#1c3e57"><path d="m100 159.83a47.07 47.07 0 0 1 -47-47 46.59 46.59 0 0 1 9.55-28.41 1.49 1.49 0 0 1 2.1-.28 1.46 1.46 0 0 1 .58 1 1.53 1.53 0 0 1 -.29 1.11 43.59 43.59 0 0 0 -8.94 26.57 44 44 0 1 0 88 0 43.58 43.58 0 0 0 -9.37-27.16 1.49 1.49 0 0 1 1.17-2.42 1.52 1.52 0 0 1 1.19.57 46.52 46.52 0 0 1 10 29 47.07 47.07 0 0 1 -46.99 47.02z"/><path d="m100 140.21c-25.92 0-47-12.29-47-27.39s21.09-27.4 47-27.4c26.36 0 47 12 47 27.4s-20.64 27.39-47 27.39zm0-51.79c-24.27 0-44 11-44 24.4s19.74 24.39 44 24.39 44-10.94 44-24.39-19.73-24.4-44-24.4z"/><path d="m109.46 114.32a1.5 1.5 0 1 1 0-3h36.05a1.5 1.5 0 0 1 0 3z"/><path d="m54.49 114.32a1.5 1.5 0 0 1 0-3h36.05a1.5 1.5 0 1 1 0 3z"/><path d="m100 159.83c-15.36 0-27.39-20.65-27.39-47s12-47 27.39-47 27.39 20.65 27.39 47-12.03 47-27.39 47zm0-91c-13.45 0-24.39 19.74-24.39 44s10.94 44 24.39 44 24.39-19.75 24.39-44-10.94-44.02-24.39-44.02z"/><path d="m100 159.83a1.5 1.5 0 0 1 -1.5-1.5v-36.05a1.5 1.5 0 0 1 3 0v36.05a1.5 1.5 0 0 1 -1.5 1.5z"/></g><path d="m100 104.85a1.5 1.5 0 0 1 -1.5-1.5v-44.12a1.5 1.5 0 1 1 3 0v44.12a1.5 1.5 0 0 1 -1.5 1.5z" fill="#1cbfa5"/><path d="m100 60.73a9.95 9.95 0 1 1 10-9.95 10 10 0 0 1 -10 9.95zm0-16.9a7 7 0 1 0 7 7 7 7 0 0 0 -7-7z" fill="#1cbfa5"/><path d="m100 123.78a11 11 0 1 1 11-11 11 11 0 0 1 -11 11zm0-18.93a8 8 0 1 0 8 8 8 8 0 0 0 -8-8z" fill="#1cbfa5"/></svg>