<svg xmlns="http://www.w3.org/2000/svg" viewBox="0 0 200 200" class="svg-icon paused">
	<defs></defs>
	<g id="Icon_colorful">
		<path class="cls-1 zcJRCzHX_0" d="M105 104a2.09 2.09 0 0 1-2.08-2l-.14-7.62c0-1.39-1.44-3.84-4.11-4.8l-2-.71a2.08 2.08 0 1 1 1.4-3.92l2 .71C104 87 107 90.8 107 94.28l.14 7.58a2.09 2.09 0 0 1-2 2.12zM78.39 82.48a14.91 14.91 0 1 1 14.91-14.9 14.92 14.92 0 0 1-14.91 14.9zm0-25.64a10.74 10.74 0 1 0 10.74 10.74 10.75 10.75 0 0 0-10.74-10.74z"></path>
		<path class="cls-2 zcJRCzHX_1" d="M78.39 113.65a2.11 2.11 0 0 1-1.47-.61l-5.39-5.4a2.09 2.09 0 0 1-.6-1.71l1.72-15.21a2.08 2.08 0 1 1 4.14.46l-1.61 14.22 3.23 3.24 3.36-3.27-1.35-14.22a2.08 2.08 0 0 1 4.15-.4L86 106a2.09 2.09 0 0 1-.62 1.69l-5.54 5.4a2.11 2.11 0 0 1-1.45.56z"></path>
		<path class="cls-1 zcJRCzHX_2" d="M145.27 147.33a2.1 2.1 0 0 1-2.09-2.09v-16.43a2.09 2.09 0 0 1 4.17 0v16.43a2.09 2.09 0 0 1-2.08 2.09zm-27.73 0h-7.2a7.4 7.4 0 0 1-7.38-7.39V117a10.44 10.44 0 0 1 6.89-9.8l3-1.08a2.08 2.08 0 0 1 1.41 3.92l-3 1.09a6.24 6.24 0 0 0-4.13 5.87v22.92a3.22 3.22 0 0 0 3.21 3.22h7.2a2.09 2.09 0 0 1 0 4.17z"></path>
		<path class="cls-1 zcJRCzHX_3" d="M152.6 147.33h-35.06a2.09 2.09 0 0 1-2.08-2.09v-16.43a2.08 2.08 0 0 1 4.16 0v14.35h33a3.23 3.23 0 0 0 3.23-3.23V117a6.26 6.26 0 0 0-4.13-5.87l-2-.71a2.09 2.09 0 0 1 1.4-3.93l2 .72A10.41 10.41 0 0 1 160 117v22.91a7.41 7.41 0 0 1-7.4 7.42zm-21.2-43.21a14.91 14.91 0 1 1 14.91-14.91 14.92 14.92 0 0 1-14.91 14.91zm0-25.64a10.74 10.74 0 1 0 10.74 10.73 10.74 10.74 0 0 0-10.74-10.73zm-37.06 28.69a2.09 2.09 0 0 0-4.17 0v14.35h4.17zM54.12 118.3V95.38a6.24 6.24 0 0 1 4.13-5.87l3-1.09a2.08 2.08 0 0 0-1.41-3.92l-3 1.09A10.42 10.42 0 0 0 50 95.38v22.92a7.23 7.23 0 0 0 .75 3.22h6.63a3.22 3.22 0 0 1-3.26-3.22zm12.49 3.22v-14.35a2.08 2.08 0 1 0-4.16 0v14.35z"></path>
		<path class="cls-2 zcJRCzHX_4" d="M97.42 131.77H42.08a2.09 2.09 0 0 0 0 4.17h55.34a2.09 2.09 0 0 0 0-4.17zm-55.34-6.08h55.34a2.09 2.09 0 0 0 0-4.17H42.08a2.09 2.09 0 0 0 0 4.17z"></path>
	</g>
	<style data-made-with="vivus-instant">
		.zcJRCzHX_0{
			stroke-dasharray:213 215;
			stroke-dashoffset:214;
			animation:zcJRCzHX_draw 1333ms linear 0ms forwards;
		}
		.zcJRCzHX_1{
			stroke-dasharray:104 106;
			stroke-dashoffset:105;
			animation:zcJRCzHX_draw 1333ms linear 166ms forwards;
		}
		.zcJRCzHX_2{
			stroke-dasharray:163 165;
			stroke-dashoffset:164;
			animation:zcJRCzHX_draw 1333ms linear 333ms forwards;
		}
		.zcJRCzHX_3{
			stroke-dasharray:537 539;
			stroke-dashoffset:538;
			animation:zcJRCzHX_draw 1333ms linear 500ms forwards;
		}
		.zcJRCzHX_4{
			stroke-dasharray:247 249;
			stroke-dashoffset:248;
			animation:zcJRCzHX_draw 1333ms linear 666ms forwards;
		}
		@keyframes zcJRCzHX_draw{
			100%{
				stroke-dashoffset:0;
			}
		}
		@keyframes zcJRCzHX_fade{
			0%{
				stroke-opacity:1;
			}
			93.54838709677419%{
				stroke-opacity:1;
			}
			100%{
				stroke-opacity:0;
			}
		}
	</style>
</svg>