<svg xmlns="http://www.w3.org/2000/svg" viewBox="0 0 200 200" class="svg-icon paused">
	<defs></defs>
	<g id="Icon_colorful">
		<path class="cls-1 aDezBTdK_0" d="M140 150.1h2.32a1.14 1.14 0 0 0 .25-.06 6.37 6.37 0 1 0 0-3.37 2.21 2.21 0 0 0-.25 0H140a1.74 1.74 0 0 0 0 3.48zm8.69-4.64a2.9 2.9 0 1 1-2.9 2.9 2.9 2.9 0 0 1 2.86-2.9zm-2.94-48.72V64.41a1.75 1.75 0 0 0-1.08-1.61l-44-18a2.13 2.13 0 0 0-.25 0 1.45 1.45 0 0 0-.41-.06 1.4 1.4 0 0 0-.41.06 2.13 2.13 0 0 0-.25 0l-44 18a1.75 1.75 0 0 0-1.08 1.61v32.33c0 18.87 7.4 32 16.21 40.84v9H67a1.74 1.74 0 0 0 0 3.48h5.2a1.74 1.74 0 0 0 1.74-1.74v-7.52a69.52 69.52 0 0 0 25.65 13.88 1.71 1.71 0 0 0 .82 0 69.13 69.13 0 0 0 23.33-12v5.65a1.74 1.74 0 0 0 1.74 1.74H133a1.74 1.74 0 0 0 0-3.48h-5.79v-6.83c9.79-8.86 18.54-22.52 18.54-43.02zm-88 0V65.58L98.26 49v7.81L64.62 70a1.72 1.72 0 0 0-1.1 1.61v26.8c0 32.61 28.16 42.49 34.74 44.36v7.91a65.94 65.94 0 0 1-24.32-14.54 56.32 56.32 0 0 1-3.43-3.61c-7.16-8.27-12.79-19.83-12.79-35.79zM133 77.13h-9.84a1.74 1.74 0 1 0 0 3.47H133v5.79h-5.2a1.74 1.74 0 1 0 0 3.48h5.2v5.79h-5.2a1.74 1.74 0 1 0 0 3.47h5.2c-.41 28.68-24 37.87-31.25 40v-8.43a1.74 1.74 0 0 0-3.48 0v8.44C91 136.91 67.42 127.46 67 99.13h5.2a1.74 1.74 0 1 0 0-3.47H67v-5.79h5.2a1.74 1.74 0 0 0 0-3.48H67V80.6h9.84a1.74 1.74 0 1 0 0-3.47H67v-4.35l31.26-12.22 1.74-.68 1.74.68L133 72.78zm-31.27 65.62c6.59-1.87 34.74-11.75 34.74-44.36v-26.8a1.72 1.72 0 0 0-1.1-1.61l-33.63-13.15V49l40.54 16.56v31.18c0 17.87-6.85 30.18-15.06 38.51q-1.71 1.74-3.48 3.25a65 65 0 0 1-22 12.19z"></path>
		<path class="cls-2 aDezBTdK_1" d="M100 67.86a16.6 16.6 0 0 0-1.74.1 15.66 15.66 0 0 0-13.9 15.54v3.16a6.38 6.38 0 0 0-4.63 6.1v23.17a6.38 6.38 0 0 0 6.37 6.37h27.8a6.38 6.38 0 0 0 6.37-6.37V92.76a6.38 6.38 0 0 0-4.63-6.1V83.5a15.66 15.66 0 0 0-13.9-15.5 16.6 16.6 0 0 0-1.74-.14zm16.79 48.07a2.89 2.89 0 0 1-2.89 2.89H86.1a2.89 2.89 0 0 1-2.89-2.89V92.76a2.89 2.89 0 0 1 2.89-2.89h27.8a2.89 2.89 0 0 1 2.89 2.89zM102.9 86.39h-5.8V83.5a2.88 2.88 0 0 1 1.16-2.26 2.69 2.69 0 0 1 3.48 0 2.85 2.85 0 0 1 1.16 2.26zm9.26 0h-5.79V83.5a6.36 6.36 0 0 0-4.63-6.1 5.74 5.74 0 0 0-3.48 0 6.36 6.36 0 0 0-4.63 6.1v2.89h-5.79V83.5a12.15 12.15 0 0 1 10.42-12 12.66 12.66 0 0 1 1.74-.17 12.36 12.36 0 0 1 1.74.17 12.15 12.15 0 0 1 10.42 12z"></path>
		<path class="cls-2 aDezBTdK_2" d="M101.74 95.93a5.74 5.74 0 0 0-3.48 0 6.33 6.33 0 0 0 0 12.2v3.17a1.74 1.74 0 0 0 3.48 0v-3.17a6.33 6.33 0 0 0 0-12.2zm0 8.35a2.69 2.69 0 0 1-3.48 0A2.84 2.84 0 0 1 97.1 102a2.84 2.84 0 0 1 4.64-2.26 2.85 2.85 0 0 1 1.16 2.26 2.82 2.82 0 0 1-1.16 2.28z"></path>
		<path class="cls-1 aDezBTdK_3" d="M51.35 154.73a6.36 6.36 0 0 0 6.12-4.73 1.14 1.14 0 0 0 .25.06H60a1.74 1.74 0 0 0 0-3.48h-2.28a2.21 2.21 0 0 0-.25 0 6.36 6.36 0 1 0-6.12 8.06zm0-9.27a2.9 2.9 0 1 1-2.89 2.9 2.9 2.9 0 0 1 2.89-2.9z"></path>
	</g>
	<style data-made-with="vivus-instant">
		.aDezBTdK_0{
			stroke-dasharray:1376 1378;
			stroke-dashoffset:1377;
			animation:aDezBTdK_draw 1333ms linear 0ms forwards;
		}
		.aDezBTdK_1{
			stroke-dasharray:388 390;
			stroke-dashoffset:389;
			animation:aDezBTdK_draw 1333ms linear 222ms forwards;
		}
		.aDezBTdK_2{
			stroke-dasharray:67 69;
			stroke-dashoffset:68;
			animation:aDezBTdK_draw 1333ms linear 444ms forwards;
		}
		.aDezBTdK_3{
			stroke-dasharray:66 68;
			stroke-dashoffset:67;
			animation:aDezBTdK_draw 1333ms linear 666ms forwards;
		}
		@keyframes aDezBTdK_draw{
			100%{
				stroke-dashoffset:0;
			}
		}
		@keyframes aDezBTdK_fade{
			0%{
				stroke-opacity:1;
			}
			93.54838709677419%{
				stroke-opacity:1;
			}
			100%{
				stroke-opacity:0;
			}
		}
	</style>
</svg>