<svg viewBox="0 0 200 200" xmlns="http://www.w3.org/2000/svg" class="">
	<path d="m128.21 126.1a1.89 1.89 0 0 0 -.14-2l-6.94-9.71-1.3-1.83-1.35-1.89-3-4.26a2 2 0 0 0 -3.09 0l-3 4.26-1.39 1.93-1.36 1.89-6.88 9.64a1.89 1.89 0 0 0 1.54 3h5.7v12 11.53a1.89 1.89 0 0 0 1.87 1.7h10.13a1.89 1.89 0 0 0 1.87-1.7v-11.5-12h5.69a1.88 1.88 0 0 0 1.65-1.06zm-9.21-2.77a1.9 1.9 0 0 0 -1.9 1.9v23.37h-6.31v-23.37a1.9 1.9 0 0 0 -1.9-1.9h-3.9l6.32-8.84 1.35-1.89 1.28-1.8 1.29 1.8 1.35 1.89 6.32 8.84z" fill="#1cbfa5" class="ayuKWRry_0"></path>
	<path d="m140.42 106.8a17.83 17.83 0 0 0 -4.78.67l-.15-.25a22.45 22.45 0 0 0 5.56-14.83c0-12.19-9.57-22.11-21.35-22.11a19.5 19.5 0 0 0 -5.38.78 27 27 0 0 0 -10.88-12.33 1.91 1.91 0 0 0 -2.86 1.65 1.92 1.92 0 0 0 1 1.64 23.21 23.21 0 0 1 9.89 12 1.85 1.85 0 0 0 1 1.07 1.9 1.9 0 0 0 1.46.06 16.65 16.65 0 0 1 5.82-1.12c9.69 0 17.56 8.22 17.56 18.32a18.72 18.72 0 0 1 -3.78 11.32 23.79 23.79 0 0 0 -19.64-10.67 24 24 0 0 0 -21.72 14.45 17.92 17.92 0 0 0 -4.8-.67 19.06 19.06 0 0 0 -11.51 3.9h-14.51c-9.68 0-17.56-8.21-17.56-18.31s7.88-18.32 17.56-18.32a15.54 15.54 0 0 1 4 .56 27.68 27.68 0 0 0 -1.07 7.6 1.9 1.9 0 1 0 3.79 0 24.19 24.19 0 0 1 1.33-7.94 1.34 1.34 0 0 0 .18-.28 23.08 23.08 0 0 1 8.72-11.17 1.94 1.94 0 0 0 .87-1.59 1.93 1.93 0 0 0 -3-1.6 27 27 0 0 0 -9.44 11.43 19.57 19.57 0 0 0 -5.39-.78c-11.76 0-21.34 9.92-21.34 22.11s9.58 22.1 21.35 22.1h10.65a20.64 20.64 0 0 0 -4.25 12.58c0 11.17 8.78 20.26 19.58 20.26h13.85a1.94 1.94 0 0 0 1.88-1.27 1.91 1.91 0 0 0 -1.8-2.52h-13.89c-8.71 0-15.79-7.39-15.79-16.47a16.74 16.74 0 0 1 5.61-12.58 15.79 15.79 0 0 1 2.63-1.89 15.3 15.3 0 0 1 7.55-2c.39 0 .79.08 1.19.11a14.15 14.15 0 0 1 2.25.39c-.13.48-.24 1-.34 1.48s-.2 1-.27 1.49a27.93 27.93 0 0 0 -.31 3.78 2.09 2.09 0 0 0 1.3 1.84 1.9 1.9 0 0 0 2.49-1.8 22.36 22.36 0 0 1 .28-3.39c.1-.64.22-1.27.38-1.89a19.39 19.39 0 0 1 .55-1.88 1.94 1.94 0 0 0 .15-.24 20.33 20.33 0 0 1 18.84-13.65 20 20 0 0 1 16.91 9.76 17 17 0 0 1 .94 1.67c.29.58.56 1.16.8 1.77.06.16.15.3.2.45s.1.15.14.24a21.62 21.62 0 0 1 1.22 7.07 2 2 0 0 0 1.27 1.9 1.9 1.9 0 0 0 2.52-1.79 25.67 25.67 0 0 0 -.9-6.79 13.88 13.88 0 0 1 3.43-.5c8.71 0 15.79 7.39 15.79 16.48s-7.08 16.47-15.79 16.47h-13.8a1.94 1.94 0 0 0 -1.88 1.28 1.9 1.9 0 0 0 1.8 2.51h13.88c10.8 0 19.58-9.09 19.58-20.26s-8.77-20.3-19.57-20.3z" fill="#1c3e57" class="ayuKWRry_1"></path>
	<path d="m75.58 76.36a1.89 1.89 0 0 0 .14 2l12.63 17.64a1.89 1.89 0 0 0 3.09 0l12.63-17.68a1.9 1.9 0 0 0 -1.54-3h-5.69v-9-13.16-3.72a1.9 1.9 0 0 0 -1.84-1.9h-10.16a1.9 1.9 0 0 0 -1.84 1.9v25.89h-5.74a1.89 1.89 0 0 0 -1.68 1.03zm9.26 2.76a1.89 1.89 0 0 0 1.9-1.89v-25.9h6.31v25.9a1.89 1.89 0 0 0 1.95 1.89h3.9l-9 12.53-9-12.53z" fill="#1cbfa5" class="ayuKWRry_2"></path>
	<style data-made-with="vivus-instant">
		.ayuKWRry_0{
			stroke-dasharray:228 230;
			stroke-dashoffset:229;
			animation:ayuKWRry_draw 1333ms linear 0ms forwards;
		}
		.ayuKWRry_1{
			stroke-dasharray:808 810;
			stroke-dashoffset:809;
			animation:ayuKWRry_draw 1333ms linear 333ms forwards;
		}
		.ayuKWRry_2{
			stroke-dasharray:238 240;
			stroke-dashoffset:239;
			animation:ayuKWRry_draw 1333ms linear 666ms forwards;
		}
		@keyframes ayuKWRry_draw{
			100%{
				stroke-dashoffset:0;
			}
		}
		@keyframes ayuKWRry_fade{
			0%{
				stroke-opacity:1;
			}
			93.54838709677419%{
				stroke-opacity:1;
			}
			100%{
				stroke-opacity:0;
			}
		}
	</style>
</svg>