<svg viewBox="0 0 200 200" xmlns="http://www.w3.org/2000/svg" class="svg-icon paused">
	<path d="m61.9 64.33a10 10 0 1 1 9.95-10 10 10 0 0 1 -9.95 10zm0-16.91a7 7 0 1 0 6.95 6.95 7 7 0 0 0 -6.95-6.95z" fill="#1cbfa5" class="HZpngRQL_0"></path><path d="m80.1 85.21a1.54 1.54 0 0 1 -.7-.17l-18.2-9.57a1.49 1.49 0 0 1 -.8-1.33v-11.31a1.5 1.5 0 0 1 3 0v10.4l17.39 9.15a1.5 1.5 0 0 1 -.69 2.83z" fill="#1cbfa5" class="HZpngRQL_1"></path><path d="m138.1 64.33a10 10 0 1 1 10-10 10 10 0 0 1 -10 10zm0-16.91a7 7 0 1 0 7 6.95 7 7 0 0 0 -7-6.95z" fill="#1cbfa5" class="HZpngRQL_2"></path><path d="m119.9 85.21a1.5 1.5 0 0 1 -.69-2.83l17.39-9.15v-10.4a1.5 1.5 0 0 1 3 0v11.31a1.49 1.49 0 0 1 -.8 1.33l-18.2 9.53a1.54 1.54 0 0 1 -.7.21z" fill="#1cbfa5" class="HZpngRQL_3"></path><g fill="#1c3e57"><path d="m100 159.83a47.07 47.07 0 0 1 -47-47 46.59 46.59 0 0 1 9.55-28.41 1.49 1.49 0 0 1 2.1-.28 1.46 1.46 0 0 1 .58 1 1.53 1.53 0 0 1 -.29 1.11 43.59 43.59 0 0 0 -8.94 26.57 44 44 0 1 0 88 0 43.58 43.58 0 0 0 -9.37-27.16 1.49 1.49 0 0 1 1.17-2.42 1.52 1.52 0 0 1 1.19.57 46.52 46.52 0 0 1 10 29 47.07 47.07 0 0 1 -46.99 47.02z" class="HZpngRQL_4"></path><path d="m100 140.21c-25.92 0-47-12.29-47-27.39s21.09-27.4 47-27.4c26.36 0 47 12 47 27.4s-20.64 27.39-47 27.39zm0-51.79c-24.27 0-44 11-44 24.4s19.74 24.39 44 24.39 44-10.94 44-24.39-19.73-24.4-44-24.4z" class="HZpngRQL_5"></path><path d="m109.46 114.32a1.5 1.5 0 1 1 0-3h36.05a1.5 1.5 0 0 1 0 3z" class="HZpngRQL_6"></path><path d="m54.49 114.32a1.5 1.5 0 0 1 0-3h36.05a1.5 1.5 0 1 1 0 3z" class="HZpngRQL_7"></path><path d="m100 159.83c-15.36 0-27.39-20.65-27.39-47s12-47 27.39-47 27.39 20.65 27.39 47-12.03 47-27.39 47zm0-91c-13.45 0-24.39 19.74-24.39 44s10.94 44 24.39 44 24.39-19.75 24.39-44-10.94-44.02-24.39-44.02z" class="HZpngRQL_8"></path><path d="m100 159.83a1.5 1.5 0 0 1 -1.5-1.5v-36.05a1.5 1.5 0 0 1 3 0v36.05a1.5 1.5 0 0 1 -1.5 1.5z" class="HZpngRQL_9"></path></g><path d="m100 104.85a1.5 1.5 0 0 1 -1.5-1.5v-44.12a1.5 1.5 0 1 1 3 0v44.12a1.5 1.5 0 0 1 -1.5 1.5z" fill="#1cbfa5" class="HZpngRQL_10"></path><path d="m100 60.73a9.95 9.95 0 1 1 10-9.95 10 10 0 0 1 -10 9.95zm0-16.9a7 7 0 1 0 7 7 7 7 0 0 0 -7-7z" fill="#1cbfa5" class="HZpngRQL_11"></path><path d="m100 123.78a11 11 0 1 1 11-11 11 11 0 0 1 -11 11zm0-18.93a8 8 0 1 0 8 8 8 8 0 0 0 -8-8z" fill="#1cbfa5" class="HZpngRQL_12"></path>
	<style data-made-with="vivus-instant">
		.HZpngRQL_0{
			stroke-dasharray:107 109;
			stroke-dashoffset:108;
			animation:HZpngRQL_draw 1333ms linear 0ms forwards;
		}
		.HZpngRQL_1{
			stroke-dasharray:73 75;
			stroke-dashoffset:74;
			animation:HZpngRQL_draw 1333ms linear 55ms forwards;
		}
		.HZpngRQL_2{
			stroke-dasharray:107 109;
			stroke-dashoffset:108;
			animation:HZpngRQL_draw 1333ms linear 111ms forwards;
		}
		.HZpngRQL_3{
			stroke-dasharray:73 75;
			stroke-dashoffset:74;
			animation:HZpngRQL_draw 1333ms linear 166ms forwards;
		}
		.HZpngRQL_4{
			stroke-dasharray:415 417;
			stroke-dashoffset:416;
			animation:HZpngRQL_draw 1333ms linear 222ms forwards;
		}
		.HZpngRQL_5{
			stroke-dasharray:458 460;
			stroke-dashoffset:459;
			animation:HZpngRQL_draw 1333ms linear 277ms forwards;
		}
		.HZpngRQL_6{
			stroke-dasharray:82 84;
			stroke-dashoffset:83;
			animation:HZpngRQL_draw 1333ms linear 333ms forwards;
		}
			.HZpngRQL_7{
			stroke-dasharray:82 84;
			stroke-dashoffset:83;
			animation:HZpngRQL_draw 1333ms linear 388ms forwards;
		}
		.HZpngRQL_8{
			stroke-dasharray:458 460;
			stroke-dashoffset:459;
			animation:HZpngRQL_draw 1333ms linear 444ms forwards;
		}
			.HZpngRQL_9{
			stroke-dasharray:82 84;
			stroke-dashoffset:83;
			animation:HZpngRQL_draw 1333ms linear 499ms forwards;
		}
		.HZpngRQL_10{
			stroke-dasharray:98 100;
			stroke-dashoffset:99;
			animation:HZpngRQL_draw 1333ms linear 555ms forwards;
		}
		.HZpngRQL_11{
			stroke-dasharray:107 109;
			stroke-dashoffset:108;
			animation:HZpngRQL_draw 1333ms linear 611ms forwards;
		}
		.HZpngRQL_12{
			stroke-dasharray:120 122;
			stroke-dashoffset:121;
			animation:HZpngRQL_draw 1333ms linear 666ms forwards;
		}
</style>
</svg>