<svg xmlns="http://www.w3.org/2000/svg" viewBox="0 0 200 200"><defs><style>.cls-1{fill:#1c3e57}.cls-2{fill:#1cbfa5}</style></defs><g id="Icon_colorful"><path class="cls-1" d="M83.62 152.75a1.5 1.5 0 0 1-1.5-1.5v-10.93a1.5 1.5 0 0 1 3 0v10.93a1.5 1.5 0 0 1-1.5 1.5zm-40.69-40.69a1.5 1.5 0 0 1 0-3h10.93a1.5 1.5 0 1 1 0 3zm75.93 20.34a1.52 1.52 0 0 1-.75-.19l-4.73-2.74a1.46 1.46 0 0 1-.7-.91 1.5 1.5 0 0 1 1.45-1.89 1.54 1.54 0 0 1 .75.21l4.73 2.73a1.49 1.49 0 0 1 .7.91 1.49 1.49 0 0 1-1.45 1.88zM104 147.3a1.52 1.52 0 0 1-1.3-.75l-2.74-4.73a1.51 1.51 0 0 1-.14-1.14 1.48 1.48 0 0 1 .69-.91 1.53 1.53 0 0 1 .75-.2 1.49 1.49 0 0 1 1.3.75l2.74 4.73a1.51 1.51 0 0 1 .15 1.14 1.5 1.5 0 0 1-1.45 1.11zm-40.73 0a1.5 1.5 0 0 1-1.27-2.25l2.73-4.73a1.5 1.5 0 0 1 1.3-.75 1.53 1.53 0 0 1 .75.2 1.49 1.49 0 0 1 .55 2l-2.74 4.74a1.5 1.5 0 0 1-1.32.79zm-14.89-14.9a1.49 1.49 0 0 1-1.45-1.88 1.53 1.53 0 0 1 .7-.91l4.74-2.73a1.38 1.38 0 0 1 .74-.21 1.5 1.5 0 0 1 1.3.75 1.51 1.51 0 0 1-.54 2l-4.74 2.74a1.49 1.49 0 0 1-.75.24zm4.74-37.95a1.48 1.48 0 0 1-.75-.2l-4.74-2.74a1.53 1.53 0 0 1-.7-.91 1.5 1.5 0 0 1 1.45-1.88 1.53 1.53 0 0 1 .75.2l4.74 2.73a1.5 1.5 0 0 1-.75 2.8zM66 81.55a1.51 1.51 0 0 1-1.3-.74L62 76.07a1.5 1.5 0 0 1 .55-2 1.47 1.47 0 0 1 .74-.2 1.5 1.5 0 0 1 1.3.75l2.74 4.74a1.5 1.5 0 0 1-.55 2 1.53 1.53 0 0 1-.78.19zm17.62 34.63a5.62 5.62 0 1 1 5.62-5.62 5.62 5.62 0 0 1-5.62 5.62zm0-8.24a2.63 2.63 0 1 0 2.63 2.62 2.62 2.62 0 0 0-2.63-2.62z"/><path class="cls-1" d="M83.62 107.94a1.5 1.5 0 0 1-1.5-1.5V88.87a1.5 1.5 0 0 1 3 0v17.57a1.5 1.5 0 0 1-1.5 1.5zm-3.4 1.79a1.51 1.51 0 0 1-1.11-.49l-8.07-9a1.49 1.49 0 0 1 .11-2.12 1.52 1.52 0 0 1 1-.38 1.48 1.48 0 0 1 1.11.5l8.07 9a1.51 1.51 0 0 1-.11 2.12 1.47 1.47 0 0 1-1 .37z"/><path class="cls-1" d="M83.62 160.12a49.56 49.56 0 0 1 0-99.12c1.18 0 2.46 0 3.9.16a1.51 1.51 0 0 1 1.38 1.61 1.52 1.52 0 0 1-1.52 1.38C85.92 64 84.72 64 83.62 64a46.57 46.57 0 1 0 45.31 57.33 1.5 1.5 0 0 1 1.46-1.16 2 2 0 0 1 .34 0 1.5 1.5 0 0 1 1.12 1.8 49.36 49.36 0 0 1-48.23 38.15z"/><path class="cls-1" d="M83.62 152.75a42.19 42.19 0 0 1 0-84.38c.43 0 .85 0 1.26.06h.64a1.5 1.5 0 0 1-.06 3H83.62a39.19 39.19 0 1 0 37.77 49.52 1.51 1.51 0 0 1 1.45-1.1 1.74 1.74 0 0 1 .39 0 1.5 1.5 0 0 1 1 1.84 42.24 42.24 0 0 1-40.61 31.06z"/><path class="cls-2" d="M164.14 82.58a1.49 1.49 0 0 1-1-.54 1.56 1.56 0 0 1-.34-1.1 32 32 0 0 0 .16-3.25 1.5 1.5 0 1 1 3 0c0 1.18-.05 2.37-.16 3.54a1.5 1.5 0 0 1-1.49 1.35zm-38.95 32.1a36.77 36.77 0 0 1-7.15-1.4 1.51 1.51 0 0 1-.89-.73 1.46 1.46 0 0 1-.11-1.14 1.49 1.49 0 0 1 1.43-1.07 1.68 1.68 0 0 1 .44.07 34.72 34.72 0 0 0 6.57 1.29 1.51 1.51 0 0 1 1.35 1.63 1.5 1.5 0 0 1-1.49 1.36zm14-1.37a1.5 1.5 0 0 1-.43-2.93 34.06 34.06 0 0 0 6.18-2.58 1.5 1.5 0 0 1 1.42 2.64 36.64 36.64 0 0 1-6.73 2.8 1.31 1.31 0 0 1-.44.07zm-33-6.53a1.51 1.51 0 0 1-1-.34 37.48 37.48 0 0 1-5.16-5.15 1.49 1.49 0 0 1-.33-1.09 1.52 1.52 0 0 1 .54-1 1.5 1.5 0 0 1 2.11.21 34.17 34.17 0 0 0 4.74 4.73 1.5 1.5 0 0 1-.95 2.66zm50.22-5a1.44 1.44 0 0 1-1-.34 1.49 1.49 0 0 1-.21-2.1 34.51 34.51 0 0 0 3.8-5.61 1.49 1.49 0 0 1 1.32-.8 1.4 1.4 0 0 1 .7.18 1.49 1.49 0 0 1 .62 2 36.81 36.81 0 0 1-4 6.07 1.5 1.5 0 0 1-1.24.57zM94.65 89.57a1.51 1.51 0 0 1-1.43-1.07 36.22 36.22 0 0 1-1.42-7.15 1.49 1.49 0 0 1 1.34-1.64h.15a1.51 1.51 0 0 1 1.49 1.35 34.74 34.74 0 0 0 1.3 6.57 1.49 1.49 0 0 1-1 1.87 1.61 1.61 0 0 1-.43.07zm0-20.73a1.25 1.25 0 0 1-.43-.07 1.48 1.48 0 0 1-1-1.86A36.69 36.69 0 0 1 96 60.17a1.49 1.49 0 0 1 1.32-.79 1.61 1.61 0 0 1 .71.17 1.48 1.48 0 0 1 .72.89 1.46 1.46 0 0 1-.11 1.14 34.41 34.41 0 0 0-2.57 6.19 1.49 1.49 0 0 1-1.43 1.07zm11.52-17.23a1.5 1.5 0 0 1-1.5-1.61 1.52 1.52 0 0 1 .54-1 37.64 37.64 0 0 1 6.06-4.05 1.59 1.59 0 0 1 .71-.18 1.5 1.5 0 0 1 1.32.8 1.49 1.49 0 0 1-.62 2 35.15 35.15 0 0 0-5.57 3.73 1.49 1.49 0 0 1-.95.31zm19.21-7.93a1.5 1.5 0 0 1-1.15-2.45 1.52 1.52 0 0 1 1-.54c1.17-.11 2.36-.16 3.53-.16a1.5 1.5 0 1 1 0 3c-1.08 0-2.18 0-3.25.15z"/><path class="cls-2" d="M164.44 79.19a1.5 1.5 0 0 1-1.49-1.5 34.21 34.21 0 0 0-34.17-34.17 1.5 1.5 0 1 1 0-3 37.2 37.2 0 0 1 37.16 37.16 1.5 1.5 0 0 1-1.5 1.51z"/><path class="cls-2" d="M128.78 109.5a31.81 31.81 0 1 1 31.81-31.81 31.85 31.85 0 0 1-31.81 31.81zm0-60.63a28.82 28.82 0 1 0 28.82 28.82 28.85 28.85 0 0 0-28.82-28.82z"/><path class="cls-2" d="M110.94 90.37a.38.38 0 0 1-.39-.39V88a.36.36 0 0 1 .12-.28l2.56-2.49c6.24-5.94 8.86-9 8.89-12.38 0-2.8-1.57-4.33-4.41-4.33a8 8 0 0 0-4.89 2 .38.38 0 0 1-.25.09.43.43 0 0 1-.35-.23l-1-2.3a.38.38 0 0 1 .1-.45 11 11 0 0 1 7.1-2.55c5.38 0 7.78 3.72 7.78 7.41 0 4.76-3.5 8.5-8.45 13.26l-1.29 1.2h10a.39.39 0 0 1 .39.39V90a.38.38 0 0 1-.39.39zm29.21 0a.38.38 0 0 1-.38-.39v-6.2h-10.85a.38.38 0 0 1-.39-.38v-2.16a.36.36 0 0 1 .07-.22l10.79-15.44a.39.39 0 0 1 .32-.16h3.53a.38.38 0 0 1 .38.38v14.65h3a.38.38 0 0 1 .39.38v2.57a.38.38 0 0 1-.39.38h-3V90a.38.38 0 0 1-.38.39zm-.74-19.24c-.29.52-.6 1-.94 1.6l-5.55 7.72h6.85v-7.69-1.52z"/></g></svg>