<svg xmlns="http://www.w3.org/2000/svg" viewBox="0 0 200 200" class="paused">
	<defs></defs>
	<g id="Icon_colorful">
		<path class="cls-1 LDZGEJmc_0" d="M100 61.53a1.47 1.47 0 0 1-1.47-1.47v-3.87a1.47 1.47 0 0 1 2.93 0v3.87a1.46 1.46 0 0 1-1.46 1.47zm36.17 22.37a1.49 1.49 0 0 1-1-.52 1.43 1.43 0 0 1-.33-1.07c.09-1 .13-2.08.13-3.12A34.72 34.72 0 0 0 132.78 67a1.47 1.47 0 0 1 .86-1.88 1.32 1.32 0 0 1 .51-.1 1.49 1.49 0 0 1 1.38 1 38 38 0 0 1 2.37 13.24c0 1.12-.05 2.26-.14 3.37a1.48 1.48 0 0 1-1.46 1.34z"></path>
		<path class="cls-1 LDZGEJmc_1" d="M128.12 57.48a1.46 1.46 0 0 1-1.13-.54 35 35 0 0 0-49.66-4.39 1.43 1.43 0 0 1-1 .35 1.47 1.47 0 0 1-.95-2.58 37.9 37.9 0 0 1 53.82 4.76 1.46 1.46 0 0 1-.2 2.06 1.44 1.44 0 0 1-.88.34zM63.7 83.9a1.48 1.48 0 0 1-1.46-1.33c-.09-1.11-.14-2.25-.14-3.38a37.59 37.59 0 0 1 7.59-22.77 1.47 1.47 0 0 1 2.63.67 1.5 1.5 0 0 1-.32 1.09 34.66 34.66 0 0 0-7 21c0 1 0 2.09.13 3.12a1.43 1.43 0 0 1-.33 1.07 1.49 1.49 0 0 1-1 .52zm36.3 33.19A37.87 37.87 0 0 1 87.58 115a1.47 1.47 0 0 1 .48-2.85 1.61 1.61 0 0 1 .48.08 35.33 35.33 0 0 0 22.92 0 1.61 1.61 0 0 1 .48-.08 1.46 1.46 0 0 1 .48 2.85 37.87 37.87 0 0 1-12.42 2.09zm0-17.31c-6.46 0-11.72-5-11.72-11a1.47 1.47 0 0 1 2.93 0c0 4.47 3.94 8.1 8.79 8.1s8.79-3.63 8.79-8.1-4-8.1-8.79-8.1c-6.46 0-11.72-4.94-11.72-11s5.26-11 11.72-11 11.72 4.95 11.72 11a1.47 1.47 0 1 1-2.93 0c0-4.46-4-8.09-8.79-8.09s-8.79 3.63-8.79 8.09 3.94 8.1 8.79 8.1c6.46 0 11.72 5 11.72 11s-5.26 11-11.72 11z"></path>
		<path class="cls-1 LDZGEJmc_2" d="M100 104.17a1.47 1.47 0 0 1-1.47-1.47v-4.38a1.47 1.47 0 1 1 2.93 0v4.38a1.46 1.46 0 0 1-1.46 1.47z"></path>
		<path class="cls-2 LDZGEJmc_3" d="M136.44 99.38a1.49 1.49 0 0 1-.59-.13 1.46 1.46 0 0 1-.75-1.93l6.13-13.85a1.45 1.45 0 0 1 1.34-.88 1.37 1.37 0 0 1 .59.13 1.47 1.47 0 0 1 .75 1.93l-6.13 13.85a1.48 1.48 0 0 1-1.34.88z"></path>
		<path class="cls-2 LDZGEJmc_4" d="M117.21 150.24a1.48 1.48 0 0 1-1.39-1L110 132.65a29.91 29.91 0 0 1 2.68-23.93l12.22-21a13.37 13.37 0 0 1 8.2-6.26 13.67 13.67 0 0 1 3.47-.46 13.11 13.11 0 0 1 3.42.45l.74.19-5-32.36a1.5 1.5 0 0 1 0-.22 7.87 7.87 0 0 1 7.92-8.19 7.9 7.9 0 0 1 7.9 7.59l6.09 31.81a1.13 1.13 0 0 1 0 .25 43 43 0 0 1-5.8 22.41l-9.21 15.87v.11c-.36 4.73 2.42 17.51 3.83 21.31a1.37 1.37 0 0 1 .08.35 4.9 4.9 0 0 1 0 .54 1.44 1.44 0 0 1-1.4 1.51 1.46 1.46 0 0 1-1.51-1.4V141.07c-1.66-4.72-4.5-18-3.87-22.93a1.57 1.57 0 0 1 .19-.55l9.37-16.13a39.94 39.94 0 0 0 5.4-20.72l-6.08-31.81a1 1 0 0 1 0-.24 5 5 0 0 0-1.8-3.74 4.93 4.93 0 0 0-3.18-1.15 5.69 5.69 0 0 0-.83.06 5.16 5.16 0 0 0-4.15 5l5.33 35a1.45 1.45 0 0 1-.62 1.43 1.42 1.42 0 0 1-.82.25 1.46 1.46 0 0 1-.74-.19 10.49 10.49 0 0 0-5.28-1.43 10.91 10.91 0 0 0-2.72.35 10.51 10.51 0 0 0-6.42 4.9l-12.21 21a26.9 26.9 0 0 0-2.44 21.54l5.83 16.56a1.45 1.45 0 0 1-.06 1.12 1.48 1.48 0 0 1-.84.75 1.56 1.56 0 0 1-.48.1z"></path>
		<path class="cls-2 LDZGEJmc_5" d="M118.19 150.47a34.66 34.66 0 0 1-4-.23c-6.44-.76-8.3-3.17-8.72-5.05-.65-2.88 1.74-6 6.71-8.9a1.46 1.46 0 0 1 1.46 2.54c-3.55 2-5.63 4.28-5.31 5.71s2.67 2.38 6.21 2.79a31 31 0 0 0 3.72.21 53.72 53.72 0 0 0 11.41-1.37 47.13 47.13 0 0 0 14.18-5.43c3-1.89 4.71-3.88 4.41-5.18s-2.46-2.27-5.71-2.72a1.48 1.48 0 0 1-1-.57 1.42 1.42 0 0 1-.28-1.09 1.45 1.45 0 0 1 1.43-1.26.86.86 0 0 1 .22 0c6 .83 7.76 3.17 8.16 5s-.22 4.86-5.72 8.3a49.73 49.73 0 0 1-15.09 5.8 55.77 55.77 0 0 1-12.08 1.45z"></path>
		<path class="cls-2 LDZGEJmc_6" d="M113.07 159.83a1.48 1.48 0 0 1-1.08-.47c-3.91-4.21-6.45-13.72-6.56-14.12a1.46 1.46 0 0 1 1-1.79 1.5 1.5 0 0 1 .37 0 1.48 1.48 0 0 1 1.42 1.09c.67 2.55 3 9.81 5.87 12.87a1.46 1.46 0 0 1-.08 2.07 1.42 1.42 0 0 1-.94.35zm40.06-15.03a1.46 1.46 0 0 1-1.45-1.23 17.17 17.17 0 0 0-4-8.84 1.43 1.43 0 0 1-.44-1 1.49 1.49 0 0 1 .42-1 1.48 1.48 0 0 1 1.05-.44 1.5 1.5 0 0 1 1 .43 19.73 19.73 0 0 1 4.81 10.46 1.45 1.45 0 0 1-1.22 1.67.93.93 0 0 1-.17-.05zM63.56 99.38a1.48 1.48 0 0 1-1.34-.88l-6.13-13.85a1.47 1.47 0 0 1 .75-1.93 1.37 1.37 0 0 1 .59-.13 1.45 1.45 0 0 1 1.34.88l6.13 13.85a1.46 1.46 0 0 1-.75 1.93 1.49 1.49 0 0 1-.59.13z"></path>
		<path class="cls-2 LDZGEJmc_7" d="M82.79 150.24a1.56 1.56 0 0 1-.48-.08 1.46 1.46 0 0 1-.9-1.87l5.85-16.61a27 27 0 0 0-2.46-21.49l-12.21-21a10.51 10.51 0 0 0-6.42-4.9 10.92 10.92 0 0 0-2.72-.36 10.5 10.5 0 0 0-5.28 1.44 1.46 1.46 0 0 1-.74.19 1.42 1.42 0 0 1-.82-.25 1.48 1.48 0 0 1-.61-1.47L61.32 49a5.18 5.18 0 0 0-4.15-5.14 5.69 5.69 0 0 0-.83-.07 5 5 0 0 0-5 4.89 1 1 0 0 1 0 .25l-6.08 31.69a39.94 39.94 0 0 0 5.39 20.8L60 117.55a1.57 1.57 0 0 1 .19.55c.64 4.9-2.19 18.12-3.84 22.9V141.15a1.47 1.47 0 1 1-2.94 0v-.53a2 2 0 0 1 .09-.35c1.41-3.79 4.19-16.57 3.83-21.31v-.11l-9.21-15.87a43 43 0 0 1-5.8-22.41 1 1 0 0 1 0-.24l6.08-31.75a8 8 0 0 1 2.86-5.84 7.9 7.9 0 0 1 5.05-1.82A7.87 7.87 0 0 1 64.26 49a1.5 1.5 0 0 1 0 .22l-4.97 32.39.74-.2a13.5 13.5 0 0 1 15.09 6.27l12.22 21A29.94 29.94 0 0 1 90 132.6l-5.86 16.66a1.48 1.48 0 0 1-1.35.98z"></path>
		<path class="cls-2 LDZGEJmc_8" d="M81.81 150.47A55.77 55.77 0 0 1 69.74 149c-11.07-2.48-22.12-8.27-20.81-14.1.4-1.81 2.15-4.15 8.16-5h.2a1.45 1.45 0 0 1 1.45 1.26 1.42 1.42 0 0 1-.28 1.09 1.48 1.48 0 0 1-1 .57c-3.25.45-5.44 1.49-5.71 2.72-.58 2.55 6.22 7.82 18.59 10.61a53.64 53.64 0 0 0 11.41 1.37 31 31 0 0 0 3.72-.21c3.54-.41 5.92-1.48 6.21-2.79s-1.76-3.67-5.31-5.71a1.46 1.46 0 0 1-.54-2 1.48 1.48 0 0 1 1.27-.74 1.46 1.46 0 0 1 .73.2c5 2.85 7.36 6 6.71 8.9-.42 1.88-2.28 4.29-8.72 5.06a37.07 37.07 0 0 1-4.01.24z"></path>
		<path class="cls-2 LDZGEJmc_9" d="M86.93 159.83a1.47 1.47 0 0 1-1.07-2.47c2.84-3.06 5.2-10.32 5.87-12.87a1.47 1.47 0 0 1 1.42-1.09 1.57 1.57 0 0 1 .37 0 1.48 1.48 0 0 1 1 1.79c-.11.4-2.67 9.92-6.56 14.12a1.48 1.48 0 0 1-1.03.52zM46.87 144.8a.9.9 0 0 1-.23 0 1.45 1.45 0 0 1-1.22-1.67 19.79 19.79 0 0 1 4.81-10.46 1.47 1.47 0 1 1 2.07 2.08 17.27 17.27 0 0 0-4 8.84 1.47 1.47 0 0 1-1.43 1.21z"></path>
	</g>
	<style data-made-with="vivus-instant">
		.LDZGEJmc_0{
			stroke-dasharray:59 61;stroke-dashoffset:60;animation:LDZGEJmc_draw 1333ms linear 0ms forwards;
		}
		.LDZGEJmc_1{
			stroke-dasharray:442 444;
			stroke-dashoffset:443;
			animation:LDZGEJmc_draw 1333ms linear 74ms forwards;
		}
		.LDZGEJmc_2{
			stroke-dasharray:19 21;
			stroke-dashoffset:20;
			animation:LDZGEJmc_draw 1333ms linear 148ms forwards;
		}
		.LDZGEJmc_3{
			stroke-dasharray:40 42;
			stroke-dashoffset:41;
			animation:LDZGEJmc_draw 1333ms linear 222ms forwards;}
		.LDZGEJmc_4{
			stroke-dasharray:482 484;
			stroke-dashoffset:483;
			animation:LDZGEJmc_draw 1333ms linear 296ms forwards;
		}
		.LDZGEJmc_5{
			stroke-dasharray:145 147;
			stroke-dashoffset:146;
			animation:LDZGEJmc_draw 1333ms linear 370ms forwards;
		}
		.LDZGEJmc_6{
			stroke-dasharray:110 112;
			stroke-dashoffset:111;
			animation:LDZGEJmc_draw 1333ms linear 444ms forwards;
		}
		.LDZGEJmc_7{
			stroke-dasharray:482 484;
			stroke-dashoffset:483;
			animation:LDZGEJmc_draw 1333ms linear 518ms forwards;
		}
		.LDZGEJmc_8{
			stroke-dasharray:145 147;
			stroke-dashoffset:146;
			animation:LDZGEJmc_draw 1333ms linear 592ms forwards;
		}
		.LDZGEJmc_9{
			stroke-dasharray:70 72;
			stroke-dashoffset:71;
			animation:LDZGEJmc_draw 1333ms linear 666ms forwards;
		}
	</style>
</svg>