<svg xmlns="http://www.w3.org/2000/svg" viewBox="0 0 200 200"><defs><style>.cls-1{fill:#1cbfa5}.cls-2{fill:#1c3e57}</style></defs><g id="Icon_colorful"><path class="cls-1" d="M88 143.16a1.79 1.79 0 0 0 .5 1.24l10.3 10.41a1.74 1.74 0 0 0 1.22.52 1.73 1.73 0 0 0 1.22-.51l10.29-10.18a1.77 1.77 0 0 0 .52-1.24V91.29a24.32 24.32 0 0 0 12.86-21.44 24.89 24.89 0 0 0-49.78 0A24.32 24.32 0 0 0 88 91.29v11.79a1.73 1.73 0 0 0 .55 1.26l9 8.48-9 9.08a1.74 1.74 0 0 0 0 2.47l9 8.88-9 8.68a1.78 1.78 0 0 0-.55 1.23zm13.24-8.64a1.82 1.82 0 0 0 .53-1.25 1.77 1.77 0 0 0-.52-1.24l-9-8.92 9.06-9.11a1.76 1.76 0 0 0 .51-1.25 2.71 2.71 0 0 0-.09-.41 1.56 1.56 0 0 0 .09-.44v-11.57a1.74 1.74 0 0 0-3.48 0v8.42l-6.82-6.42v-12.1a1.73 1.73 0 0 0-1-1.56 20.9 20.9 0 0 1-11.94-18.82 21.42 21.42 0 0 1 42.84 0 20.9 20.9 0 0 1-11.89 18.82 1.73 1.73 0 0 0-1 1.56v52.45l-8.53 8.45-7.83-7.92z"/><path class="cls-1" d="M106.37 61a6.37 6.37 0 1 0-6.37 6.33 6.38 6.38 0 0 0 6.37-6.33zM100 58.06A2.9 2.9 0 1 1 97.11 61a2.89 2.89 0 0 1 2.89-2.94z"/><path class="cls-2" d="M72.21 48.8a2.84 2.84 0 0 1 2 .85 1.74 1.74 0 0 0 2.47-2.46 6.38 6.38 0 0 0-10.88 4.5v4.64a6.29 6.29 0 0 0 1.87 4.5 1.74 1.74 0 1 0 2.45-2.46 2.89 2.89 0 0 1-.84-2v-4.68a2.89 2.89 0 0 1 2.93-2.89zm61.95 2.89a6.38 6.38 0 0 0-10.74-4.64 1.74 1.74 0 0 0 2.38 2.54 2.89 2.89 0 0 1 4.88 2.1v4.64a2.89 2.89 0 0 1-1 2.16 1.74 1.74 0 0 0 1.16 3 1.69 1.69 0 0 0 1.15-.44 6.35 6.35 0 0 0 2.14-4.75zm-80.48-6.36a6.36 6.36 0 0 0-6.36 6.36v4.64a6.37 6.37 0 0 0 12.73 0v-4.64a6.37 6.37 0 0 0-6.37-6.36zm2.9 11a2.9 2.9 0 0 1-5.79 0v-4.64a2.9 2.9 0 0 1 5.79 0zm3.47 23.15v-4.63a6.37 6.37 0 1 0-12.73 0v4.63a6.37 6.37 0 1 0 12.73 0zm-9.26 0v-4.63a2.9 2.9 0 0 1 5.79 0v4.63a2.9 2.9 0 1 1-5.79 0zM140 74.85v4.63a6.37 6.37 0 1 0 12.73 0v-4.63a6.37 6.37 0 1 0-12.73 0zm9.26 0v4.63a2.9 2.9 0 1 1-5.79 0v-4.63a2.9 2.9 0 0 1 5.79 0zm-83.6 8.95a1.7 1.7 0 0 0 3.4 0V70.19a1.7 1.7 0 1 0-3.4 0zm65.02-13.58v13.9a1.74 1.74 0 0 0 3.48 0v-13.9a1.74 1.74 0 0 0-3.48 0zm11-24.89a1.73 1.73 0 0 0-1.68 1.73V61a1.74 1.74 0 0 0 3.47 0V47.06a1.73 1.73 0 0 0-1.79-1.73zm11 15.67V47.06a1.74 1.74 0 0 0-3.47 0V61a1.74 1.74 0 0 0 3.47 0zm-18.52 60.17a6.37 6.37 0 1 0-12.74 0v4.63a6.37 6.37 0 1 0 12.74 0zm-3.48 4.63a2.9 2.9 0 0 1-5.79 0v-4.63a2.9 2.9 0 1 1 5.79 0zm-52.1-4.63a6.37 6.37 0 0 0-12.74 0v4.63a6.37 6.37 0 0 0 12.74 0zm-3.47 4.63a2.9 2.9 0 0 1-5.79 0v-4.63a2.9 2.9 0 1 1 5.79 0zm77.57-4.63a6.37 6.37 0 1 0-12.73 0v4.63a6.37 6.37 0 1 0 12.73 0zm-3.47 4.63a2.9 2.9 0 0 1-5.79 0v-4.63a2.9 2.9 0 1 1 5.79 0zm-5.79-23.16V98a6.37 6.37 0 1 0-12.74 0v4.63a6.37 6.37 0 0 0 12.74 0zm-9.26 0V98a2.9 2.9 0 0 1 5.84 0v4.63a2.9 2.9 0 1 1-5.79 0zm-50.95 4.63a1.73 1.73 0 0 0-1.74-1.73 2.9 2.9 0 0 1-2.89-2.9V98a2.88 2.88 0 0 1 .85-2A1.74 1.74 0 1 0 77 93.51 6.32 6.32 0 0 0 75.11 98v4.63a6.37 6.37 0 0 0 6.36 6.37 1.74 1.74 0 0 0 1.74-1.73zM56.58 98v4.63a6.37 6.37 0 1 0 12.74 0V98a6.37 6.37 0 1 0-12.74 0zm9.26 0v4.63a2.9 2.9 0 1 1-5.79 0V98a2.9 2.9 0 0 1 5.79 0zm86.84-4.62a1.74 1.74 0 1 0-3.47 0v13.89a1.74 1.74 0 1 0 3.47 0zm-31.26 0v13.89a1.74 1.74 0 1 0 3.47 0V93.38a1.74 1.74 0 1 0-3.47 0zm-70.63 0a1.74 1.74 0 1 0-3.47 0v13.89a1.74 1.74 0 1 0 3.47 0zm5.79 22.2v13.61a1.7 1.7 0 1 0 3.4 0v-13.61a1.7 1.7 0 1 0-3.4 0zm-5.79.96a1.74 1.74 0 1 0-3.47 0v13.89a1.74 1.74 0 1 0 3.47 0zm67.74 38.79a6.37 6.37 0 0 0 6.36-6.37v-4.63a6.37 6.37 0 0 0-6.36-6.37 1.74 1.74 0 1 0 0 3.47 2.9 2.9 0 0 1 2.89 2.9V149a2.9 2.9 0 0 1-5.11 1.86 1.74 1.74 0 0 0-2.66 2.23 6.34 6.34 0 0 0 4.88 2.24zm-55.53 0a6.38 6.38 0 0 0 6.32-6.33v-4.63a6.37 6.37 0 1 0-12.74 0V149a6.38 6.38 0 0 0 6.42 6.33zm-2.9-11a2.9 2.9 0 1 1 5.79 0V149a2.9 2.9 0 0 1-5.79 0zm86.22 11a6.37 6.37 0 0 0 6.36-6.37v-4.63a6.37 6.37 0 1 0-12.73 0V149a6.37 6.37 0 0 0 6.37 6.33zm-2.9-11a2.9 2.9 0 1 1 5.79 0V149a2.9 2.9 0 0 1-5.79 0zm-12.74-4.64v13.9a1.74 1.74 0 0 0 3.48 0v-13.9a1.74 1.74 0 0 0-3.48 0zm-55.57 0v13.9a1.74 1.74 0 1 0 3.47 0v-13.9a1.74 1.74 0 0 0-3.47 0zm8.7 9.93v2.27a1.71 1.71 0 0 0 3.41 0v-2.27a1.71 1.71 0 0 0-3.41 0zM49.05 138a1.73 1.73 0 0 0-1.73 1.73v13.9a1.74 1.74 0 1 0 3.47 0v-13.9a1.74 1.74 0 0 0-1.74-1.73z"/><path class="cls-1" d="M100 77.75a1.73 1.73 0 0 0-1.74 1.73v4.64a1.74 1.74 0 0 0 3.48 0v-4.64a1.73 1.73 0 0 0-1.74-1.73zm1.74 13.31a1.74 1.74 0 0 0-3.48 0v2.32a1.74 1.74 0 0 0 3.48 0z"/></g></svg>