<svg viewBox="0 0 466 250" xmlns="http://www.w3.org/2000/svg" xmlns:xlink="http://www.w3.org/1999/xlink"><linearGradient id="a" gradientUnits="userSpaceOnUse" x1="139.46" x2="306.82" y1="129.15" y2="223.5"><stop offset="0" stop-color="#83bbf2"/><stop offset=".25" stop-color="#98c8f6"/><stop offset=".74" stop-color="#bedefc"/><stop offset="1" stop-color="#cce6ff"/></linearGradient><linearGradient id="b" x1="317.35" x2="158.86" xlink:href="#a" y1="123.09" y2="20.93"/><linearGradient id="c" x1="530.93" x2="192.15" xlink:href="#a" y1="76.18" y2="183.36"/><linearGradient id="d" gradientUnits="userSpaceOnUse" x1="183.3" x2="185.81" y1="206.16" y2="120.99"><stop offset="0" stop-color="#b3d7ff"/><stop offset=".2" stop-color="#9ac9f8"/><stop offset=".39" stop-color="#89bff4"/><stop offset=".53" stop-color="#83bbf2"/><stop offset="1" stop-color="#bfd9f2"/></linearGradient><linearGradient id="e" gradientTransform="matrix(.8660254 .5 -.5 .8660254 86.85 -128.5)" gradientUnits="userSpaceOnUse" x1="371.54" x2="237.33" y1="41.86" y2="126.94"><stop offset="0" stop-color="#83bbf2"/><stop offset="1" stop-color="#bfd9f2"/></linearGradient><linearGradient id="f" gradientUnits="userSpaceOnUse" x1="156.42" x2="273.42" y1="128.46" y2="194.43"><stop offset="0" stop-color="#b1d2f2"/><stop offset=".09" stop-color="#b7d6f3"/><stop offset=".69" stop-color="#ddecfc"/><stop offset="1" stop-color="#ebf5ff"/></linearGradient><linearGradient id="g" x1="302.4" x2="172.49" xlink:href="#f" y1="123.59" y2="39.86"/><linearGradient id="h" x1="477.89" x2="199.73" xlink:href="#f" y1="84.92" y2="172.93"/><linearGradient id="i" gradientUnits="userSpaceOnUse" x1="304.8" x2="195.61" y1="120.32" y2="57.29"><stop offset="0" stop-color="#c9def2"/><stop offset="1" stop-color="#f2f2f2"/></linearGradient><g opacity=".79"><path d="m233.94 239.45v-113.15l-98.13-56.65-.84.36v111.96l.65 1.13 97.6 56.35z" fill="url(#a)"/><path d="m332.22 69.24.12.22-98.25 56.89-98.41-56.47.05-1.11 97.71-56.41h1.31l97.43 56.39z" fill="url(#b)"/><path d="m233.94 126.3v113.15h.71l97.6-56.35.65-1.13v-111.97l-.38-.44-.14-.09z" fill="url(#c)"/></g><path d="m234.65 239.45h-1.43v-112.73l-98.24-56.72.75-1.23 98.92 57.12z" fill="url(#d)"/><path d="m226.31 97.12h113.86v1.44h-113.86z" fill="url(#e)" transform="matrix(.8660254 -.5 .5 .8660254 -10.98 154.71)"/><path d="m234.03 218.97v-92.74l-80.43-46.44-.69-.21v92.28l.54.93 80 46.18z" fill="url(#f)"/><path d="m314.59 79.46.1.18-80.53 46.63-80.66-46.28.04-.91 80.09-46.24h1.07l79.86 46.22z" fill="url(#g)"/><path d="m234.03 126.23v92.74h.59l79.99-46.18.54-.93v-92.46l-.29.02-.14.23z" fill="url(#h)"/><path d="m234.16 33.36 79.54 46-79.54 46-80-45.89zm0-.83-81.16 46.88a.16.16 0 0 0 -.08.14.17.17 0 0 0 .08.14l81.19 46.58 81-46.87z" fill="url(#i)"/><g opacity=".48"><path d="m234.03 218.97v-92.74l-80.43-46.44-.69-.21v92.28l.54.93 80 46.18z" fill="url(#f)"/><path d="m314.59 79.46.1.18-80.53 46.63-80.66-46.28.04-.91 80.09-46.24h1.07l79.86 46.22z" fill="url(#g)"/><path d="m234.03 126.23v92.74h.59l79.99-46.18.54-.93v-92.46l-.29.02-.14.23z" fill="url(#h)"/><path d="m234.16 33.36 79.54 46-79.54 46-80-45.89zm0-.83-81.16 46.88a.16.16 0 0 0 -.08.14.17.17 0 0 0 .08.14l81.19 46.58 81-46.87z" fill="url(#i)"/></g></svg>