<svg xmlns="http://www.w3.org/2000/svg" viewBox="0 0 200 200" class="paused">
	<defs><style>.cls-1{fill:#1c3e57}
		.cls-2{fill:#1cbfa5}</style></defs>
	<g id="Icon_colorful">
		<path class="cls-1 WgeRShDR_0" d="M101.93 138.48a1.71 1.71 0 1 1 0-3.42h42.46V43.35H73.82V65a1.71 1.71 0 0 1-3.42 0V41.64a1.72 1.72 0 0 1 1.71-1.71h74a1.71 1.71 0 0 1 1.71 1.71v95.13a1.71 1.71 0 0 1-1.71 1.71z"></path>
		<path class="cls-1 WgeRShDR_1" d="M107 148a1.71 1.71 0 0 1 0-3.42h46.39v-93.4a1.71 1.71 0 1 1 3.42 0v95.13a1.72 1.72 0 0 1-1.71 1.71zM87 57.13a1.71 1.71 0 1 1 0-3.42h44.17a1.71 1.71 0 1 1 0 3.42zm0 10.51a1.72 1.72 0 0 1 0-3.43h44.17a1.72 1.72 0 0 1 0 3.43zm18.1 10.5a1.71 1.71 0 1 1 0-3.42h26.09a1.71 1.71 0 1 1 0 3.42zm6.75 10.51a1.71 1.71 0 1 1 0-3.42h19.34a1.71 1.71 0 1 1 0 3.42z"></path>
		<path class="cls-1 WgeRShDR_2" d="M115.25 99.16a1.71 1.71 0 1 1 0-3.42h15.94a1.71 1.71 0 1 1 0 3.42zm0 10.51a1.72 1.72 0 0 1 0-3.43h15.94a1.72 1.72 0 0 1 0 3.43zm-2.64 10.5a1.71 1.71 0 1 1 0-3.42h18.58a1.71 1.71 0 1 1 0 3.42z"></path>
		<path class="cls-2 WgeRShDR_3" d="M73.18 132.94A28.79 28.79 0 1 1 102 104.15a28.83 28.83 0 0 1-28.82 28.79zm0-54.42a25.63 25.63 0 1 0 25.63 25.63 25.65 25.65 0 0 0-25.63-25.63z"></path>
		<path class="cls-2 WgeRShDR_4" d="M73.18 119.47a15.32 15.32 0 1 1 15.32-15.32 15.34 15.34 0 0 1-15.32 15.32zm0-27.48a12.16 12.16 0 1 0 12.16 12.16A12.17 12.17 0 0 0 73.18 92zM93 158.83a1.61 1.61 0 0 1-.93-.3l-18.89-13.6-18.88 13.6a1.6 1.6 0 0 1-.93.29 1.62 1.62 0 0 1-.72-.17 1.57 1.57 0 0 1-.86-1.41v-34.48a1.56 1.56 0 0 1 1-1.47 1.47 1.47 0 0 1 .58-.12 1.63 1.63 0 0 1 1.16.5 25.53 25.53 0 0 0 37.31 0 1.62 1.62 0 0 1 1.15-.5 1.52 1.52 0 0 1 .59.12 1.58 1.58 0 0 1 1 1.47v34.48a1.57 1.57 0 0 1-.86 1.41 1.54 1.54 0 0 1-.72.18zm-38-4.68l17.31-12.46a1.62 1.62 0 0 1 1.85 0l17.3 12.46v-27.57l-2.33 1.56a28.72 28.72 0 0 1-31.79 0L55 126.58z"></path>
	</g>
	<style>
		.WgeRShDR_0{
			stroke-dasharray:482 484;
			stroke-dashoffset:483;
			animation:WgeRShDR_draw2 1333ms linear 0ms forwards;
		}
		.WgeRShDR_1{
			stroke-dasharray:607 609;
			stroke-dashoffset:608;
			animation:WgeRShDR_draw2 1333ms linear 166ms forwards;
		}
		.WgeRShDR_2{
			stroke-dasharray:133 135;
			stroke-dashoffset:134;
			animation:WgeRShDR_draw2 1333ms linear 333ms forwards;
		}
			.WgeRShDR_3{
			stroke-dasharray:342 344;
			stroke-dashoffset:343;
			animation:WgeRShDR_draw 1333ms linear 500ms forwards;
		}
		.WgeRShDR_4{
			stroke-dasharray:484 486;
			stroke-dashoffset:485;
			animation:WgeRShDR_draw 1333ms linear 666ms forwards;
		}
		@keyframes WgeRShDR_draw{
			0% {
		        stroke-dashoffset: 213;
		    }
		    90% {
		        stroke-dashoffset: 0;
		        stroke-opacity: 1;
		        fill: transparent;
		    }
			100%{
				stroke-dashoffset:0;
				stroke-opacity: 0;
				fill: #1c3e57;
			}
		}
		@keyframes WgeRShDR_draw2{
			0% {
		        stroke-dashoffset: 213;
		    }
		    90% {
		        stroke-dashoffset: 0;
		        stroke-opacity: 1;
		        fill: transparent;
		    }
			100%{
				stroke-dashoffset:0;
				stroke-opacity: 0;
				fill: #1cbfa5;
			}
		}
	</style>
</svg>