<svg id="圖層_1" data-name="圖層 1" xmlns="http://www.w3.org/2000/svg" viewBox="0 0 200 200"><path d="M135.5,29H29V64.5A23.7,23.7,0,0,0,52.67,88.17v14.28l23.66,23.67v21.21H70.42a17.77,17.77,0,0,0-17.75,17.75V171H64.5v-5.92a5.92,5.92,0,0,1,5.92-5.91h59.16a5.92,5.92,0,0,1,5.92,5.91V171h11.83v-5.92a17.77,17.77,0,0,0-17.75-17.75h-5.91V126.12l23.66-23.67V88.17A23.7,23.7,0,0,0,171,64.5V29ZM40.83,64.5V40.83H52.67v35.5A11.84,11.84,0,0,1,40.83,64.5Zm47.34,82.83V129.58h23.66v17.75ZM135.5,97.55l-20.2,20.2H84.7L64.5,97.55V40.83h71Zm23.67-56.72V64.5a11.84,11.84,0,0,1-11.84,11.83V40.83Z"/><path d="M85.71,85.21l23.16-23.16,8.37,8.37L94.08,93.58Z"/></svg>