<svg xmlns="http://www.w3.org/2000/svg" viewBox="0 0 200 200" class="svg-icon paused">
	<defs></defs>
	<g id="Icon_colorful">
		<path d="M165.53 134.74h.22-.73z" class="BXbBuuZa_0"></path>
		<path class="cls-1 BXbBuuZa_1" d="M109.24 147.15c-.08-.24-.17-.46-.27-.69l-.17-.35q-.15-.3-.33-.6l-.2-.33c-.13-.21-.27-.4-.42-.6l-.2-.26-.24-.29 26-15.28c.08.23.17.46.27.68s.11.24.17.36.21.4.33.6.13.22.2.33.27.4.42.59l.2.27.24.29-26 15.28zm-44.47-15.28a10 10 0 0 0 1.84-3.12l26 15.27a9.71 9.71 0 0 0-1.82 3.13zm41.4 11l-.27-.2a6.27 6.27 0 0 0-.59-.42L105 142q-.3-.18-.6-.33l-.36-.17c-.22-.1-.44-.19-.67-.27l-.17-.06 15.68-27.66-11.44-6.74a9.69 9.69 0 0 0 1.83-3.12l11.4 6.7 15.63-27.59.17.14.27.2c.19.14.38.28.58.41l.34.2a5.76 5.76 0 0 0 .6.33l.36.17a6.69 6.69 0 0 0 .67.27l.16.06-15.68 27.67 11.45 6.73a9.9 9.9 0 0 0-1.84 3.12l-11.38-6.7L106.34 143zM78 115.36l-11.4 6.71c-.1-.28-.18-.48-.27-.69l-.15-.3c-.13-.26-.23-.46-.35-.65s-.13-.23-.2-.33-.27-.4-.42-.6l-.2-.26-.24-.29 11.46-6.74-15.68-27.67.16-.06c.22-.08.45-.17.67-.27a4 4 0 0 0 .36-.17q.3-.15.6-.33l.33-.2c.21-.13.4-.27.59-.41l.27-.2.17-.14 15.65 27.62 11.41-6.72c.08.23.17.46.27.68s.11.24.17.35.21.41.33.61l.2.33c.13.2.27.4.42.59l.2.27.24.29-11.46 6.74 15.68 27.65a9.75 9.75 0 0 0-3.16 1.83zm66.44.38c-.32-.06-.62-.09-.92-.12h-1.55c-.24 0-.48 0-.71.07h-.44V84.91a7.24 7.24 0 0 0 .92.12h1.54c.25 0 .48 0 .72-.08H144.44zm-85.28 0a9.65 9.65 0 0 0-.92-.12H56.7c-.24 0-.48 0-.71.07H55.55V84.91h.35l.8.09h1.55a7 7 0 0 0 .92-.12zm42.64-25.08a7.24 7.24 0 0 0-.92-.12h-1.55c-.24 0-.48 0-.71.08H98.18V77.05H67c0-.31.09-.61.12-.92v-.51-.54-.49c0-.14 0-.48-.07-.72s0-.22 0-.29v-.15h31.14v-13.6c.31.05.61.09.92.12h1.55c.24 0 .48 0 .71-.07H101.81v13.6H133a1.43 1.43 0 0 0 0 .16 1.11 1.11 0 0 0 0 .19c0 .33-.07.57-.08.81v1.54c0 .32.07.62.12.92h-31.23zM66.62 71.9a9.87 9.87 0 0 0-1.83-3.12l26-15.28c.08.23.17.45.27.68l.17.35c.11.21.21.41.33.6s.13.23.2.33.27.4.42.6l.2.26.24.29zm41-15.16a8.43 8.43 0 0 0 1.69-3.2l25.92 15.24a9.71 9.71 0 0 0-1.84 3.12z"></path>
		<path class="cls-2 BXbBuuZa_2" d="M100.06 59H99.2c-.32 0-.64-.08-1-.14a9 9 0 0 1-1-.25l-.2-.15a5.53 5.53 0 0 1-.61-.24l-.32-.15c-.19-.1-.37-.19-.54-.3l-.3-.18c-.18-.12-.36-.24-.53-.37l-.24-.22a8.74 8.74 0 0 1-1.33-1.32l-.13-.21c-.13-.18-.26-.35-.38-.54l-.18-.29c-.1-.18-.2-.36-.29-.55a2.2 2.2 0 0 1-.15-.31c-.09-.2-.17-.41-.25-.61l-.1-.29c-.1-.31-.19-.62-.26-.94s-.1-.65-.13-1v-.32-.69-.38c0-.13 0-.43.06-.64v-.12c0-.13 0-.26.06-.39a8.85 8.85 0 0 1 6.84-6.9l.47-.08h.12c.21 0 .42-.05.64-.06h1.39c.32 0 .64.07 1 .13a8.55 8.55 0 0 1 1 .26l.29.1c.2.08.41.16.6.25l.32.15c.19.09.37.19.54.29l.3.19a6.3 6.3 0 0 1 .53.37l.24.18a7.1 7.1 0 0 1 .71.63 8.47 8.47 0 0 1 .63.7l.17.24c.13.17.26.35.38.53l.15.25c.13.23.23.41.32.59a1.87 1.87 0 0 1 .15.32 6.5 6.5 0 0 1 .25.61s.09.23.1.28c.1.31.19.62.26.94s.1.66.13 1V50.76c0 .13 0 .43-.06.65v.12c0 .13 0 .26-.06.38a8.85 8.85 0 0 1-6.84 6.91l-.49.08-.74.08h-.38zM100 44.45a5.72 5.72 0 1 0 5.71 5.71 5.71 5.71 0 0 0-5.71-5.71zm42.68 39.62H141.84a9.64 9.64 0 0 1-1-.14 9 9 0 0 1-1-.25l-.29-.11c-.2-.07-.41-.15-.61-.24l-.27-.13c-.23-.12-.41-.21-.58-.32l-.3-.18a7.09 7.09 0 0 1-.53-.37l-.24-.18a9.71 9.71 0 0 1-1.34-1.33l-.18-.24-.37-.53-.18-.3c-.11-.18-.2-.36-.29-.54s-.11-.21-.16-.32a6.44 6.44 0 0 1-.24-.61l-.11-.29c-.1-.31-.18-.62-.25-.94s-.11-.65-.14-1v-.31-.7-.37c0-.12 0-.44.07-.65v-.12a2.63 2.63 0 0 1 .06-.39 8.85 8.85 0 0 1 6.84-6.9l.46-.08h.12c.22 0 .43-.06.65-.07h1.39c.32 0 .64.07.95.13a7.85 7.85 0 0 1 1 .26l.29.1.61.25.26.12.6.32.3.19a6.3 6.3 0 0 1 .53.37l.24.18a8.37 8.37 0 0 1 1.33 1.33l.18.24c.13.18.26.35.37.53s.13.2.19.3.2.36.29.54l.15.32c.09.2.17.4.25.61l.1.29a7.21 7.21 0 0 1 .25.94 8.4 8.4 0 0 1 .14 1V75.87c0 .12 0 .44-.06.65v.12l-.06.39a8.87 8.87 0 0 1-6.84 6.9L144 84l-.73.08h-.37zm0-14.54a5.72 5.72 0 1 0 5.71 5.71 5.72 5.72 0 0 0-5.75-5.71zm0 64.7H141.83c-.32 0-.64-.07-1-.13a9 9 0 0 1-1-.26l-.29-.1-.61-.25-.31-.15c-.19-.09-.37-.19-.55-.29l-.3-.19c-.17-.11-.35-.24-.52-.37l-.24-.18a8.37 8.37 0 0 1-.7-.62 8.54 8.54 0 0 1-.64-.71l-.18-.24c-.13-.17-.25-.35-.37-.53l-.18-.3c-.11-.18-.2-.36-.29-.54a3.18 3.18 0 0 1-.16-.32 6.44 6.44 0 0 1-.24-.61l-.11-.29a9.05 9.05 0 0 1-.25-.93c-.06-.34-.11-.66-.14-1v-.32-.7-.37c0-.13 0-.43.07-.65v-.12a2.32 2.32 0 0 1 .06-.38 8.85 8.85 0 0 1 6.84-6.91l.46-.07h.12l.65-.07H143.34c.32 0 .64.08.95.14a7.88 7.88 0 0 1 1 .25l.29.11a6.44 6.44 0 0 1 .61.24l.32.15c.18.1.36.19.54.3l.3.18c.18.12.36.24.53.37l.24.19a8.74 8.74 0 0 1 1.33 1.32l.18.25a6.15 6.15 0 0 1 .37.52c.07.1.13.2.19.3s.2.36.29.54l.15.32c.09.2.17.41.25.61v.11l.06.18a7.66 7.66 0 0 1 .25.94 8.56 8.56 0 0 1 .14 1V126.04c0 .13 0 .43-.06.64v.12l-.06.39a8.86 8.86 0 0 1-6.84 6.9l-.47.08h-.12c-.21 0-.43 0-.65.06h-.37zm0-14.54a5.72 5.72 0 1 0 5.71 5.72 5.73 5.73 0 0 0-5.75-5.72zm-42.63 39.62H99.2c-.32 0-.64-.07-1-.13a8.55 8.55 0 0 1-1-.26l-.28-.1-.61-.25a3.13 3.13 0 0 1-.32-.15c-.19-.09-.37-.19-.54-.29l-.3-.18-.53-.38-.24-.18a7 7 0 0 1-1.25-1.39l-.19-.24-.37-.53-.18-.3c-.1-.17-.2-.35-.29-.54s-.11-.22-.15-.31-.17-.41-.25-.62v-.11l-.06-.17c-.1-.31-.19-.62-.26-.94s-.1-.65-.13-1v-.32-.7-.37c0-.13 0-.43.06-.64v-.12c0-.13 0-.26.06-.39a8.85 8.85 0 0 1 6.84-6.91l.47-.07h.12c.21 0 .42-.05.64-.06H100.83a7.48 7.48 0 0 1 1 .13c.35.07.66.16 1 .25l.29.11c.2.08.41.15.61.24l.31.16c.19.09.37.19.54.29l.3.18c.19.12.36.25.53.37l.25.19a8.17 8.17 0 0 1 .7.62 7 7 0 0 1 .62.71l.18.24c.13.17.26.35.38.53l.18.3c.1.17.2.35.29.54a2.2 2.2 0 0 1 .15.31c.1.2.17.41.25.62l.11.28c.09.31.18.62.25.94s.1.66.13 1v1.38c0 .12 0 .44-.06.65v.12c0 .13 0 .26-.06.39a8.83 8.83 0 0 1-6.84 6.9 4.61 4.61 0 0 1-.47.08h-.12c-.21 0-.42.05-.64.06h-.37zm0-14.54a5.72 5.72 0 1 0 5.71 5.72 5.72 5.72 0 0 0-5.76-5.72zm-42.64-10.54H56.56c-.32 0-.64-.07-1-.13a9 9 0 0 1-1-.26l-.28-.1-.61-.25-.32-.15-.54-.29-.3-.19a6.3 6.3 0 0 1-.53-.37l-.24-.18a8.52 8.52 0 0 1-.71-.62 8.29 8.29 0 0 1-.62-.71l-.18-.24c-.13-.17-.26-.35-.38-.53l-.14-.24c-.14-.24-.24-.42-.33-.6a3.13 3.13 0 0 1-.15-.32 6.5 6.5 0 0 1-.25-.61l-.1-.29a7.06 7.06 0 0 1-.25-.93 8.89 8.89 0 0 1-.14-1v-.33-.69-.32c0-.27 0-.48.07-.7v-.11c0-.14 0-.27.06-.39a8.85 8.85 0 0 1 6.84-6.91l.51-.08.72-.08H58.08c.32 0 .64.08 1 .14a8.57 8.57 0 0 1 1 .25l.28.11a5.53 5.53 0 0 1 .61.24l.3.14c.21.11.39.2.56.31l.3.18c.18.12.36.24.53.37l.25.19c.24.19.47.4.7.62a8.17 8.17 0 0 1 .62.7l.19.25c.12.17.25.34.37.53l.18.29c.1.18.2.36.29.55l.16.31.24.61a3 3 0 0 1 .1.29 7.66 7.66 0 0 1 .25.94 8.4 8.4 0 0 1 .14 1 1.48 1.48 0 0 1 0 .21v1.19c0 .13 0 .43-.06.64s0 .37-.08.51a8.83 8.83 0 0 1-6.84 6.9l-.47.08h-.12c-.21 0-.42 0-.64.06h-.37zm0-14.54a5.72 5.72 0 1 0 5.71 5.72 5.72 5.72 0 0 0-5.76-5.72zm-.26-35.62h-.38l-.64-.07H56l-.38-.06a8.82 8.82 0 0 1-6.9-6.83 4.31 4.31 0 0 1-.08-.48v-.11c0-.22 0-.43-.06-.65s0-.26 0-.37v-1.02a7.48 7.48 0 0 1 .13-1 8.37 8.37 0 0 1 .26-1l.1-.29c.08-.21.15-.41.24-.61l.15-.29c.1-.21.2-.39.3-.57s.13-.22.18-.3.25-.36.38-.53l.18-.24a8.17 8.17 0 0 1 .62-.7 8.42 8.42 0 0 1 .71-.63l.24-.18a6.3 6.3 0 0 1 .53-.37 2.38 2.38 0 0 1 .3-.18 4.68 4.68 0 0 1 .54-.3l.32-.15c.19-.09.4-.17.61-.25l.28-.1a7.66 7.66 0 0 1 .94-.25 8.89 8.89 0 0 1 1-.14h1.33a6.11 6.11 0 0 1 .7.07h.12l.39.06A8.85 8.85 0 0 1 66 73.42a3.23 3.23 0 0 1 .08.49 6.22 6.22 0 0 1 .08.75v1.19a1.21 1.21 0 0 1 0 .19A9.66 9.66 0 0 1 66 77a9 9 0 0 1-.26 1l-.1.29-.24.61c0 .11-.11.21-.16.32s-.19.36-.29.54l-.18.3c-.12.18-.25.35-.38.53l-.18.24a8.17 8.17 0 0 1-.62.7c-.23.22-.46.43-.71.63l-.24.18c-.17.13-.35.25-.53.37l-.28.17c-.19.12-.38.21-.56.31l-.27.11a6.62 6.62 0 0 1-.62.24l-.28.11c-.31.1-.62.18-.94.25s-.65.11-1 .14H57.32zm.21-14.54a5.72 5.72 0 1 0 5.71 5.71 5.71 5.71 0 0 0-5.71-5.71zM100 109.15H99.16a7.66 7.66 0 0 1-1-.14 7.1 7.1 0 0 1-1-.25l-.28-.11a6.44 6.44 0 0 1-.61-.24l-.3-.14a5.87 5.87 0 0 1-.56-.31l-.3-.18c-.18-.12-.36-.24-.53-.37l-.24-.18a9.29 9.29 0 0 1-1.33-1.33l-.18-.24c-.13-.17-.26-.35-.38-.53l-.18-.3c-.1-.18-.2-.36-.29-.54a2.3 2.3 0 0 1-.15-.32c-.09-.2-.17-.4-.25-.61l-.1-.29a9.26 9.26 0 0 1-.26-.94c-.06-.33-.1-.65-.13-1v-.32-.7-.37c0-.12 0-.44.06-.65v-.12c0-.13 0-.26.06-.39a8.85 8.85 0 0 1 6.84-6.9l.47-.08h.12l.64-.07h1.56a7.66 7.66 0 0 1 1 .14 9 9 0 0 1 1 .25l.16.08a6.62 6.62 0 0 1 .62.24l.27.13c.23.12.41.21.58.32s.2.11.3.18.36.24.53.37l.24.18c.25.2.48.41.71.63a8.17 8.17 0 0 1 .62.7 2.91 2.91 0 0 1 .18.24c.13.18.26.35.38.53l.14.24c.14.24.24.42.33.6l.16.32c.09.2.16.41.24.61l.11.29c.09.31.18.62.25.94s.1.65.13 1v1.34c0 .27 0 .49-.07.7v.12c0 .13 0 .26-.06.39a8.85 8.85 0 0 1-6.84 6.9l-.47.08h-.12c-.21 0-.42.06-.64.07h-.37zm0-14.54a5.72 5.72 0 1 0 5.71 5.72 5.72 5.72 0 0 0-5.71-5.72z"></path>
	</g>
	<style data-made-with="vivus-instant">
		.BXbBuuZa_0{
			stroke-dasharray:2 4;
			stroke-dashoffset:3;
			animation:BXbBuuZa_draw 1333ms linear 0ms forwards;
		}
		.BXbBuuZa_1{
			stroke-dasharray:991 993;
			stroke-dashoffset:992;
			animation:BXbBuuZa_draw 1333ms linear 333ms forwards;
		}
		.BXbBuuZa_2{
			stroke-dasharray:642 644;
			stroke-dashoffset:643;
			animation:BXbBuuZa_draw 1333ms linear 666ms forwards;
		}
		@keyframes BXbBuuZa_draw{
			100%{
				stroke-dashoffset:0;
			}
		}
		@keyframes BXbBuuZa_fade{
			0%{
				stroke-opacity:1;
			}
			93.54838709677419%{
				stroke-opacity:1;
			}
			100%{
				stroke-opacity:0;
			}
		}
	</style>
</svg>