<svg viewBox="0 0 200 200" xmlns="http://www.w3.org/2000/svg" style="">
	<g fill="#1c3e57">
		<path d="m84.09 141c-17.36 0-34.93-3.52-34.93-10.24v-4.83a1.47 1.47 0 0 1 2.94 0v4.83c0 2.55 11 7.31 32 7.31s32-4.76 32-7.31v-4.83a1.47 1.47 0 0 1 2.93 0v4.83c-.03 6.7-17.59 10.24-34.94 10.24z" class="XKZCeNgT_0"></path>
		<path d="m84.09 159.83c-17.36 0-34.93-3.52-34.93-10.25v-4.82a1.47 1.47 0 1 1 2.94 0v4.82c0 2.55 11 7.31 32 7.31s32-4.76 32-7.31v-4.82a1.47 1.47 0 1 1 2.93 0v4.82c-.03 6.73-17.59 10.25-34.94 10.25z" class="XKZCeNgT_1"></path>
		<path d="m131.27 140.72a1.47 1.47 0 0 1 -1.47-1.47v-43.56a1.46 1.46 0 0 1 1.47-1.46h14.92l-33.87-39.64-8.7 10.18a1.44 1.44 0 0 1 -2.06.16 1.42 1.42 0 0 1 -.51-1 1.43 1.43 0 0 1 .35-1.07l9.81-11.49a1.54 1.54 0 0 1 2.23 0l37 43.36a1.46 1.46 0 0 1 -1.11 2.42h-16.6v42.09a1.47 1.47 0 0 1 -1.46 1.48z" class="XKZCeNgT_2"></path>
		<path d="m84.09 122.63c-17.36 0-34.93-3.52-34.93-10.25 0-6.14 14.2-8.59 20.31-9.36h.18a1.49 1.49 0 0 1 1 .36 1.46 1.46 0 0 1 .5 1.1v2.52h25.91v-2.57a1.46 1.46 0 0 1 1.47-1.43h.18c6.1.77 20.3 3.22 20.3 9.36-.01 6.75-17.57 10.27-34.92 10.27zm-16.48-16.4c-11.38 1.77-15.51 4.62-15.51 6.15 0 2.55 11 7.32 32 7.32s32-4.77 32-7.32c0-1.53-4.13-4.43-15.51-6.15l-.58-.08v2.36a1.47 1.47 0 0 1 -1.48 1.49h-28.88a1.46 1.46 0 0 1 -1.46-1.47v-2.36z" class="XKZCeNgT_3"></path>
		<path d="m149.37 127.38a1.47 1.47 0 0 1 -1.47-1.47v-15.61a1.47 1.47 0 0 1 2.94 0v15.61a1.47 1.47 0 0 1 -1.47 1.47z" class="XKZCeNgT_4"></path>
		<path d="m55.85 93.19a1.46 1.46 0 0 1 -1.46-1.47v-5.59a1.47 1.47 0 1 1 2.93 0v5.59a1.47 1.47 0 0 1 -1.47 1.47z" class="XKZCeNgT_5"></path>
	</g>
	<path d="m69.65 110a1.46 1.46 0 0 1 -1.46-1.47v-31.75h-12.34a1.47 1.47 0 0 1 -1.11-2.42l28.26-33.05a1.46 1.46 0 0 1 1.12-.48 1.42 1.42 0 0 1 1.11.48l28.24 33.05a1.46 1.46 0 0 1 .22 1.56 1.49 1.49 0 0 1 -1.34.86h-12.35v31.73a1.47 1.47 0 0 1 -1.47 1.49zm-10.65-36.16h10.65a1.47 1.47 0 0 1 1.47 1.47v31.69h25.94v-31.69a1.47 1.47 0 0 1 1.47-1.47h10.61l-25-29.32z" fill="#1cbfa5" class="XKZCeNgT_6"></path>
	<style data-made-with="vivus-instant">
		.XKZCeNgT_0{
			stroke-dasharray:173 175;
			stroke-dashoffset:174;
			animation:XKZCeNgT_draw 1333ms linear 0ms forwards;
		}
		.XKZCeNgT_1{
			stroke-dasharray:174 176;
			stroke-dashoffset:175;
			animation:XKZCeNgT_draw 1333ms linear 111ms forwards;
		}
		.XKZCeNgT_2{
			stroke-dasharray:273 275;
			stroke-dashoffset:274;
			animation:XKZCeNgT_draw 1333ms linear 222ms forwards;
		}
		.XKZCeNgT_3{
			stroke-dasharray:302 304;
			stroke-dashoffset:303;
			animation:XKZCeNgT_draw 1333ms linear 333ms forwards;
		}
		.XKZCeNgT_4{
			stroke-dasharray:41 43;
			stroke-dashoffset:42;
			animation:XKZCeNgT_draw 1333ms linear 444ms forwards;
		}
		.XKZCeNgT_5{
			stroke-dasharray:21 23;
			stroke-dashoffset:22;
			animation:XKZCeNgT_draw 1333ms linear 555ms forwards;
		}
		.XKZCeNgT_6{
			stroke-dasharray:411 413;
			stroke-dashoffset:412;
			animation:XKZCeNgT_draw 1333ms linear 666ms forwards;
		}
		@keyframes XKZCeNgT_draw{
			100%{
				stroke-dashoffset:0;
			}
		}
		@keyframes XKZCeNgT_fade{
			0%
			{
				stroke-opacity:1;
			}
			93.54838709677419%{
				stroke-opacity:1;
			}
			100%{
				stroke-opacity:0;
			}
		}
	</style>
</svg>