<svg xmlns="http://www.w3.org/2000/svg" xmlns:xlink="http://www.w3.org/1999/xlink" viewBox="0 0 150 150"><defs><style>.cls-1{isolation:isolate;}.cls-2{fill:#ffa8a7;}.cls-3{fill:#dae6e6;}.cls-4{fill:#2d2979;}.cls-5{fill:#7fa8e6;}.cls-6{fill:#597bc6;}.cls-7{fill:#f28f8f;}.cls-8{fill:#f5fbfb;}.cls-9{fill:#b8ccc9;}.cls-10{fill:#543354;}.cls-11{fill:#6b99d1;opacity:0.15;mix-blend-mode:multiply;}.cls-12{fill:#dceeff;}.cls-13{fill:#a5cbfa;}.cls-14{fill:#c8e2ff;}.cls-15{fill:#fff;}.cls-16{fill:#344593;}.cls-17{fill:#1e3779;}.cls-18{fill:#031f60;}.cls-19{fill:#57d9c3;}.cls-20{fill:#5cccb9;}.cls-21{fill:#a1e6da;}.cls-22{opacity:0.3;fill:url(#Degradado_sin_nombre_2);}.cls-23{opacity:0.5;fill:url(#Degradado_sin_nombre_2-2);}</style><linearGradient id="Degradado_sin_nombre_2" x1="111.26" y1="88.19" x2="84.58" y2="41.18" gradientUnits="userSpaceOnUse"><stop offset="0" stop-color="#57d9c3"/><stop offset="0.1" stop-color="#57d9c3" stop-opacity="0.79"/><stop offset="0.21" stop-color="#57d9c3" stop-opacity="0.58"/><stop offset="0.32" stop-color="#57d9c3" stop-opacity="0.4"/><stop offset="0.44" stop-color="#57d9c3" stop-opacity="0.26"/><stop offset="0.57" stop-color="#57d9c3" stop-opacity="0.14"/><stop offset="0.7" stop-color="#57d9c3" stop-opacity="0.06"/><stop offset="0.83" stop-color="#57d9c3" stop-opacity="0.02"/><stop offset="1" stop-color="#57d9c3" stop-opacity="0"/></linearGradient><linearGradient id="Degradado_sin_nombre_2-2" x1="44.37" y1="88.39" x2="65.78" y2="50.32" xlink:href="#Degradado_sin_nombre_2"/></defs><g class="cls-1"><g id="圖層_1" data-name="圖層 1"><path class="cls-2" d="M66.74,55a18.88,18.88,0,0,0-2.43,0,7.49,7.49,0,0,1-2.35.09c-.85-.11-3.18-1.88-5.06-3.55A20.35,20.35,0,0,1,52.09,45c-1-2.63-2.51-8-3.22-9.87a3.06,3.06,0,0,0-2.78-2.32c-1.33-.19-2.19.34-1.49,3.07a53.76,53.76,0,0,0,4.11,11.28,26,26,0,0,0,5.42,6.63,30.37,30.37,0,0,0,6.15,4.1c.63.35,1,.77,2.15,1.58a8.57,8.57,0,0,0,3.8,1.58c1.16.11,1.59,0,1.72-.26s0-.52-.57-.63A6.85,6.85,0,0,1,65,59.39s1.13.3,1.83.41a6.76,6.76,0,0,0,1.87.07c.6-.07,1-.86.5-1s-1-.07-2-.26a6.93,6.93,0,0,1-1.58-.48,14.13,14.13,0,0,0,2.09.09,3,3,0,0,0,1.6-.44c.24-.16.34-.69-.33-.76a10.25,10.25,0,0,1-2.53-.17c-.83-.21-1.38-.47-1.24-.57s.62.06,1.34-.1,1.28-.73,1.16-1.11S67.47,54.93,66.74,55Z"/><path class="cls-3" d="M49.42,36.09a4.48,4.48,0,0,0-1.7-2.84,2.83,2.83,0,0,0-1.67-.59l-1.94,8.57,1.94,4.39c3.05.78,5.58-2.45,5.58-2.45S49.84,37.47,49.42,36.09Z"/><path class="cls-4" d="M39.21,100.23a9.94,9.94,0,0,1-.45,1.3,6.08,6.08,0,0,0-.51,2.08c0,.5,1.09,1.37,1.86,1.59a4.91,4.91,0,0,1,2.19,1.85,4.5,4.5,0,0,0,3.21,1.78c1.11,0,2.37,0,2.69-.43s0-1-2-2.91-3.41-3.17-3.91-4.78Z"/><path class="cls-4" d="M33.71,106.24a4,4,0,0,0-.57,2.6,14.34,14.34,0,0,1-.17,3.61,6.5,6.5,0,0,0,1.15,4,1.69,1.69,0,0,0,2.93-.48,6.88,6.88,0,0,0,.3-4.31c-.39-1.52.12-2.68-.13-3.7a9,9,0,0,0-.62-1.72Z"/><path class="cls-5" d="M33.71,64.29c.06,1.71.59,9.12.83,13s.58,8.49.58,8.49a43.46,43.46,0,0,0-1.41,6.46c-.43,3.36,0,14,0,14a2.66,2.66,0,0,0,2.89,0s2-9.34,2.83-13.16,1.71-5.63,1.87-8,1-15.75,1-15.75l.45,0,1.11,12.2a19.56,19.56,0,0,0-2.1,4.76c-.62,2.4-2.57,14-2.57,14a2.48,2.48,0,0,0,3.09.48s6.79-15.51,7.41-17-.29-23.4-.29-23.4Z"/><path class="cls-6" d="M42.32,69.29a22.72,22.72,0,0,0,4.45-2.2,7.49,7.49,0,0,1-2.69,2.22c-.16,1.6-.2,12.21-.2,12.21l-1.11-12.2Z"/><path class="cls-2" d="M37.81,31.31s.19,3.72.1,4.05-1.7,1.42-2.18,1.81,2.57,3.4,4.06,4.08S46,40.13,46,37.83s-.8-4.24-1.52-4.34S37.81,31.31,37.81,31.31Z"/><path class="cls-7" d="M37.81,31.29l.1,2.58s2.38,2.25,4.27,1.91c1-.19.94-.89.94-.89V32.73Z"/><path class="cls-8" d="M37.38,35.91s2.7,4,6.47,4.41c1.19-1.17,1.3-5.34-.35-6.67,0,0,1.51-1.22,2.55-1a5.34,5.34,0,0,1,2.32,3,24.11,24.11,0,0,1,1.33,8.62c-.06,3.94,0,16,0,16s-.53,2.56-3.94,4.45-5.94,2.09-8.25,1.55c-1.91-.45-3.48-1.12-4.14-2.5.17-2.77,1.41-10,.95-13.47s-1.2-6.08-1.39-8.89.37-2.76,1.78-3.76A22.87,22.87,0,0,1,37.38,35.91Z"/><path class="cls-3" d="M43.85,40.32a21.51,21.51,0,0,0,.32-2.75,8.75,8.75,0,0,0-1-3v-1a2.49,2.49,0,0,1,1.38.9,5.8,5.8,0,0,1,1.36,4.09A4.77,4.77,0,0,1,43.85,40.32Z"/><path class="cls-8" d="M43.85,40.32c.28-.54.8-2.33,1-2.59.5-.16,1,.81,1,.81a2.6,2.6,0,0,1-.64,1.63A1.19,1.19,0,0,1,43.85,40.32Z"/><path class="cls-9" d="M44.9,37.73c-.25.26-.77,2.05-1,2.59a9.17,9.17,0,0,1,.57-.86c.28-.36.62-1.05,1.45-.92C45.87,38.54,45.4,37.57,44.9,37.73Z"/><path class="cls-2" d="M46.23,25.76h0c-.45-2.89-2.53-5.07-5.51-4.91A5.73,5.73,0,0,0,37.8,31.31a5.84,5.84,0,0,0,.47,1.26c1,1.23,4.24,2,5.15,1.86a2.71,2.71,0,0,0,2.37-1.94C46.78,30.22,46.47,27.19,46.23,25.76Z"/><path class="cls-10" d="M45.79,23.43A5.66,5.66,0,0,0,39.84,21a5.73,5.73,0,0,0-3.61,2.48c-1.24.44-1.37,1.37-1.21,2.89a11.07,11.07,0,0,0,1.25,4.5c.26.46,1.08.16,1.53.47-.06-.2-1.56-2.44,0-2.94a1.91,1.91,0,0,1,.32,1.18s.76-.07.59-1c-.05-.25-.09-.48-.13-.69a2.62,2.62,0,0,1,.44-2,2.32,2.32,0,0,0,.4-1.88,7.67,7.67,0,0,0,4.36.34A3.92,3.92,0,0,0,45.79,23.43Z"/><path class="cls-10" d="M36.23,23.45s-.35-1.14,1.11-2.25c1.74-1.32,4.19-1,6.77,0,1.65.66,4.21-.15,3.71,1.74-.72,2.78-6.08,3-8.41,1.08A6,6,0,0,0,36.23,23.45Z"/><path class="cls-2" d="M37.81,31.29s-.14.3-.7.33c-1,.05-2.27-1.89-1.42-3.21a1.37,1.37,0,0,1,2.1,0Z"/><path class="cls-3" d="M37.93,34.62c.07.57,3.1,2.82,3.82,3.12s2.1,2.58,2.1,2.58a3,3,0,0,0-2.75,1.07s-4.31-1.81-5-4.7c0,0,.8-1.55.92-1.95s.44-.85.89-.87Z"/><path class="cls-8" d="M41.1,41.39s.32-2.22.78-2.42,2,1.35,2,1.35A4.15,4.15,0,0,1,41.1,41.39Z"/><path class="cls-9" d="M41.88,39c-.46.2-.78,2.42-.78,2.42a9.4,9.4,0,0,1,1.58-1.22,2.85,2.85,0,0,1,1.17.15S42.34,38.77,41.88,39Z"/><path class="cls-11" d="M120.2,123.49,80,146.7a4.81,4.81,0,0,1-4.39,0L35.4,123.49a1.55,1.55,0,0,1-.91-1.27,1.29,1.29,0,0,1,.48-1,2.37,2.37,0,0,1,.43-.31L75.61,97.75a4.85,4.85,0,0,1,4.39,0L120.2,121A1.34,1.34,0,0,1,120.2,123.49Z"/><path class="cls-12" d="M120.2,96.59,80,119.8a4.5,4.5,0,0,1-2.2.52,4.6,4.6,0,0,1-2.19-.51L35.4,96.59a1.33,1.33,0,0,1,0-2.53l6.39-3.68L75.61,70.85a4.85,4.85,0,0,1,4.39,0l40.2,23.21A1.34,1.34,0,0,1,120.2,96.59Z"/><path class="cls-13" d="M77.8,111.17v9.15a4.6,4.6,0,0,1-2.19-.51L35.4,96.59a1.56,1.56,0,0,1-.91-1.26V87.4a1.31,1.31,0,0,1,.48-1l6.82,3.94Z"/><path class="cls-14" d="M77.8,111.17v9.15a4.57,4.57,0,0,0,2.19-.51L120.2,96.59a1.54,1.54,0,0,0,.91-1.26V87.4a1.31,1.31,0,0,0-.48-1l-6.82,3.94Z"/><path class="cls-12" d="M120.2,88.67,80,111.88a4.89,4.89,0,0,1-4.39,0L35.4,88.67a1.56,1.56,0,0,1-.91-1.27,1.31,1.31,0,0,1,.48-1,3,3,0,0,1,.43-.31l40.21-23.2a4.85,4.85,0,0,1,4.39,0l40.2,23.2A1.34,1.34,0,0,1,120.2,88.67Z"/><path class="cls-15" d="M77.8,63.25a3.74,3.74,0,0,1,1.78.41l40.19,23.2c.36.21.49.42.49.54s-.13.33-.48.53L79.57,111.15a4,4,0,0,1-3.54,0L35.82,87.93c-.3-.17-.48-.37-.48-.53a.54.54,0,0,1,.21-.34,1.55,1.55,0,0,1,.28-.2L76,63.66a3.67,3.67,0,0,1,1.77-.41m0-.85a4.44,4.44,0,0,0-2.19.53L35.4,86.13a3,3,0,0,0-.43.31,1.31,1.31,0,0,0-.48,1,1.56,1.56,0,0,0,.91,1.27l40.21,23.21a4.89,4.89,0,0,0,4.39,0l40.2-23.21a1.34,1.34,0,0,0,0-2.54L80,62.93a4.53,4.53,0,0,0-2.2-.53Z"/><path class="cls-16" d="M76.34,68.44,45,86.56a.89.89,0,0,0,0,1.69l31.38,18.11a3.2,3.2,0,0,0,2.92,0l31.38-18.11a.9.9,0,0,0,0-1.69L79.26,68.44A3.26,3.26,0,0,0,76.34,68.44Z"/><path class="cls-17" d="M110.64,86.56,79.26,68.44a3,3,0,0,0-1.46-.35v1.49l32.58,18.81.26-.14A.9.9,0,0,0,110.64,86.56Z"/><path class="cls-18" d="M77.8,68.09a3,3,0,0,0-1.46.35L45,86.56a.89.89,0,0,0,0,1.69l.26.14L77.8,69.58Z"/><polygon class="cls-19" points="67.51 77.5 77.8 83.44 77.8 51.76 67.51 45.82 67.51 77.5"/><polygon class="cls-20" points="77.8 83.44 88.09 77.5 88.08 45.82 77.8 51.76 77.8 83.44"/><polygon class="cls-21" points="88.08 45.82 77.8 39.87 67.51 45.82 77.8 51.76 88.08 45.82"/><path class="cls-15" d="M77.8,83.44a1.17,1.17,0,0,1-.32-1v-3l0-4,0-7.92.09-7.92.16-7.92L78,59.68,78,67.6l0,7.92v6.93A1.19,1.19,0,0,1,77.8,83.44Z"/><path class="cls-15" d="M88.08,45.82c.06.33,0,.41-.16.46l-.32.18-.65.36-1.29.73c-.87.48-1.72,1-2.59,1.45-1.75,1-3.49,1.88-5.27,2.76,1.65-1.11,3.33-2.15,5-3.19.84-.52,1.7-1,2.55-1.52l1.28-.75.64-.38.32-.19C87.71,45.65,87.82,45.6,88.08,45.82Z"/><polygon class="cls-19" points="84.66 87.4 94.95 93.34 94.95 65.62 84.66 59.68 84.66 87.4"/><polygon class="cls-20" points="94.95 93.34 105.24 87.4 105.24 59.68 94.95 65.62 94.95 93.34"/><polygon class="cls-21" points="105.24 59.68 94.95 53.74 84.66 59.68 94.95 65.62 105.24 59.68"/><path class="cls-15" d="M95,93.34a.94.94,0,0,1-.32-.86v-2.6l0-3.47,0-6.93.09-6.93L95,65.62l.16,6.93.09,6.93,0,6.93v6.07A.93.93,0,0,1,95,93.34Z"/><path class="cls-15" d="M105.24,59.68c.05.34,0,.41-.17.46l-.32.18-.65.36-1.29.73c-.86.49-1.72,1-2.59,1.45-1.74,1-3.49,1.89-5.27,2.76,1.65-1.11,3.33-2.15,5-3.19.84-.52,1.7-1,2.55-1.52l1.28-.75.64-.38.32-.19C104.86,59.52,105,59.46,105.24,59.68Z"/><polygon class="cls-19" points="50.35 87.4 60.64 93.34 60.65 61.66 50.36 55.72 50.35 87.4"/><polygon class="cls-20" points="60.64 93.34 70.94 87.4 70.93 55.72 60.65 61.66 60.64 93.34"/><polygon class="cls-21" points="70.93 55.72 60.64 49.77 50.36 55.72 60.65 61.66 70.93 55.72"/><path class="cls-15" d="M60.64,93.34a1.16,1.16,0,0,1-.31-1V85.42l0-7.92.09-7.92.16-7.92.15,7.92.09,7.92,0,7.92,0,4v3A1.17,1.17,0,0,1,60.64,93.34Z"/><path class="cls-15" d="M70.93,55.72c0,.34-.05.41-.16.46l-.32.18-.65.36-1.29.73c-.87.49-1.72,1-2.6,1.45-1.74,1-3.48,1.89-5.26,2.76,1.64-1.11,3.33-2.15,5-3.19.84-.52,1.71-1,2.56-1.52l1.27-.75.64-.38.32-.19C70.55,55.55,70.67,55.5,70.93,55.72Z"/><polygon class="cls-19" points="67.51 97.3 77.8 103.25 77.8 79.48 67.51 73.54 67.51 97.3"/><polygon class="cls-20" points="77.8 103.25 88.09 97.3 88.09 73.54 77.8 79.48 77.8 103.25"/><polygon class="cls-21" points="88.09 73.54 77.8 67.6 67.51 73.54 77.8 79.48 88.09 73.54"/><path class="cls-15" d="M77.8,103.25a.76.76,0,0,1-.32-.75v-2.22l0-3,0-5.94c.06-4,.12-7.92.25-11.88.14,4,.2,7.92.25,11.88l0,5.94v5.2A.75.75,0,0,1,77.8,103.25Z"/><path class="cls-15" d="M88.09,73.54c0,.34,0,.41-.17.46l-.32.18-.65.37-1.29.73c-.86.48-1.72,1-2.59,1.44-1.74,1-3.49,1.89-5.27,2.76,1.65-1.11,3.33-2.15,5-3.18.84-.53,1.7-1,2.55-1.53L86.65,74l.64-.38.32-.19C87.71,73.38,87.82,73.33,88.09,73.54Z"/><path class="cls-22" d="M80,28.7a3.76,3.76,0,0,1-2.19.53h0v77.48a3.44,3.44,0,0,0,1.47-.35l31.12-18c.58-.32.86-.6.86-1V10.67Z"/><path class="cls-23" d="M77.76,29.23a4.93,4.93,0,0,1-.55,0h0a4.34,4.34,0,0,1-.52-.09l-.33-.1-.2-.06a4,4,0,0,1-.51-.24l-31.26-18V87.4a1,1,0,0,0,.61.84l31.38,18.12a3.18,3.18,0,0,0,1.41.34h0V29.23Z"/><path class="cls-2" d="M53.07,62.36a20,20,0,0,0-2.43-.15A4.49,4.49,0,0,1,48.53,62c-.88-.29-2.94-2-4.69-3.81a24.64,24.64,0,0,1-4.5-7c-1.19-3.15-2.18-7.89-2.76-9.76A3.07,3.07,0,0,0,34,38.89c-1.32-.28-2.46.7-2,3.47a52.5,52.5,0,0,0,3.52,11,26.25,26.25,0,0,0,4.93,7,30.3,30.3,0,0,0,5.84,4.54c.61.39,1,.84,2,1.73A8.62,8.62,0,0,0,52,68.52c1.15.19,1.6.08,1.74-.14s0-.51-.53-.66a7.32,7.32,0,0,1-2.35-1s1.11.38,1.8.55a7.33,7.33,0,0,0,1.86.2c.61,0,1.09-.79.57-1s-1-.14-2-.41a7.07,7.07,0,0,1-1.54-.59,14.09,14.09,0,0,0,2.07.24,3,3,0,0,0,1.63-.32c.26-.14.39-.66-.27-.78a10.63,10.63,0,0,1-2.51-.35c-.81-.27-1.34-.58-1.2-.66s.61.1,1.35,0,1.32-.63,1.23-1S53.81,62.36,53.07,62.36Z"/><path class="cls-3" d="M33.13,38.75c-1.38.58-2,2.08-1.49,4.8s1.67,6.79,1.67,6.79a8.53,8.53,0,0,0,5.26-2.14s-1.28-5.85-1.78-7.36S35,38,33.13,38.75Z"/></g></g></svg>