<svg xmlns="http://www.w3.org/2000/svg" xmlns:xlink="http://www.w3.org/1999/xlink" viewBox="0 0 150 150"><defs><style>.cls-1{isolation:isolate;}.cls-2{fill:#1e3779;}.cls-3{fill:#031f60;}.cls-4{fill:none;stroke:#fff;stroke-linecap:round;stroke-miterlimit:10;stroke-width:0.54px;}.cls-5{fill:#b5deff;}.cls-6{fill:#3a52aa;}.cls-13,.cls-7{fill:#fff;}.cls-7{opacity:0.4;mix-blend-mode:soft-light;}.cls-14,.cls-8{fill:#344593;}.cls-8,.cls-9{opacity:0.15;mix-blend-mode:multiply;}.cls-9{fill:#6b99d1;}.cls-10{fill:#dceeff;}.cls-11{fill:#a5cbfa;}.cls-12{fill:#c8e2ff;}.cls-15{fill:#5cccb9;}.cls-16{fill:#3d998a;}.cls-17{fill:#a1e6da;}.cls-18{fill:url(#Degradado_sin_nombre_54);}.cls-19{fill:url(#Degradado_sin_nombre_54-2);}.cls-20{fill:url(#Degradado_sin_nombre_54-3);}.cls-21{fill:url(#Degradado_sin_nombre_54-4);}.cls-22{fill:url(#Degradado_sin_nombre_54-5);}.cls-23{fill:url(#Degradado_sin_nombre_54-6);}.cls-24{fill:url(#Degradado_sin_nombre_54-7);}.cls-25{fill:url(#Degradado_sin_nombre_54-8);}.cls-26{opacity:0.3;fill:url(#Degradado_sin_nombre_5);}.cls-27{opacity:0.5;fill:url(#Degradado_sin_nombre_5-2);}</style><linearGradient id="Degradado_sin_nombre_54" x1="43.13" y1="104.23" x2="49.46" y2="104.23" gradientUnits="userSpaceOnUse"><stop offset="0" stop-color="#c8e2ff"/><stop offset="0.18" stop-color="#c2defc"/><stop offset="0.41" stop-color="#b2d1f4"/><stop offset="0.67" stop-color="#97bce7"/><stop offset="0.95" stop-color="#729fd5"/><stop offset="1" stop-color="#6b99d1"/></linearGradient><linearGradient id="Degradado_sin_nombre_54-2" x1="48.44" y1="107.31" x2="54.77" y2="107.31" xlink:href="#Degradado_sin_nombre_54"/><linearGradient id="Degradado_sin_nombre_54-3" x1="53.74" y1="110.39" x2="60.07" y2="110.39" xlink:href="#Degradado_sin_nombre_54"/><linearGradient id="Degradado_sin_nombre_54-4" x1="59.05" y1="113.46" x2="65.38" y2="113.46" xlink:href="#Degradado_sin_nombre_54"/><linearGradient id="Degradado_sin_nombre_54-5" x1="4272.59" y1="104.23" x2="4278.92" y2="104.23" gradientTransform="matrix(-1, 0, 0, 1, 4370.87, 0)" xlink:href="#Degradado_sin_nombre_54"/><linearGradient id="Degradado_sin_nombre_54-6" x1="4277.9" y1="107.31" x2="4284.23" y2="107.31" gradientTransform="matrix(-1, 0, 0, 1, 4370.87, 0)" xlink:href="#Degradado_sin_nombre_54"/><linearGradient id="Degradado_sin_nombre_54-7" x1="4283.2" y1="110.39" x2="4289.53" y2="110.39" gradientTransform="matrix(-1, 0, 0, 1, 4370.87, 0)" xlink:href="#Degradado_sin_nombre_54"/><linearGradient id="Degradado_sin_nombre_54-8" x1="4288.51" y1="113.46" x2="4294.84" y2="113.46" gradientTransform="matrix(-1, 0, 0, 1, 4370.87, 0)" xlink:href="#Degradado_sin_nombre_54"/><linearGradient id="Degradado_sin_nombre_5" x1="112.66" y1="105.59" x2="77.42" y2="43.52" gradientUnits="userSpaceOnUse"><stop offset="0" stop-color="#57d9c3"/><stop offset="0.7" stop-color="#57d9c3" stop-opacity="0.29"/><stop offset="1" stop-color="#57d9c3" stop-opacity="0"/></linearGradient><linearGradient id="Degradado_sin_nombre_5-2" x1="28.79" y1="105.85" x2="57.05" y2="55.58" xlink:href="#Degradado_sin_nombre_5"/></defs><g class="cls-1"><g id="圖層_1" data-name="圖層 1"><path class="cls-2" d="M109.89,105.16,72.14,83.39a2.92,2.92,0,0,0-1.44-.34v1.46L109.64,107l.25-.14A.88.88,0,0,0,109.89,105.16Z"/><path class="cls-3" d="M70.7,83.05a3,3,0,0,0-1.44.34L31.51,105.16a.88.88,0,0,0,0,1.67l.24.14,39-22.46Z"/><path class="cls-4" d="M71,96l11.17-6.44c.18-.1.18-.26,0-.36L71,82.76a.7.7,0,0,0-.63,0L59.22,89.21a.19.19,0,0,0,0,.36L70.38,96A.7.7,0,0,0,71,96Z"/><path class="cls-5" d="M92.7,26.62A23.62,23.62,0,1,1,76.08,12.37,23.62,23.62,0,0,1,92.7,26.62Z"/><path class="cls-6" d="M67.94,15.23c-1.09,0-2.47.4-1.47,1s1.65.67,1.66,1.46-.52,1.64-.26,2.2.68,1.23,1.09,1,1.53-1.45,2.18-1.39,2.83.15,3.14-.56.64-.67,1.17-1.46.49-1.86-.14-1.86-.73.26-1.8.19-1.56-.79-2.6-.6A16.93,16.93,0,0,1,67.94,15.23Z"/><path class="cls-6" d="M63.92,15.51c-1.23.66-3.81,1.65-5,1.31-.59-.16-1.3-.4-2-.54a23.66,23.66,0,0,0-9.14,13.8,7.51,7.51,0,0,0,1.07,1.66,4.46,4.46,0,0,0,3.08,1.46c1.19.23.82.9,1.4,1.6a5.12,5.12,0,0,0,1.5,1.48c.67.37-.24,1.08-.5,1.84s-.33,1.2.21,2.75,2.13,2.82,2.6,3.42-.32,1.3-.12,2.56.14,4.6,1.35,6.49,1.93,1.66,1.83.39-.51-2.47.23-3.42,2.22-.7,2.73-2.44.83-1.66,1.63-2.25.45-1.1,1.2-2.45,1-2.61-.14-3.16S64,39.51,63,38.2a12.2,12.2,0,0,0-3.81-3.32c-1.38-.75-3.56.16-4.43-.09s-1.42-1.91-1.36-2.55-.6-.81-1.22-.65-1-.25-1.15-1.09,1.13-1.89,2.19-2,1.63.41,1.84,1.77a2.66,2.66,0,0,0,2.08,2.29c1,.24.37-.77-.32-1.47s-.74-1.32-.22-2.85,1.81-1.41,2.76-2.82,1.14-.35,2.11-.21.82-.38,1.18-1.26,1.59-.12,2.6-.84-1.1-1.83-1-2.79,1.1-.94.56-2.39.2-1.5.59-2S65.14,14.86,63.92,15.51Zm-1.43,3.54c-.32.71-.6.58-1.12,1.36a2.91,2.91,0,0,1-1.87,1.28c-.53.07-1.4-.87-1.44-1.45s.79-.75,1.74-.88a5.18,5.18,0,0,0,2.62-1.21C63.1,17.62,62.81,18.34,62.49,19.05Z"/><path class="cls-6" d="M94.32,33.6v.07a1.68,1.68,0,0,0-.94.93c-.53,1.32-.63.74-1.89,1.63s-.78,1.6-.72,2.5S89.39,40.65,88.67,41s-1,2.36-.81,3.35-1,1.4-1.68,2.31a29.87,29.87,0,0,0-1.62,3.16,2.27,2.27,0,0,1-2.21,1c-.86-.15-1.66-1.58-2.13-2.82a7.29,7.29,0,0,1-.35-4c.27-1.35.17-1.18-.15-3.28a3.35,3.35,0,0,0-2.62-2.94c-.81-.2-2.15.27-2.88-.15s-1-1-1.5-3,.5-2.43,1.27-3.5a7.51,7.51,0,0,1,3.63-2.57,4.06,4.06,0,0,1,3.11.4c.83.42,1.22,1.35,1.81,1.41s1.1-.24,1.69-.13,1,.4,1.57.3.21-.75.13-1.12-.61-.27-1.3-.28a1,1,0,0,1-1.11-.65c-.25-.46-.65-.06-1-.25s-.27.66-.3,1S82,29,82,29s-.29.45-.41.24.16-.7.12-1.21-.77-.38-1.23-.78A1.76,1.76,0,0,0,78.72,27c-.62.21-.74.06-1,.61a2.71,2.71,0,0,1-2.06.85c-.43-.07-.13-.95.24-1.72s1.13-.51,1.6-1.29-.17-.89-.61-1-.57-.54-.12-1.53,1.06-.72,1.31-.26a1.52,1.52,0,0,0,1.38.69c.59,0,.45-.4.44-1.25A1.58,1.58,0,0,1,81,20.45a11.57,11.57,0,0,0,2.56-1.31c.49-.47,1.37-.16,1.83.33a4.9,4.9,0,0,0,2.57.87.91.91,0,0,0,.76-.25A23.46,23.46,0,0,1,94.32,33.6Z"/><path class="cls-6" d="M89.9,45.23c-.58-.1-.53.09-.86.55s-.83,1-.74,1.43.13,1.06.53.71.26-.77.82-1S90.76,45.38,89.9,45.23Z"/><path class="cls-7" d="M76.92,14.45C61.87,10.11,59.06,20.37,67,26.83s21.65,8.6,23.49,4.34S88.11,17.68,76.92,14.45Z"/><path class="cls-8" d="M64.35,47.24C52.66,37.64,53,19,63.28,13h0c-.44.14-.87.3-1.3.47A23.63,23.63,0,1,0,92.56,44.52C89.25,49.11,76,56.83,64.35,47.24Z"/><path class="cls-9" d="M119.32,118.88,72.86,145.69a4.85,4.85,0,0,1-4.33,0l-46.45-26.8a1.51,1.51,0,0,1-.9-1.25,1.25,1.25,0,0,1,.47-.94,2.07,2.07,0,0,1,.43-.31l46.46-26.8a4.79,4.79,0,0,1,4.33,0l46.45,26.79A1.32,1.32,0,0,1,119.32,118.88Z"/><path class="cls-10" d="M119.32,115.06l-46.46,26.8a4.87,4.87,0,0,1-4.32,0l-46.46-26.8a1.53,1.53,0,0,1-.9-1.25,1.51,1.51,0,0,1,.9-1.25l6.29-3.63L68.54,85.76a4.79,4.79,0,0,1,4.33,0l46.45,26.8A1.32,1.32,0,0,1,119.32,115.06Z"/><path class="cls-11" d="M70.69,133.34v9a4.4,4.4,0,0,1-2.15-.5l-46.46-26.8a1.53,1.53,0,0,1-.9-1.25V106a1.28,1.28,0,0,1,.47-.94l6.72,3.89Z"/><path class="cls-12" d="M70.69,133.34v9a4.44,4.44,0,0,0,2.16-.5l46.47-26.81a1.53,1.53,0,0,0,.9-1.25V106a1.27,1.27,0,0,0-.48-.94L113,108.93Z"/><path class="cls-10" d="M119.32,107.24,72.86,134a4.77,4.77,0,0,1-4.33,0l-46.45-26.8a1.51,1.51,0,0,1-.9-1.25,1.28,1.28,0,0,1,.47-.94,2.51,2.51,0,0,1,.43-.31L68.54,78a4.79,4.79,0,0,1,4.33,0l46.45,26.79A1.32,1.32,0,0,1,119.32,107.24Z"/><path class="cls-13" d="M70.7,78a4,4,0,0,1,1.9.44l46.45,26.79c.4.24.63.52.63.79s-.23.56-.63.79l-46.46,26.8a3.79,3.79,0,0,1-1.9.44,3.84,3.84,0,0,1-1.9-.44l-46.45-26.8c-.4-.23-.63-.51-.63-.79a.77.77,0,0,1,.31-.54,1.28,1.28,0,0,1,.32-.24l46.47-26.8A3.94,3.94,0,0,1,70.7,78m0-.54a4.34,4.34,0,0,0-2.16.52L22.08,104.74a2.51,2.51,0,0,0-.43.31,1.28,1.28,0,0,0-.47.94,1.51,1.51,0,0,0,.9,1.25L68.53,134a4.77,4.77,0,0,0,4.33,0l46.46-26.8a1.32,1.32,0,0,0,0-2.5L72.87,78a4.41,4.41,0,0,0-2.17-.52Z"/><path class="cls-14" d="M69.26,83.39,31.51,105.16a.88.88,0,0,0,0,1.67L69.25,128.6a3.18,3.18,0,0,0,2.88,0l37.76-21.77a.88.88,0,0,0,0-1.67L72.14,83.39A3.18,3.18,0,0,0,69.26,83.39Z"/><path class="cls-15" d="M70.7,91.79v25.85a3.79,3.79,0,0,0,1.84-.44l23.91-13.81a4,4,0,0,0,1.83-3.17V91.79Z"/><path class="cls-16" d="M43.12,91.79v8.43A4,4,0,0,0,45,103.39L68.87,117.2a3.78,3.78,0,0,0,1.83.44V91.79Z"/><path class="cls-17" d="M68.86,107.28l-25-14.43a1.12,1.12,0,0,1,0-2.12l25-14.42a4,4,0,0,1,3.67,0l25,14.42a1.12,1.12,0,0,1,0,2.12l-25,14.43A4,4,0,0,1,68.86,107.28Z"/><path class="cls-4" d="M49,91.09,69.48,79.26a2.71,2.71,0,0,1,2.45,0L92.41,91.09a.75.75,0,0,1,0,1.41L71.92,104.33a2.74,2.74,0,0,1-2.45,0L49,92.5A.74.74,0,0,1,49,91.09Z"/><path class="cls-4" d="M71.31,82.22l16.11,9.22a.37.37,0,0,1,0,.7l-16.11,9.23a1.34,1.34,0,0,1-1.23,0l-16-9.22a.37.37,0,0,1,0-.71l16-9.22A1.4,1.4,0,0,1,71.31,82.22Z"/><path class="cls-18" d="M49.46,100.88a1.91,1.91,0,0,0-.86-1.5.59.59,0,0,0-.62,0h0l-3.54,2a2.89,2.89,0,0,0-1.31,2.26v4.86h0a.6.6,0,0,0,.36.5,1.89,1.89,0,0,0,1.73,0,.6.6,0,0,0,.36-.5v-4.78a.32.32,0,0,1,.15-.26l3.48-2h0A.63.63,0,0,0,49.46,100.88Z"/><path class="cls-19" d="M54.77,104a1.92,1.92,0,0,0-.87-1.5.62.62,0,0,0-.62-.06h0l-3.54,2a2.9,2.9,0,0,0-1.3,2.26v4.86h0a.61.61,0,0,0,.36.5,1.89,1.89,0,0,0,1.73,0,.61.61,0,0,0,.36-.5v-4.78a.3.3,0,0,1,.15-.26l3.47-2h0A.6.6,0,0,0,54.77,104Z"/><path class="cls-20" d="M60.07,107a1.9,1.9,0,0,0-.86-1.5.62.62,0,0,0-.62-.06h0l-3.54,2a2.92,2.92,0,0,0-1.31,2.27v4.86h0a.61.61,0,0,0,.36.5,2,2,0,0,0,1.73,0,.61.61,0,0,0,.36-.5v-4.78a.3.3,0,0,1,.15-.26l3.48-2h0A.6.6,0,0,0,60.07,107Z"/><path class="cls-21" d="M65.38,110.12a1.93,1.93,0,0,0-.87-1.51.59.59,0,0,0-.62,0h0l-3.54,2a2.92,2.92,0,0,0-1.3,2.26v4.86h0a.59.59,0,0,0,.36.5,1.89,1.89,0,0,0,1.73,0,.59.59,0,0,0,.36-.5v-4.78a.32.32,0,0,1,.15-.26l3.47-2h0A.63.63,0,0,0,65.38,110.12Z"/><path class="cls-22" d="M91.94,100.88a1.92,1.92,0,0,1,.87-1.5.59.59,0,0,1,.62,0h0l3.54,2a2.89,2.89,0,0,1,1.31,2.26v4.86h0a.6.6,0,0,1-.36.5,1.91,1.91,0,0,1-1.74,0,.57.57,0,0,1-.35-.5v-4.78a.31.31,0,0,0-.16-.26l-3.47-2h0A.64.64,0,0,1,91.94,100.88Z"/><path class="cls-23" d="M86.64,104a1.92,1.92,0,0,1,.87-1.5.62.62,0,0,1,.62-.06h0l3.53,2A2.89,2.89,0,0,1,93,106.71v4.86h0a.61.61,0,0,1-.36.5,1.89,1.89,0,0,1-1.73,0,.61.61,0,0,1-.36-.5v-4.78a.3.3,0,0,0-.15-.26l-3.47-2h0A.6.6,0,0,1,86.64,104Z"/><path class="cls-24" d="M81.33,107a1.91,1.91,0,0,1,.87-1.5.62.62,0,0,1,.62-.06h0l3.54,2a2.91,2.91,0,0,1,1.3,2.27v4.86h0a.62.62,0,0,1-.35.5,2,2,0,0,1-1.74,0,.61.61,0,0,1-.36-.5v-4.78a.28.28,0,0,0-.15-.26l-3.47-2h0A.61.61,0,0,1,81.33,107Z"/><path class="cls-25" d="M76,110.12a1.94,1.94,0,0,1,.86-1.51.59.59,0,0,1,.62,0h0l3.54,2a2.9,2.9,0,0,1,1.31,2.26v4.86h0a.59.59,0,0,1-.36.5,1.89,1.89,0,0,1-1.73,0,.59.59,0,0,1-.36-.5v-4.78a.32.32,0,0,0-.15-.26l-3.48-2h0A.63.63,0,0,1,76,110.12Z"/><path class="cls-26" d="M73.3,25.84a4.47,4.47,0,0,1-2.61.63h0V129a3.15,3.15,0,0,0,1.74-.53l37-21.36c.69-.38,1-.72,1-1.18V4.4Z"/><path class="cls-27" d="M70.65,26.46a4.85,4.85,0,0,1-.66,0h0a4.22,4.22,0,0,1-.62-.1c-.13,0-.26-.08-.39-.12l-.24-.08a4.78,4.78,0,0,1-.61-.28L30.93,4.4V105.88a1.24,1.24,0,0,0,.72,1L69,128.42a2.77,2.77,0,0,0,1.68.52h0V26.47Z"/></g></g></svg>