<svg xmlns="http://www.w3.org/2000/svg" viewBox="0 0 150 150"><defs><style>.cls-1{isolation:isolate;}.cls-2{fill:#6b99d1;opacity:0.15;mix-blend-mode:multiply;}.cls-3{fill:#dceeff;}.cls-4{fill:#fff;}.cls-5{fill:#c8e2ff;}.cls-6{fill:#a5cbfa;}.cls-7{fill:#ffa8a7;}.cls-8{fill:#f5fbfb;}.cls-9{fill:#6a89ce;}.cls-10{fill:#2d2979;}.cls-11{fill:#c4d9ff;}.cls-12{fill:#aacaf9;}.cls-13{fill:#f28f8f;}.cls-14{fill:#7fa8e6;}.cls-15{fill:#3a2c6d;}.cls-16{fill:#eff6fe;}.cls-17{fill:#aad1fc;}.cls-18{fill:#aeb5b7;}.cls-19{fill:#6f89d1;}.cls-20{fill:#543354;}.cls-21{fill:#dae6e6;}</style></defs><g class="cls-1"><g id="圖層_1" data-name="圖層 1"><path class="cls-2" d="M135.08,86.11l-20.81-12a5.15,5.15,0,0,0-4.65,0l-20.81,12c-1.28.75-1.28,2,0,2.69l20.81,12a5.09,5.09,0,0,0,4.65,0l20.81-12C136.37,88.06,136.37,86.86,135.08,86.11Z"/><path class="cls-3" d="M135.08,61.39l-20.81-12a5.15,5.15,0,0,0-4.65,0l-20.81,12c-1.28.74-1.28,1.94,0,2.68l20.81,12a5.15,5.15,0,0,0,4.65,0l20.81-12C136.37,63.33,136.37,62.13,135.08,61.39Z"/><path class="cls-4" d="M112,49.73a3.94,3.94,0,0,1,1.87.43l20.81,12c.37.21.5.43.5.55s-.13.33-.5.55l-20.81,12a4.19,4.19,0,0,1-3.74,0l-20.81-12c-.38-.22-.51-.43-.51-.55s.13-.34.51-.55l20.81-12a3.94,3.94,0,0,1,1.87-.43m0-.91a4.78,4.78,0,0,0-2.33.55l-20.81,12c-1.28.74-1.28,1.94,0,2.68l20.81,12a5.19,5.19,0,0,0,4.65,0l20.81-12c1.29-.74,1.29-1.94,0-2.68l-20.81-12a4.74,4.74,0,0,0-2.32-.55Z"/><path class="cls-5" d="M136.05,83.73a1.68,1.68,0,0,1-1,1.34l-20.81,12a4.73,4.73,0,0,1-2.32.55v-21a4.66,4.66,0,0,0,2.32-.55l20.81-12a1.63,1.63,0,0,0,1-1.34Z"/><path class="cls-6" d="M87.85,83.73a1.64,1.64,0,0,0,1,1.34l20.81,12a4.77,4.77,0,0,0,2.33.55v-21a4.67,4.67,0,0,1-2.33-.55l-20.81-12a1.61,1.61,0,0,1-1-1.34Z"/><path class="cls-7" d="M96.76,50.67A32.53,32.53,0,0,1,92.12,57c-.5.58-.74,1.14-1.57,2.36a9.11,9.11,0,0,1-3.21,2.95c-1.11.53-1.6.54-1.81.36s-.14-.52.35-.82A7.66,7.66,0,0,0,88,60.19s-1,.71-1.68,1.07a7.35,7.35,0,0,1-1.84.75c-.62.15-1.33-.49-.85-.8s.93-.43,1.89-1a7.77,7.77,0,0,0,1.4-1,14,14,0,0,1-2,.84,3.08,3.08,0,0,1-1.75.15c-.3-.07-.59-.56,0-.87a11,11,0,0,0,2.46-1.09c.74-.51,1.2-1,1-1s-.59.29-1.37.38-1.53-.25-1.55-.68.15-.22.9-.44a20,20,0,0,1,2.41-.9,8,8,0,0,0,2.38-.77c.8-.41,2.48-3,3.75-5.37a78.79,78.79,0,0,0,2.7-8.59c.8-2.87,1.89-8.74,2.47-10.72a3.25,3.25,0,0,1,2.71-2.72c1.39-.33,2.12,1.42,1.87,3.1C102.47,33.42,100.17,44.88,96.76,50.67Z"/><path class="cls-8" d="M91.07,52.7l-1.21,1.56a2.94,2.94,0,0,0,1.4,1.41c1.18.68,1.62.59,1.62.59l1.18-1.52Z"/><path class="cls-9" d="M101.17,27.07c-1.41-.23-2.58,1.09-3.18,3.14s-1.84,8-2.19,9.64c-2,8.8-5.33,13.5-5.33,13.5a5.29,5.29,0,0,0,3.23,2,45.41,45.41,0,0,0,6-9.89,54.58,54.58,0,0,0,3-11.63C103.43,29.94,103.72,27.47,101.17,27.07Z"/><path class="cls-10" d="M87,88.6A11.06,11.06,0,0,0,87.29,90a6.19,6.19,0,0,1,.21,2.25c-.12.53-1.62,1.28-2.46,1.39a5.21,5.21,0,0,0-2.59,1.6,4.76,4.76,0,0,1-3.64,1.36c-1.17-.13-2.48-.4-2.76-.87s.11-1,2.55-2.74,4.07-2.79,4.84-4.4Z"/><path class="cls-10" d="M95.86,105.1a3.84,3.84,0,0,1-2.72,1.45,12,12,0,0,1-1.69.07c-.6,0-1.51-.36-1.46-1.1a1.23,1.23,0,0,1,.32-.63c1-1.23,2-2.42,2.85-3.72a11.65,11.65,0,0,0,2.32-5l3.66,0c0,.31.1.74.16,1.15s.16.81.25,1.21a3.28,3.28,0,0,1-.1,2.37A5.09,5.09,0,0,1,98,102.18,13.72,13.72,0,0,0,95.86,105.1Z"/><path class="cls-11" d="M115,57.21c1.33,8.28-2.35,11.37-7.14,13.14-3.43,1.26-8.35,3.21-8.35,3.21s.07,1.82.1,5.9c0,3.59-.44,16.71-.44,16.71a4,4,0,0,1-3.66,0s-1.93-10-2.34-14.58c-.55-6.15-1.5-10.17-1.18-11.49s7-4.47,9.13-6.24L87,68.53a25.66,25.66,0,0,1,.41,4.63C87.29,78,87,88.6,87,88.6s-1.93,1.39-3.58,0c0,0-3.54-20.91-3.11-23.67s12.81-8,15-9.84C96.57,54.06,98,52.94,98,52.94Z"/><path class="cls-12" d="M101.09,63.82a8.49,8.49,0,0,1-3.17-3.94,6.05,6.05,0,0,0,.76,3.27c.1.59-11.67,5.38-11.67,5.38Z"/><path class="cls-7" d="M110.14,25.54s-.2,3.94-.12,4.29,1.81,1.51,2.32,1.92-2.73,3.6-4.3,4.32-6.55-1.17-6.64-3.62.85-4.49,1.62-4.6S110.14,25.54,110.14,25.54Z"/><path class="cls-13" d="M103.66,30.05c-.52-.47.07-1.5.43-2.22,1.63-.49,6-2.29,6-2.29s0,.91-.07,1.54h0A2.62,2.62,0,0,1,109,29a7.11,7.11,0,0,1-1.76,1C106.6,30.3,104.85,31.13,103.66,30.05Z"/><path class="cls-8" d="M110.59,30.42s-1.7,2.79-7.14,3.3a6,6,0,0,1,.65-5.7s-1.61-1.3-2.7-1.05a5.69,5.69,0,0,0-2.47,3.15,25.67,25.67,0,0,0-1.41,9.14c.07,4.18-.13,14.58-.13,14.58s-.69,3.06,4.38,5.38a13.85,13.85,0,0,0,8.77,1.31c2-.47,4.19-1.24,4.63-2.19-.41-3.35-1.44-9.21-1.16-12.72.3-3.71,1.09-6.41,1.29-9.39s-.39-2.92-1.89-4A23.49,23.49,0,0,0,110.59,30.42Z"/><path class="cls-14" d="M104.1,28s-4.77,6.21-1.6,13.34c0,0-.72,15.22-.85,18.84a7.13,7.13,0,0,1-3-2.06s-1.78-1.21-1.75-4.35c0,0,.29-5.55.45-10.44s-.15-9,1-12.47,3.26-4.09,3.26-4.09Z"/><path class="cls-9" d="M103.65,28.74V27a9,9,0,0,0-2.25,2.79,34.37,34.37,0,0,0-1.67,5.83c-.16,1,1.41,3.21,1.41,3.21s-1.08,1.07-.89,1.78,2,4.63,2,5.85c0-.22.27-5.14.27-5.14a25.62,25.62,0,0,1-.66-6.6C102.23,30.45,103.65,28.74,103.65,28.74Z"/><path class="cls-14" d="M110,29.83c0,1.27-1.89,4.65-7.52,11.53-.4,6.93-.85,18.84-.85,18.84s9.77,5.2,14.32.49c0,0-.3-2.21-1.08-6s-.54-9.28-.06-13.19,1.62-7.34.06-8.66A34,34,0,0,0,110,29.83Z"/><path class="cls-7" d="M101.21,19.65h0c.47-3.06,2.67-5.38,5.83-5.2a6.07,6.07,0,0,1,3.1,11.09,6.07,6.07,0,0,1-.49,1.33c-1.12,1.31-4.5,2.12-5.47,2a2.89,2.89,0,0,1-2.51-2.06C100.62,24.38,101,21.17,101.21,19.65Z"/><path class="cls-15" d="M101.67,17.18A6,6,0,0,1,108,14.57a6.08,6.08,0,0,1,2.16,11c.07-.21,1.66-2.59,0-3.12a2,2,0,0,0-.34,1.25.77.77,0,0,1-.63-1c0-.27.09-.51.14-.73a2.83,2.83,0,0,0-.47-2.11,2.47,2.47,0,0,1-.43-2,8.13,8.13,0,0,1-4.62.36A4.07,4.07,0,0,1,101.67,17.18Z"/><path class="cls-15" d="M108.43,17.81A6.78,6.78,0,0,1,104.86,19c-2.54.27-4.8-1.19-5.34-2.23-.8-1.57.81-.44,2.27-1.22s6.92-3.39,9.23.63c0,0,1.32.21,1.66,1a9,9,0,0,1-.29,5.32Z"/><path class="cls-7" d="M110.14,25.51s.14.33.73.36c1.11.05,2.41-2,1.52-3.4a1.45,1.45,0,0,0-2.23,0Z"/><path class="cls-7" d="M109.27,65.28a19.13,19.13,0,0,1,2.13-1.47,4.64,4.64,0,0,0,1.81-1.33c.64-.74,1.56-3.43,2.17-6a26,26,0,0,0,.2-8.86c-.65-3.51-2.35-8.36-2.85-10.37a3.26,3.26,0,0,1,1-3.72c1-1,2.61-.72,3.67,2.07a54.87,54.87,0,0,1,2.87,12,27.66,27.66,0,0,1-.62,9.06,32.16,32.16,0,0,1-2.8,7.32c-.34.7-.41,1.29-.9,2.69a9.14,9.14,0,0,1-2.31,3.7c-.94.8-1.4.94-1.65.82s-.28-.47.11-.88a7.48,7.48,0,0,0,1.61-2.16s-.8,1-1.33,1.49a7.58,7.58,0,0,1-1.58,1.2c-.56.31-1.41-.12-1-.54s.79-.66,1.56-1.46a7.44,7.44,0,0,0,1.07-1.38,13.83,13.83,0,0,1-1.75,1.35,3,3,0,0,1-1.65.6c-.31,0-.72-.38-.18-.85a11.3,11.3,0,0,0,2.09-1.7c.58-.69.89-1.26.71-1.25s-.49.43-1.22.73-1.55.16-1.68-.25S108.6,65.69,109.27,65.28Z"/><path class="cls-8" d="M114.29,60.05l-.71,1.62s.17.78,1.64,1.44,2,.42,2,.42L118,61.7Z"/><path class="cls-9" d="M102.5,41.36s3.81-5.42,5.2-7.24A18.66,18.66,0,0,0,110,29.37l0-1a.87.87,0,0,1,.84.48,27.13,27.13,0,0,0,1.53,2.28s-1.21,4.77-2.53,6.25a7.19,7.19,0,0,1-3.25,2s.56,2-.08,2.49a19.31,19.31,0,0,0-4.3,4.65Z"/><path class="cls-9" d="M114,33c-1,.55-2,1.79-1.32,4.71s2,6.57,2.54,9.21a21.54,21.54,0,0,1,.12,8.46c-.55,2.53-1.42,5.24-1.42,5.24s2,1.87,3.91,1.79a30.47,30.47,0,0,0,2.56-8.9,39.29,39.29,0,0,0-2.53-17.26C116,31.59,114,33,114,33Z"/><path class="cls-16" d="M81.22,60.66l9.46-5.46a.52.52,0,0,1,.54,0l16.59,9.58L98.08,70.4Z"/><polygon class="cls-17" points="98.17 69.59 103.27 66.65 88.35 58.04 83.22 60.97 98.17 69.59"/><polygon class="cls-18" points="100.68 61.41 100.58 61.46 98.08 62.91 93.64 60.34 93.54 60.28 96.14 58.79 100.68 61.41"/><polygon class="cls-17" points="100.58 61.46 98.08 62.91 93.64 60.34 96.14 58.89 100.58 61.46"/><path class="cls-5" d="M107.81,64.78V65a.9.9,0,0,1-.45.79l-8.82,5.09a.92.92,0,0,1-.91,0l-16-9.21a.9.9,0,0,1-.45-.79v-.22L98.08,70.4Z"/><path class="cls-17" d="M98.08,70.4V71a.92.92,0,0,1-.45-.12l-16-9.21a.9.9,0,0,1-.45-.79v-.22Z"/><path class="cls-16" d="M97.83,70.53a1,1,0,0,1-.93-.07L81,61.29a1.06,1.06,0,0,1-.52-.76L78.75,50.16a1.11,1.11,0,0,1,0-.17,1.1,1.1,0,0,1,.32-.77l16.51,9.53a.81.81,0,0,1,.39.56Z"/><path class="cls-5" d="M98.08,70.4l-.11.06a.61.61,0,0,1-.14.07L96,59.31a.81.81,0,0,0-.39-.56L79.05,49.22a1.18,1.18,0,0,1,.22-.17L95.81,58.6a.79.79,0,0,1,.39.56Z"/><path class="cls-17" d="M88.88,61a3.49,3.49,0,0,0-1.6-2.06c-.77-.45-1.3-.24-1.18.45a3.49,3.49,0,0,0,1.6,2.06C88.47,61.86,89,61.65,88.88,61Z"/><path class="cls-2" d="M100.81,97.26l-8.35-4.82C86.8,89.17,79,88.39,75,90.69s-2.62,6.81,3,10.08l8.34,4.82c5.67,3.27,13.48,4,17.47,1.75S106.47,100.53,100.81,97.26Z"/><path class="cls-10" d="M61,116.94a3.45,3.45,0,0,0,3.1,1c.73-.17,1.22-.3,1.77-.47a11.84,11.84,0,0,1,2.6-.29c.91-.06,1.63,0,2.54-.12a10.08,10.08,0,0,0,2.3-.65c1-.42,2.62-2.39,1.41-3.14a.65.65,0,0,0-.3-.09c-3.25-.49-7.45-.3-8.48-1.55l-4.41-.22c.13,0-.72,4-.79,4.31a1.66,1.66,0,0,0-.06.54A1.41,1.41,0,0,0,61,116.94Z"/><path class="cls-19" d="M63.73,91.53,61.89,90a18.61,18.61,0,0,0-1.14,4.13c0,1.09.78,17.31.78,17.31s2.47,1.87,4.39.2c0,0,1.32-19.18,1.62-22.18l-3.81,2.09"/><path class="cls-10" d="M70.74,121.9a3.45,3.45,0,0,0,3.18.7c.71-.23,1.18-.41,1.72-.63a12.13,12.13,0,0,1,2.56-.53c.9-.14,1.63-.13,2.52-.35a9.44,9.44,0,0,0,2.23-.86c.93-.5,2.4-2.62,1.12-3.25a.64.64,0,0,0-.31-.06c-3.28-.19-7.44.38-8.58-.77l-4.42.19a42.74,42.74,0,0,1-.39,4.36,2,2,0,0,0,0,.55A1.44,1.44,0,0,0,70.74,121.9Z"/><path class="cls-14" d="M71.12,94.9A18.61,18.61,0,0,0,70,99c0,1.09.78,17.31.78,17.31s2.49,1.48,4.42-.19c0,0,1.29-18.79,1.59-21.79"/><path class="cls-2" d="M25.24,125.94l20.81-12a5.15,5.15,0,0,1,4.65,0l20.81,12c1.28.75,1.28,2,0,2.69l-20.81,12a5.09,5.09,0,0,1-4.65,0l-20.81-12C24,127.89,24,126.68,25.24,125.94Z"/><path class="cls-3" d="M25.24,100.63l20.81-12a5.09,5.09,0,0,1,4.65,0l20.81,12c1.28.74,1.28,1.94,0,2.69l-20.81,12a5.15,5.15,0,0,1-4.65,0l-20.81-12C24,102.57,24,101.37,25.24,100.63Z"/><path class="cls-4" d="M48.37,89a3.83,3.83,0,0,1,1.87.44l20.81,12c.37.22.51.43.51.55s-.14.34-.51.55l-20.81,12a4.28,4.28,0,0,1-3.74,0l-20.81-12c-.37-.21-.5-.43-.5-.55s.13-.33.5-.55l20.81-12A3.83,3.83,0,0,1,48.37,89m0-.91a4.63,4.63,0,0,0-2.32.56l-20.81,12c-1.29.74-1.29,1.94,0,2.69l20.81,12a5.11,5.11,0,0,0,4.65,0l20.81-12c1.28-.75,1.28-1.95,0-2.69l-20.81-12a4.67,4.67,0,0,0-2.33-.56Z"/><path class="cls-6" d="M24.27,123a1.67,1.67,0,0,0,1,1.35l20.81,12a4.73,4.73,0,0,0,2.32.56v-21a4.66,4.66,0,0,1-2.32-.55l-20.81-12a1.64,1.64,0,0,1-1-1.35Z"/><path class="cls-5" d="M72.47,123a1.66,1.66,0,0,1-1,1.35l-20.81,12a4.77,4.77,0,0,1-2.33.56v-21a4.67,4.67,0,0,0,2.33-.55l20.81-12a1.65,1.65,0,0,0,1-1.35Z"/><path class="cls-19" d="M61.75,85.27C59.59,86.05,45,91.53,45,91.53s.58,10.35,3.69,8.68l15-8.68,3.81-2.09C67.87,86.07,64.12,84.4,61.75,85.27Z"/><path class="cls-14" d="M76.77,94.36c.33-3.38-3.41-5-5.79-4.18-2.16.79-16.75,6.26-16.75,6.26L39.75,95.22c-.35,5.42,3.16,7.74,7.2,9.52s7.86,2.06,11,.39l15-8.69L71.12,94.9"/><path class="cls-7" d="M55.51,59.87c-.32-3.08-2.4-5.51-5.57-5.5a6.09,6.09,0,0,0-6.06,6.12,6,6,0,0,0,2.41,4.8s.08.4.19.77h0A16,16,0,0,1,46,68c-.19.35-1.1,0-2.33-.18-.84-.12-1,1.45-.51,2.92.48,1.31,2.54,2.7,4.47,3s5-.86,3.93-1.71-1.12-1.16-1-1.74.45-1.24.58-1.58a6.18,6.18,0,0,0,1.56.2c1.25-.12,1.63-.75,2-2.18A17.45,17.45,0,0,0,55.51,59.87Z"/><path class="cls-13" d="M51.65,67.71c-.81-.57-.63-1.82-.77-2.8l-1.36,1.15-1.86.16-1.28-.53c0,.12.06.24.1.37h0A16,16,0,0,1,46,68c-.19.35-1.1,0-2.33-.18-.83-.12-1,1.39-.53,2.83l1,1.37a6.72,6.72,0,0,0,.81.64l6.53-.68c-1-.77-1-1.09-.83-1.65s.45-1.24.58-1.58a6.18,6.18,0,0,0,1.56.2,2.19,2.19,0,0,0,.83-.22A10.62,10.62,0,0,1,51.65,67.71Z"/><path class="cls-20" d="M56.09,54c-1.93.61-9.08-2.14-10.37,2.11a3.35,3.35,0,0,0-1.84,2.59,7.13,7.13,0,0,0,.74,5.69,31.86,31.86,0,0,1,1.56,3,4.88,4.88,0,0,0,2,.92c1.17.21,2-1,2.32-1.63a3.81,3.81,0,0,0,.36-1.79c-.2.23-1,.13-1.31-.75a2.9,2.9,0,0,1,.18-2.58,1.14,1.14,0,0,1,2.07.1,7.17,7.17,0,0,1,.08,2.1,1.24,1.24,0,0,0,1-1,15.63,15.63,0,0,0,.26-2.1,2,2,0,0,1,.53-1.44,1.43,1.43,0,0,0,.34-1.3,3.38,3.38,0,0,0,2.6-1.72C57.56,54.62,58,53.39,56.09,54Z"/><path class="cls-8" d="M45.35,68.05c-.14.45.24,1.18,1.83,2a6.54,6.54,0,0,0,3.44,1s2.55,1.38,3.66,2.16c1.4,1,2,3.8,2.21,8.57.16,4.22.21,10.92.15,14.47a4.3,4.3,0,0,1-2.44,3.81,7,7,0,0,1-3.61.74c-3.34-.28-9.47-3.32-10.84-5.61,0-4.84.45-7.78.28-10.67-.3-5.1-1.42-9.14,0-13.24,1.23-3.57,2.64-3.74,4-3.54A8,8,0,0,1,45.35,68.05Z"/><path class="cls-21" d="M46.16,67.48c-.33-.14-.87.25-1.15.48,0,0-.46,1.3,1.45,2.51,2.77,1.77,4.38,1.22,4.79,1,0,0,0-1.55-.47-1.7,0,0-.75.29-2.66-.47S46.16,67.48,46.16,67.48Z"/><path class="cls-7" d="M76,85.78a21.4,21.4,0,0,0-2.25,1.28,4.73,4.73,0,0,1-2,1.06A25.27,25.27,0,0,1,65.39,88c-3.13-.3-5-1.53-6.06-2.93C57,82,57,78.24,56,75.45c-.68-2-2.34-2.3-3.2-1.44-.67.67-1.36,3.28-.43,7,.72,2.9,2.62,6.79,5.19,8.5a15.21,15.21,0,0,0,5.78,2.13,54.71,54.71,0,0,0,8.05.33c.77,0,1.34.19,2.81.36a9.11,9.11,0,0,0,4.33-.47C79.7,91.38,80,91,80,90.75s-.3-.45-.84-.28a7.75,7.75,0,0,1-2.64.51s1.2-.3,1.91-.55a7.64,7.64,0,0,0,1.77-.9c.53-.37.51-1.33,0-1.17s-.93.42-2,.77a7.62,7.62,0,0,1-1.72.37,13.44,13.44,0,0,0,2-1,3.17,3.17,0,0,0,1.26-1.22c.15-.28,0-.82-.69-.54a11,11,0,0,1-2.43,1.14c-.88.23-1.53.27-1.45.1s.61-.25,1.2-.78.81-1.33.5-1.62S76.61,85.36,76,85.78Z"/><path class="cls-21" d="M53.79,73.42c-.93.08-2,.74-2,4.91S54.62,86.9,55.63,88a11.31,11.31,0,0,0,5.8,3.44c3.16.82,8.78.56,8.78.56a6.61,6.61,0,0,0,0-3.73,33.94,33.94,0,0,1-6.9-.82,7.21,7.21,0,0,1-4.55-3.35c-1.09-1.58-2-6.57-2.27-7.72S55.54,73.29,53.79,73.42Z"/></g></g></svg>