<svg xmlns="http://www.w3.org/2000/svg" viewBox="0 0 150 150"><defs><style>.cls-1{isolation:isolate;}.cls-2{fill:#6b99d1;opacity:0.15;mix-blend-mode:multiply;}.cls-3{fill:#a5cbfa;}.cls-4{fill:#c8e2ff;}.cls-5{fill:#dceeff;}.cls-6{fill:#1e3779;}.cls-7{fill:#344593;}.cls-13,.cls-8{fill:none;stroke-miterlimit:10;stroke-width:0.79px;}.cls-8{stroke:#5cccb9;}.cls-9{fill:#031f60;}.cls-10{fill:#3d998a;}.cls-11{fill:#5cccb9;}.cls-12{fill:#a1e6da;}.cls-13{stroke:#344593;stroke-linecap:round;}.cls-14{fill:#2d2979;}.cls-15{fill:#6f89d1;}.cls-16{fill:#7fa8e6;}.cls-17{fill:#fff;}.cls-18{fill:#ffa8a7;}.cls-19{fill:#f28f8f;}.cls-20{fill:#3a2c6d;}.cls-21{fill:#f5fbfb;}.cls-22{fill:#dae6e6;}</style></defs><g class="cls-1"><g id="圖層_1" data-name="圖層 1"><path class="cls-2" d="M27.41,116.88,54,132.24a3.25,3.25,0,0,0,2.93,0l52.14-29.89c.81-.46.82-1.22,0-1.68L82.29,85.19a3.26,3.26,0,0,0-2.92,0l-52,30A.9.9,0,0,0,27.41,116.88Z"/><path class="cls-3" d="M30.88,69.53V111a4.51,4.51,0,0,0,2,3.54l23.72,13.69h0a4.23,4.23,0,0,0,2,.48V96.16Z"/><path class="cls-4" d="M58.68,128.67a4.35,4.35,0,0,0,2-.46l0,0h0l39.51-22.81a4.5,4.5,0,0,0,2-3.54V74.68L58.68,96.16Z"/><path class="cls-5" d="M31.88,67.3,72.52,43.83a3.08,3.08,0,0,1,3.64.56l25.57,27.89a1.81,1.81,0,0,1-.45,2.92L60.63,98.67A3.07,3.07,0,0,1,57,98.11L31.43,70.22A1.81,1.81,0,0,1,31.88,67.3Z"/><path class="cls-6" d="M95.85,73.84h0l-35,20.22,0,0a2.07,2.07,0,0,1-2.37-.38h0L37.2,70.59l-.1-.1h0a1.18,1.18,0,0,1,.37-1.82h0l35-20.22,0,0a2,2,0,0,1,1.26-.19,2,2,0,0,1,1.11.57l0,0L96.14,71.9s0,0,0,0A1.2,1.2,0,0,1,95.85,73.84Z"/><path class="cls-7" d="M37.1,70.49,58.34,93.65a2,2,0,0,0,2.53.39L96.06,73.72,73.71,49.35Z"/><path class="cls-8" d="M46.71,74.16c2.53-1.46,4.1,1.27,6.63-.19s.95-4.19,3.48-5.65,4.1,1.27,6.63-.19,1-4.19,3.49-5.65,4.1,1.26,6.63-.2,1-4.18,3.49-5.65"/><path class="cls-8" d="M50.7,79.23c2.17-1.25,3.74,1.48,5.91.22s.59-4,2.76-5.22,3.74,1.47,5.91.22.59-4,2.76-5.23,3.74,1.48,5.91.22.6-4,2.77-5.23,3.74,1.47,5.91.22"/><path class="cls-8" d="M54.7,84.31c3-1.76,4.61,1,7.64-.78s1.46-4.48,4.49-6.23,4.61,1,7.65-.78S75.94,72,79,70.29s4.61,1,7.65-.79"/><path class="cls-9" d="M73.83,48.21l-.12,1.14L37.11,70.48a1.18,1.18,0,0,1,.37-1.82h0l35-20.22,0,0A2,2,0,0,1,73.83,48.21Z"/><polygon class="cls-10" points="55.11 25.94 61.33 29.54 61.34 36.73 55.11 33.13 55.11 25.94"/><polygon class="cls-11" points="61.33 29.54 67.56 25.94 67.56 33.13 61.34 36.73 61.33 29.54"/><polygon class="cls-12" points="67.56 25.94 61.33 22.35 55.11 25.94 61.33 29.54 67.56 25.94"/><line class="cls-13" x1="61.33" y1="25.94" x2="46.38" y2="13.72"/><line class="cls-13" x1="58.22" y1="31.33" x2="40.79" y2="49.67"/><polygon class="cls-10" points="28.13 47.27 36.42 52.06 36.42 61.64 28.13 56.85 28.13 47.27"/><path class="cls-11" d="M36.43,52.06l8.29-4.79v9.58s-8.29,5-8.29,4.79Z"/><polygon class="cls-12" points="44.72 47.27 36.42 42.48 28.13 47.27 36.42 52.06 44.72 47.27"/><polygon class="cls-10" points="38.92 12.28 43.9 15.15 43.9 20.91 38.92 18.03 38.92 12.28"/><path class="cls-11" d="M43.9,15.15l5-2.87V18s-5,3-5,2.88Z"/><polygon class="cls-12" points="48.88 12.28 43.9 9.4 38.92 12.28 43.9 15.15 48.88 12.28"/><line class="cls-13" x1="36.61" y1="47.04" x2="41.4" y2="16.59"/><path class="cls-14" d="M90.14,123.58a3.25,3.25,0,0,1-2.92.94c-.7-.16-1.15-.28-1.68-.45a11.62,11.62,0,0,0-2.44-.27c-.86,0-1.55,0-2.4-.11a9.12,9.12,0,0,1-2.17-.62c-.92-.39-2.47-2.25-1.33-3a.69.69,0,0,1,.28-.08c3.07-.46,7-.28,8-1.46l4.16-.21a39.74,39.74,0,0,0,.74,4.07,1.49,1.49,0,0,1,.06.51A1.31,1.31,0,0,1,90.14,123.58Z"/><path class="cls-15" d="M87.55,99.62l1.73-1.46a17.43,17.43,0,0,1,1.08,3.9c0,1-.74,16.32-.74,16.32s-2.33,1.76-4.14.19c0,0-1.24-18.09-1.52-20.91l3.59,2"/><path class="cls-14" d="M80.93,128.26a3.23,3.23,0,0,1-3,.66c-.68-.22-1.12-.38-1.63-.59a11.47,11.47,0,0,0-2.41-.5c-.85-.13-1.54-.13-2.38-.33a9.22,9.22,0,0,1-2.1-.81c-.88-.47-2.26-2.47-1-3.07a.88.88,0,0,1,.29-.06c3.09-.18,7,.37,8.09-.72l4.16.18c-.12,0,.33,3.8.37,4.11a1.81,1.81,0,0,1,0,.52A1.32,1.32,0,0,1,80.93,128.26Z"/><path class="cls-16" d="M81.65,106.7c0,1-.74,16.32-.74,16.32s-2.34,1.39-4.16-.18c0,0-1.22-17.72-1.5-20.55"/><path class="cls-2" d="M78.77,132.42,98.4,121.09a4.83,4.83,0,0,1,4.38,0l19.63,11.33a1.34,1.34,0,0,1,0,2.53l-19.63,11.33a4.83,4.83,0,0,1-4.38,0L78.77,135A1.34,1.34,0,0,1,78.77,132.42Z"/><path class="cls-5" d="M78.77,108.88,98.4,97.55a4.83,4.83,0,0,1,4.38,0l19.63,11.33a1.34,1.34,0,0,1,0,2.53l-19.63,11.33a4.83,4.83,0,0,1-4.38,0L78.77,111.41A1.34,1.34,0,0,1,78.77,108.88Z"/><path class="cls-17" d="M100.59,97.87a3.67,3.67,0,0,1,1.77.41L122,109.61c.36.2.49.42.49.53s-.13.33-.49.54L102.36,122a4,4,0,0,1-3.54,0L79.2,110.68c-.36-.21-.49-.42-.49-.54s.13-.33.49-.53L98.82,98.28a3.67,3.67,0,0,1,1.77-.41m0-.85a4.46,4.46,0,0,0-2.19.53L78.77,108.88a1.34,1.34,0,0,0,0,2.53L98.4,122.74a4.87,4.87,0,0,0,4.38,0l19.63-11.33a1.34,1.34,0,0,0,0-2.53L102.78,97.55a4.46,4.46,0,0,0-2.19-.53Z"/><path class="cls-3" d="M77.87,129.94a1.55,1.55,0,0,0,.9,1.27L98.4,142.54a4.45,4.45,0,0,0,2.19.53V123.26a4.38,4.38,0,0,1-2.19-.52L78.77,111.41a1.55,1.55,0,0,1-.9-1.27Z"/><path class="cls-4" d="M123.31,129.94a1.55,1.55,0,0,1-.9,1.27l-19.63,11.33a4.45,4.45,0,0,1-2.19.53V123.26a4.38,4.38,0,0,0,2.19-.52l19.63-11.33a1.55,1.55,0,0,0,.9-1.27Z"/><path class="cls-15" d="M89.41,93.72c2,.74,15.8,5.9,15.8,5.9s-.55,9.77-3.48,8.19L87.55,99.62l-3.59-2C83.64,94.47,87.18,92.9,89.41,93.72Z"/><path class="cls-16" d="M75.25,102.29c-.32-3.18,3.22-4.75,5.45-3.94,2,.75,15.8,5.91,15.8,5.91l13.66-1.15c.33,5.11-3,7.3-6.79,9S96,114,93,112.44l-14.18-8.18,1.74-1.46a17.54,17.54,0,0,1,1.07,3.9"/><path class="cls-18" d="M95.3,69.77c.3-2.91,2.26-5.2,5.25-5.18A5.72,5.72,0,0,1,104,74.88s-.08.37-.18.72a15.57,15.57,0,0,0,.45,1.8c.18.32,1,0,2.2-.17.8-.11,1,1.37.48,2.75s-2.4,2.55-4.21,2.87S98,82,99,81.24s1.06-1.1.89-1.65S99.43,78,99.43,78a6.19,6.19,0,0,1-1.55.17c-1.18-.11-1.77-.34-2.14-1.69A18.72,18.72,0,0,1,95.3,69.77Z"/><path class="cls-19" d="M101.69,79.72l-1.75,0,0-.1C99.75,79,99.43,78,99.43,78a6.19,6.19,0,0,1-1.55.17,3.16,3.16,0,0,1-1.2-.28,2.46,2.46,0,0,0,2.12-1,9.26,9.26,0,0,0,.27-2.35,3.3,3.3,0,0,0,.22.61.46.46,0,0,0,.5.25l1.12-.13,3.32-.58a2.31,2.31,0,0,1-.24.2s-.08.37-.18.72a15.57,15.57,0,0,0,.45,1.8c.08.14.31.16.63.12l-.44.57Z"/><path class="cls-20" d="M94.75,64.23c1.82.57,8.56-2,9.77,2a3.19,3.19,0,0,1,1.75,2.45,6.74,6.74,0,0,1-.7,5.36,27.4,27.4,0,0,0-1.47,2.86,4.46,4.46,0,0,1-1.91.86,2.39,2.39,0,0,1-2.78-1.63,7.94,7.94,0,0,1-.34-1.58c.25.41,1,.18,1.45-.66a2.5,2.5,0,0,0,0-2.43,1.08,1.08,0,0,0-2,.06,5.29,5.29,0,0,0-.09,1.58.86.86,0,0,1-.94-.73,7.79,7.79,0,0,1-.09-1.79A1.7,1.7,0,0,0,97,69.2,1.35,1.35,0,0,1,96.65,68a3.18,3.18,0,0,1-2.44-1.62C93.36,64.82,92.93,63.66,94.75,64.23Z"/><path class="cls-21" d="M104.88,77.49c.13.42-.23,1.11-1.73,1.91a6.18,6.18,0,0,1-3.24.94s-2.41,1.3-3.46,2c-1.31.92-1.9,3.58-2.07,8.08-.16,4-.21,10.3-.15,13.65a4.09,4.09,0,0,0,2.3,3.59,6.6,6.6,0,0,0,3.41.69c3.15-.25,8.93-3.13,10.22-5.28,0-4.57-.42-7.34-.26-10.07.28-4.81,1.33-8.62,0-12.48-1.15-3.37-2.49-3.53-3.78-3.34A7.92,7.92,0,0,0,104.88,77.49Z"/><path class="cls-22" d="M104.13,77c.52-.07.66.13,1,.44,0,0,.46,1.27-1.24,2.37a7.33,7.33,0,0,1-4.34.73l-.62.34s.29-1.74.79-1.85a7,7,0,0,0,3-.67C104.28,77.61,104.13,77,104.13,77Z"/><path class="cls-18" d="M73.89,81.68a19,19,0,0,1,1.17,2.15,4.36,4.36,0,0,0,1,1.83,23.16,23.16,0,0,0,5.13,3.07c2.64,1.33,4.75,1.29,6.31.69,3.39-1.29,5.26-4.29,7.43-6,1.53-1.22,3-.67,3.28.44.2.87-.55,3.32-3.17,5.84-2,2-5.49,4.11-8.4,4.19A14.22,14.22,0,0,1,81,92.67a52.42,52.42,0,0,1-6.61-3.76c-.61-.39-1.16-.52-2.42-1.12a8.54,8.54,0,0,1-3.23-2.55c-.66-1-.74-1.41-.6-1.63s.47-.21.82.2a7.17,7.17,0,0,0,1.85,1.73s-.81-.85-1.25-1.4a6.82,6.82,0,0,1-1-1.6c-.23-.57.26-1.32.62-.92s.53.81,1.2,1.61a6.5,6.5,0,0,0,1.19,1.15,12.26,12.26,0,0,1-1.09-1.78,3,3,0,0,1-.4-1.61c0-.29.44-.63.82-.08A10.72,10.72,0,0,0,72.32,83c.58.62,1.08,1,1.1.8s-.35-.51-.56-1.22,0-1.47.4-1.55S73.58,81,73.89,81.68Z"/><path class="cls-22" d="M97.89,82.9a2.43,2.43,0,0,1,.41,2.45,15.88,15.88,0,0,1-2.56,4.08,30.48,30.48,0,0,1-2.44,2.4s-2.63-1.8-3.31-4c0,0,3.37-3.23,4.27-4.07S96.62,81.69,97.89,82.9Z"/></g></g></svg>