<svg id="圖層_1" data-name="圖層 1" xmlns="http://www.w3.org/2000/svg" xmlns:xlink="http://www.w3.org/1999/xlink" viewBox="0 0 300 60"><defs><style>.cls-1{fill:#c5e5e1;}.cls-2{fill:#ddf0ed;}.cls-3{fill:#f6fafa;}.cls-4{fill:#9afef4;}.cls-5{fill:#008d7f;}.cls-6{fill:#007267;}.cls-7{fill:#32a398;}.cls-8{fill:#a5faf9;}.cls-9{fill:#228e83;}.cls-10{fill:#a3fdf9;}.cls-11{fill:#4daea6;}.cls-12{fill:#24968b;}.cls-13{fill:#a4fcfa;}.cls-14{fill:#abfcfb;}.cls-15{fill:#088274;}.cls-16{fill:#a8f9f8;}.cls-17{fill:#aafbfa;}.cls-18{fill:#a7f9f7;}.cls-19{fill:#a4f9f8;}.cls-20{fill:#a5f9f8;}.cls-21{fill:#078173;}.cls-22{fill:#aafcfb;}.cls-23{fill:#a3fbf7;}.cls-24{fill:#a6fcf9;}.cls-25{fill:#a7fcfa;}.cls-26{fill:#3daaa0;}.cls-27{fill:#1b8a7f;}.cls-28{fill:#078073;}.cls-29{fill:#057e70;}.cls-30{fill:#098274;}.cls-31{fill:#1b9287;}.cls-32{fill:#048071;}.cls-33{fill:#037e70;}.cls-34{fill:#088173;}.cls-35{fill:#0e8375;}.cls-36{fill:#0f8476;}.cls-37{fill:#0b8374;}.cls-38{fill:#2b9c91;}.cls-39{fill:#52b6ad;}.cls-40,.cls-41,.cls-42,.cls-43,.cls-44,.cls-45,.cls-46{fill:#246465;}.cls-40{opacity:0.15;}.cls-41{opacity:0.25;}.cls-42{opacity:0.3;}.cls-43{opacity:0.1;}.cls-44{opacity:0.3;}.cls-45{opacity:0.2;}.cls-46{opacity:0.2;}.cls-47{font-size:25px;fill:#1cbfa5;font-family:AgencyFB-Bold, Agency FB;font-weight:700;}</style><symbol id="Logo_CTBC_BlockchainMarketplace" data-name="Logo_CTBC_BlockchainMarketplace" viewBox="0 0 40.19 50"><path class="cls-1" d="M0,20H.06a.42.42,0,0,1,.08.33v3.35A.58.58,0,0,1,.09,24,.08.08,0,0,1,0,24Z"/><path class="cls-2" d="M0,24H.05c.1.08.09.2.09.32v3.31a.56.56,0,0,1-.05.28A.08.08,0,0,1,0,28Z"/><path class="cls-3" d="M0,28H0c.1.08.09.19.09.3,0,.48,0,1,0,1.46a.71.71,0,0,1,0,.14.23.23,0,0,1-.06.18H0Z"/><path class="cls-4" d="M.06,30.05v-.16a.06.06,0,0,1,.06,0c.11,0,.16-.1.23-.17l9.52-9.52a1.18,1.18,0,0,0,.23-.27c1-1,2-2.07,3.08-3.09l.09-.06c.19-.06.29.09.4.2l4.21,4.21a14.69,14.69,0,0,0,1.06,1c.3.26.57.55.85.84s.18.26,0,.45l-.36.36-5.73,5.73c-.1.1-.21.17-.25.31V30a.62.62,0,0,0,.21.27L16.41,33a3.2,3.2,0,0,1,.25.27,1.38,1.38,0,0,0,.22.26l2.93,2.93c.08.08.15.19.28.19h.1a7.07,7.07,0,0,0,1-.89L25,31.92a3.85,3.85,0,0,1,.3-.27c.33-.27.61-.59.92-.89l.45-.45c.13-.14.24-.14.38,0,.68.69,1.38,1.36,2,2.07a2.43,2.43,0,0,0,.26.3l4,4c.05.06.14.09.12.19-.61.65-1.25,1.28-1.9,1.89s-1.34,1.32-2,2l-2.24,2.23-.2.17a4.07,4.07,0,0,0-.68.63c-1.05,1-2.07,2.06-3.1,3.09l-.1.12c-.47.48-.94,1-1.4,1.43s-1,1-1.51,1.51c-.15.15-.26.17-.43,0-.73-.75-1.49-1.48-2.21-2.23-1.35-1.41-2.76-2.75-4.1-4.15-2.62-2.72-5.32-5.36-8-8C3.76,33.71,2,31.93.2,30.17Z"/><path class="cls-5" d="M40.14,20a.36.36,0,0,1,0,.23q0,4.71,0,9.43a.58.58,0,0,1-.19.44c-2.2,2.19-4.39,4.4-6.58,6.59h0c-.76-.79-1.54-1.54-2.3-2.31a.25.25,0,0,0-.16-.1,2.51,2.51,0,0,1-.68-.66c0-.11,0-.17-.09-.23l-3.1-3.1a.4.4,0,0,0-.15-.1H26.8c-.17,0-.25.18-.37.29s-.33.34-.51.5a1.16,1.16,0,0,0-.24.2l-3.1,3.1c-.28.26-.53.55-.82.8s-.65.63-1,.94c-.15.14-.28.29-.43.43s-.27.18-.45,0c-.37-.35-.72-.71-1.08-1.07a.82.82,0,0,0-.25-.2,3.62,3.62,0,0,1-.8-.81c0-.14-.12-.21-.21-.3-1.26-1.27-2.53-2.53-3.8-3.8a.72.72,0,0,1-.26-.45,2.63,2.63,0,0,1,.6-.6c.11,0,.16-.07.22-.13l1.8-1.81c1.24-1.23,2.48-2.48,3.72-3.72.07-.06.16-.12.16-.23v-.07a.28.28,0,0,0-.12-.2l-2.65-2.65a.9.9,0,0,0-.19-.15c-.35-.32-.68-.68-1-1-.86-.86-1.71-1.73-2.59-2.58a.17.17,0,0,1,0-.07,1,1,0,0,1,.23-.26c1.3-1.35,2.68-2.6,4-3.94.39-.4.75-.83,1.15-1.21a10.29,10.29,0,0,0,1.1-1.09.25.25,0,0,1,.26-.13.81.81,0,0,1,.28.24l8.13,8.12c1.19,1.2,2.39,2.39,3.59,3.59a.8.8,0,0,0,.23.18,1.61,1.61,0,0,1,.46.44,2,2,0,0,0,.24.26l5.8,5.8a2.64,2.64,0,0,0,.41.34c.25.21.45.47.71.68.1-.12.06-.24.06-.35,0-2.94,0-5.87,0-8.81C40.06,20.27,40,20.1,40.14,20Z"/><path class="cls-6" d="M32.78,22.53a2.09,2.09,0,0,0-.42-.42,1,1,0,0,1-.22-.19l-3.58-3.59q-4.12-4.11-8.22-8.22c-.1-.1-.23-.18-.26-.33,0-1,0-2,0-3,0-2.11,0-4.21,0-6.32,0-.13-.08-.31.12-.39l4,4L37,16.82l3,2.93c.07.06.16.12.18.22V25.9c0,1.21,0,2.43,0,3.64,0,.08,0,.18-.05.21s-.12-.06-.16-.11l-.74-.76a1.67,1.67,0,0,1-.28-.25l-5.85-5.85A1.6,1.6,0,0,0,32.78,22.53Z"/><path class="cls-7" d="M13.44,16.58v0a0,0,0,0,1,0,.06s-.08,0-.12,0-.13.07-.19.13l-1.47,1.47L8.32,21.58a1.06,1.06,0,0,0-.19.23A.85.85,0,0,1,8,22L.36,29.59c-.08.08-.15.21-.3.19L0,28V20l9-9L19.66.4l.27-.26c.11,0,.14,0,.16.11a2.43,2.43,0,0,1,0,.27V5.89c0,1.28,0,2.56,0,3.83,0,.15-.08.23-.16.32-.32.35-.66.67-1,1C18,12,17.12,12.9,16.19,13.8s-1.7,1.69-2.55,2.53A.69.69,0,0,0,13.44,16.58Z"/><path class="cls-8" d="M30.29,33.57a3,3,0,0,0,.67.65.58.58,0,0,1,.23.18l2.23,2.23a0,0,0,0,1,0,0c0,.06.09.11,0,.16l-.33-.31-3.85-3.84c-.07-.08-.19-.14-.19-.27a.1.1,0,0,1,.07,0c.37.34.75.67,1.1,1C30.26,33.45,30.31,33.5,30.29,33.57Z"/><path class="cls-9" d="M20.2.09c-.08.07-.05.17-.05.25V9.9h0a.12.12,0,0,1,0-.09V.25c0-.08-.06-.19.08-.21Z"/><path class="cls-10" d="M23.19,46.94c0-.11.09-.16.15-.23l3.5-3.49c.06-.06.1-.18.23-.12a6.46,6.46,0,0,1-.79.78L23.4,46.75A1.9,1.9,0,0,1,23.19,46.94Z"/><path class="cls-11" d="M20.15,0c-.1.08,0,.2,0,.3,0,1.85,0,3.71,0,5.56,0,0,0,0-.05,0V.43c0-.1.06-.25-.11-.29C20,.09,20-.07,20.15,0Z"/><path class="cls-12" d="M.06,29.78a2.09,2.09,0,0,0,.22-.2L7.87,22a2.29,2.29,0,0,1,.23-.21.09.09,0,0,1,0,.07.48.48,0,0,1-.17.23L.31,29.73c-.06.06-.11.14-.2.16h0Z"/><path class="cls-13" d="M.11,29.89c.54-.62,1.16-1.17,1.74-1.76L8,21.93s0-.05.07-.08a.61.61,0,0,1,.07-.14c.62-.6,1.2-1.23,1.84-1.81a.11.11,0,0,1,.11,0c0,.12-.09.17-.16.24L.29,29.83S.22,30,.11,29.89Z"/><path class="cls-14" d="M20.05,23.22v.06c0,.1-.12.16-.18.23l-1.32,1.31c-.81.79-1.58,1.62-2.39,2.42-.6.6-1.2,1.21-1.81,1.81-.06.06-.11.16-.23.16a3.18,3.18,0,0,0-.58.58c0,.06-.06.13-.16.11s.11-.2.19-.28c2-2,4.08-4.09,6.13-6.12.19-.19.2-.31,0-.49s-.52-.53-.78-.8l.07,0c.22.09.34.29.5.44A3.47,3.47,0,0,1,20.05,23.22Z"/><path class="cls-15" d="M13.38,29.9l.16-.11a.89.89,0,0,0,.26.39c1.29,1.29,2.59,2.58,3.88,3.88.06.06.23.11.11.26a.15.15,0,0,1-.14-.06c-.35-.35-.71-.68-1-1.06q-1.52-1.5-3-3a.82.82,0,0,1-.23-.26Z"/><path class="cls-16" d="M13.33,16.61l.1.06a3.37,3.37,0,0,1,.63.56c.66.64,1.3,1.29,1.94,1.93.37.36.72.73,1.09,1.09a4.27,4.27,0,0,1,.85.9s0,.07-.08.05L17.64,21,13.58,17c-.09-.08-.16-.19-.31-.17a.09.09,0,0,1,0-.07C13.24,16.65,13.25,16.6,13.33,16.61Z"/><path class="cls-17" d="M25.32,31.7l-.22.19q-1.83,1.84-3.67,3.67l-.22.19c-.05,0-.06,0-.08,0a2.21,2.21,0,0,1,.59-.66c.31-.27.58-.57.87-.85l2.48-2.45c.07-.07.12-.19.26-.14A.08.08,0,0,1,25.32,31.7Z"/><path class="cls-18" d="M16.63,33.19l1.16,1.13.81.8a10.2,10.2,0,0,1,.82.79c.19.17.37.36.55.54s.14.11.12.22-.14,0-.19-.07l-3.17-3.17a.25.25,0,0,1-.1-.18,0,0,0,0,1,0,0Z"/><path class="cls-19" d="M13.26,16.7v.08c-.68.69-1.37,1.38-2,2.08-.35.36-.71.73-1.09,1.06H10c0-.12.08-.16.14-.22l1.49-1.5c.48-.43.93-.9,1.39-1.35C13.11,16.79,13.16,16.7,13.26,16.7Z"/><path class="cls-20" d="M29.1,32.39h-.05l-2-2c-.16-.17-.27-.2-.42,0a3.78,3.78,0,0,1-.41.39s-.06,0-.08-.06a2.59,2.59,0,0,1,.66-.66l.11,0c.09,0,.13.08.19.14q1,.94,1.89,1.92C29.05,32.24,29.14,32.28,29.1,32.39Z"/><path class="cls-21" d="M20.09,36.67c-.43-.44-.86-.89-1.3-1.33-.06-.07-.13-.14-.19-.22.12-.07.14.06.19.11.38.37.76.74,1.13,1.13.16.16.26.15.41,0,.38-.4.79-.79,1.18-1.19.07-.06.12-.15.24-.15s0,0,0,0v0l-.59.63A.51.51,0,0,1,21,36c-.26.22-.5.46-.75.69Z"/><path class="cls-22" d="M16.63,33.19v.06l-1-1-2-2.06c-.07-.07-.18-.13-.17-.26.47.4.88.86,1.31,1.29C15.34,31.87,16,32.53,16.63,33.19Z"/><path class="cls-23" d="M26.17,30.73l0,.07a9.56,9.56,0,0,1-.9.9v-.12c0-.1,0-.14.09-.19a2.91,2.91,0,0,1,.48-.45C26,30.89,26,30.74,26.17,30.73Z"/><path class="cls-24" d="M17.86,21.2l.05-.06a.08.08,0,0,1,.08,0,9.55,9.55,0,0,1,1,1s0,0,0,.05h-.07c-.18,0-.26-.19-.38-.3S18.08,21.44,17.86,21.2Z"/><path class="cls-25" d="M20.2,36.65a6.22,6.22,0,0,1,1-1l.05.06a10.32,10.32,0,0,1-.95.92S20.22,36.66,20.2,36.65Z"/><path class="cls-9" d="M20.15,9.9l.16.14,8.13,8.12.13.16s0,0-.05,0l-.18-.15-8-8a1.3,1.3,0,0,1-.15-.18s0,0,0,0h0Z"/><path class="cls-26" d="M20.14,9.91v0c-.12,0-.17.1-.24.17-1.22,1.24-2.43,2.5-3.69,3.72-.93.9-1.84,1.84-2.78,2.74,0-.14.1-.2.18-.28l6.13-6.14L20,9.85s0,0,.06.05Z"/><path class="cls-27" d="M32.78,22.53a.37.37,0,0,1,.22.14l6.06,6.07a.81.81,0,0,1,.12.14c-.1,0-.16-.08-.22-.14l-6.07-6.07A1.71,1.71,0,0,1,32.78,22.53Z"/><path class="cls-28" d="M16.14,27.2l3.64-3.66c.08-.09.18-.17.27-.26.08.09,0,.13-.05.17l-3.8,3.8-.05,0A.08.08,0,0,1,16.14,27.2Z"/><path class="cls-29" d="M29.1,32.39a9,9,0,0,0-.85-.9c-.44-.47-.89-.92-1.34-1.37.09-.09.12,0,.16.06l3.19,3.19s.22.1,0,.2Z"/><path class="cls-30" d="M19,22.21c-.34-.37-.7-.73-1.08-1.07l-.85-.86s0-.06,0-.09.16.09.23.16c.89.88,1.77,1.76,2.65,2.65.06.06.2.09.11.22Z"/><path class="cls-21" d="M25.91,31a2.71,2.71,0,0,0-.6.62L22.85,34c-.07.08-.16.14-.23.21s-.05,0-.07,0c.27-.28.53-.56.81-.84l2.29-2.29c.07-.07.13-.17.25-.18s0,0,0,0Z"/><path class="cls-31" d="M28.52,18.32h.05l.76.74,2.84,2.83c.06.07.12.15.19.22-.09,0-.14-.06-.2-.12l-3.58-3.58A.47.47,0,0,1,28.52,18.32Z"/><path class="cls-32" d="M16,19.18l-1.35-1.31-1.2-1.2a.43.43,0,0,1,0-.05.25.25,0,0,1,.18.1L16,19.09s0,.06.06.09A0,0,0,0,1,16,19.18Z"/><path class="cls-33" d="M33.42,36.63s-.06,0-.09,0L31,34.22c.06-.08.1,0,.13,0,.76.75,1.51,1.51,2.27,2.27A.39.39,0,0,1,33.42,36.63Z"/><path class="cls-34" d="M16.14,27.2v.08l-1.92,1.95s-.09.08-.11,0Z"/><path class="cls-35" d="M16,19.18H16a10.8,10.8,0,0,1,1,1v.09Z"/><path class="cls-36" d="M25.91,31V30.9l.77-.79s.08-.07.13,0l-.63.65Z"/><path class="cls-37" d="M22.55,34.21h.07a7.75,7.75,0,0,1-.87.85V35A6,6,0,0,1,22.55,34.21Z"/><path class="cls-38" d="M11.68,18.22c-.48.5-1,1-1.46,1.49a1.9,1.9,0,0,0-.19.21L8.11,21.85v-.06a.3.3,0,0,1,.12-.2l3.29-3.29.11-.08S11.66,18.19,11.68,18.22Z"/><path class="cls-38" d="M11.68,18.22h-.06c.54-.56,1.09-1.11,1.63-1.66.05,0,.12-.09.08.05a.11.11,0,0,0-.07.09C12.72,17.19,12.26,17.76,11.68,18.22Z"/><path class="cls-39" d="M20.1,9.9,20,9.85V5.9h.05C20.09,7.24,20.1,8.57,20.1,9.9Z"/></symbol></defs><use width="40.19" height="50" transform="translate(22.8 15.25) scale(0.6)" xlink:href="#Logo_CTBC_BlockchainMarketplace"/><polygon class="cls-40" points="180 60 120 0 180 0 180 60"/><polygon class="cls-41" points="240 0 180 60 180 0 240 0"/><polygon class="cls-42" points="120 0 60 60 60 0 120 0"/><polygon class="cls-43" points="300 0 240 60 240 0 300 0"/><polygon class="cls-44" points="120 60 180 0 180 60 120 60"/><polygon class="cls-45" points="120 60 60 0 120 0 120 60"/><polygon class="cls-46" points="0 60 60 0 60 60 0 60"/><text class="cls-47" transform="translate(60 40)">Marketplace</text></svg>