<svg id="圖層_1" data-name="圖層 1" xmlns="http://www.w3.org/2000/svg" xmlns:xlink="http://www.w3.org/1999/xlink" viewBox="0 0 170 60"><defs><style>.cls-1{fill:none;}.cls-2{fill:#007d7d;}.cls-3{fill:url(#未命名漸層_40);}.cls-4,.cls-6{fill:#d00012;}.cls-146,.cls-147,.cls-148,.cls-149,.cls-150,.cls-151,.cls-152,.cls-153,.cls-154,.cls-155,.cls-156,.cls-157,.cls-158,.cls-159,.cls-160,.cls-161,.cls-162,.cls-163,.cls-164,.cls-165,.cls-166,.cls-167,.cls-168,.cls-169,.cls-170,.cls-171,.cls-172,.cls-173,.cls-174,.cls-175,.cls-176,.cls-177,.cls-178,.cls-179,.cls-180,.cls-181,.cls-182,.cls-183,.cls-184,.cls-185,.cls-186,.cls-187,.cls-4{fill-rule:evenodd;}.cls-5{clip-path:url(#clip-path);}.cls-146,.cls-7{fill:#d00212;}.cls-8{fill:#d00a13;}.cls-9{fill:#d01114;}.cls-10,.cls-147{fill:#d01715;}.cls-11{fill:#d01c16;}.cls-12{fill:#d12117;}.cls-13{fill:#d12318;}.cls-14{fill:#d12719;}.cls-15{fill:#d12a1a;}.cls-16{fill:#d12e1c;}.cls-17{fill:#d1311d;}.cls-18{fill:#d2341e;}.cls-19{fill:#d2351f;}.cls-150,.cls-20{fill:#d23820;}.cls-21{fill:#d23a21;}.cls-22{fill:#d23d23;}.cls-23{fill:#d23e23;}.cls-24{fill:#d24225;}.cls-25{fill:#d34326;}.cls-26{fill:#d34527;}.cls-152,.cls-27{fill:#d34729;}.cls-28{fill:#d34a2a;}.cls-29{fill:#d34b2b;}.cls-30{fill:#d34d2c;}.cls-31{fill:#d44f2d;}.cls-32{fill:#d4512f;}.cls-33{fill:#d45330;}.cls-34{fill:#d45532;}.cls-35{fill:#d45632;}.cls-36{fill:#d45834;}.cls-37{fill:#d55a35;}.cls-38{fill:#d55c37;}.cls-39{fill:#d55e38;}.cls-40{fill:#d5603a;}.cls-156,.cls-41{fill:#d5613b;}.cls-42{fill:#d5633c;}.cls-43{fill:#d6643e;}.cls-157,.cls-44{fill:#d6663f;}.cls-45{fill:#d66841;}.cls-46{fill:#d66a43;}.cls-158,.cls-47{fill:#d66c44;}.cls-48{fill:#d76d45;}.cls-49{fill:#d76f47;}.cls-50{fill:#d77049;}.cls-51{fill:#d7724a;}.cls-52{fill:#d7744c;}.cls-53{fill:#d7764e;}.cls-54{fill:#d8774f;}.cls-55{fill:#d87950;}.cls-56{fill:#d87a52;}.cls-57{fill:#d87c54;}.cls-161,.cls-58{fill:#d87d55;}.cls-59{fill:#d98058;}.cls-60{fill:#d98059;}.cls-162,.cls-61{fill:#d9805b;}.cls-62{fill:#d9805c;}.cls-63{fill:#da805e;}.cls-64{fill:#da805f;}.cls-65{fill:#da8061;}.cls-66{fill:#da8063;}.cls-67{fill:#da8065;}.cls-68{fill:#da8067;}.cls-69{fill:#db8069;}.cls-70{fill:#db806a;}.cls-71{fill:#db806c;}.cls-72{fill:#db806e;}.cls-73{fill:#db8070;}.cls-74{fill:#dc8272;}.cls-75{fill:#dc8374;}.cls-76{fill:#dc8475;}.cls-77{fill:#dc8677;}.cls-167,.cls-78{fill:#dd8779;}.cls-79{fill:#dd897b;}.cls-80{fill:#dd8b7d;}.cls-168,.cls-81{fill:#dd8d7f;}.cls-82{fill:#de8e80;}.cls-83{fill:#de8f80;}.cls-84{fill:#de9180;}.cls-169,.cls-85{fill:#de9280;}.cls-86{fill:#de9480;}.cls-87{fill:#de9680;}.cls-170,.cls-88{fill:#df9880;}.cls-89{fill:#df9a80;}.cls-90{fill:#df9c80;}.cls-91{fill:#e09d80;}.cls-92{fill:#e09e80;}.cls-93{fill:#e0a183;}.cls-172,.cls-94{fill:#e0a284;}.cls-95{fill:#e0a386;}.cls-96{fill:#e1a588;}.cls-173,.cls-97{fill:#e1a78a;}.cls-98{fill:#e1a88c;}.cls-99{fill:#e1a98e;}.cls-100{fill:#e1ab90;}.cls-101,.cls-174{fill:#e2ac92;}.cls-102{fill:#e2ae94;}.cls-103{fill:#e2b096;}.cls-104{fill:#e2b097;}.cls-105{fill:#e2b29a;}.cls-106{fill:#e3b49c;}.cls-107{fill:#e3b59e;}.cls-108{fill:#e3b7a0;}.cls-109{fill:#e3b9a3;}.cls-110{fill:#e3b9a4;}.cls-111,.cls-177{fill:#e4bba6;}.cls-112{fill:#e4bda8;}.cls-113{fill:#e4beaa;}.cls-114,.cls-178{fill:#e4c0ac;}.cls-115{fill:#e4c1af;}.cls-116{fill:#e5c3b1;}.cls-117{fill:#e5c4b2;}.cls-118,.cls-179{fill:#e5c5b4;}.cls-119{fill:#e5c7b6;}.cls-120{fill:#e5c8b9;}.cls-121,.cls-180{fill:#e5cabb;}.cls-122{fill:#e6cbbd;}.cls-123{fill:#e6ccbe;}.cls-124{fill:#e6cec0;}.cls-125{fill:#e6cfc3;}.cls-126{fill:#e6d1c5;}.cls-127{fill:#e7d2c6;}.cls-128,.cls-182{fill:#e7d4c9;}.cls-129{fill:#e7d5ca;}.cls-130{fill:#e7d6cd;}.cls-131{fill:#e7d8cf;}.cls-132{fill:#e8d9d1;}.cls-133{fill:#e8dad2;}.cls-134{fill:#e8dbd4;}.cls-135,.cls-184{fill:#e8ddd7;}.cls-136{fill:#e8ded9;}.cls-137{fill:#e8e0db;}.cls-138,.cls-185{fill:#e8e1dd;}.cls-139{fill:#e8e2de;}.cls-140{fill:#ffe4e1;}.cls-141{fill:#ffe5e3;}.cls-142{fill:#ffe6e5;}.cls-143{fill:#ffe8e7;}.cls-144,.cls-187{fill:#fff;}.cls-145{fill:#008344;}.cls-148{fill:#d12518;}.cls-149{fill:#d12f1c;}.cls-151{fill:#d23f24;}.cls-153{fill:#d44e2d;}.cls-154{fill:#d45431;}.cls-155{fill:#d55b36;}.cls-159{fill:#d77149;}.cls-160{fill:#d87850;}.cls-163{fill:#da8060;}.cls-164{fill:#da8066;}.cls-165{fill:#db806d;}.cls-166{fill:#dc8273;}.cls-171{fill:#df9d80;}.cls-175{fill:#e2b199;}.cls-176{fill:#e3b69f;}.cls-181{fill:#e6cfc1;}.cls-183{fill:#e7d9d0;}.cls-186{fill:#ffe6e4;}</style><radialGradient id="未命名漸層_40" cx="28.8" cy="30.5" r="21.47" gradientTransform="translate(7.84 2.69) scale(0.91 0.91)" gradientUnits="userSpaceOnUse"><stop offset="0.9"/><stop offset="1" stop-opacity="0"/></radialGradient><clipPath id="clip-path"><path class="cls-1" d="M50.67,27.8A19,19,0,0,1,17.84,40.9a19,19,0,1,0,28.62-25A18.91,18.91,0,0,1,50.67,27.8"/></clipPath></defs><path class="cls-2" d="M72.05,17.46V15.73h-1.7v1.73H64.74V24.8h5.61v2.91h1.72V24.77H76A1.59,1.59,0,0,0,77.63,23V17.46Zm-1.7,5.94h-4l0-4.58h4Zm5.75-1a.91.91,0,0,1-1,1H72.08l0-4.55h4Z"/><path class="cls-2" d="M80.3,15.87V27.62H91.16a1.41,1.41,0,0,0,1.52-1.42V15.82ZM88,17h.68l.4.77H88Zm-1.13,7.63-.26-1.11c-1.33.26-3.66.54-4.45.6l.22,1.24a24.87,24.87,0,0,0,4.14-.47,5.66,5.66,0,0,1-.68.7l.88.66H81.77l0-9.25h4.92l0,.77H82.22v1.25h4.54c.14,1.07.46,3.4,1.11,4.36a6.4,6.4,0,0,1-1,1.25m3.31,1.62h-3a15.65,15.65,0,0,0,1.36-1.62,6.94,6.94,0,0,0,.91,1.1c.5.54,1.27,0,1.61-.31a7.66,7.66,0,0,1-1.73-1.87,13.14,13.14,0,0,0,1.62-3.74l-1.28-.26a21.36,21.36,0,0,1-1,2.55A20.32,20.32,0,0,1,88,19h1.9c.8,0,1-.32,1.2-1,0,0,0,6.18,0,7.12s-.53,1.14-1,1.14m1-8.49h-.69l-.34-.75,1,0Z"/><path class="cls-2" d="M82.18,23.39H85.6a1,1,0,0,0,1.1-1.08v-2.7H82.17Zm1.38-2.6h1.75v1.44H83.56Z"/><path class="cls-2" d="M97.27,15.6a11.69,11.69,0,0,1-2.49,5.66l1.36.6.26-.28v6.26h1.38V19a16.08,16.08,0,0,0,.92-3.18Z"/><path class="cls-2" d="M106.94,17c.69,0,.91-.68.91-1.27H99.61V17Z"/><path class="cls-2" d="M107.66,19.54H99.42v1.28h7.33c.68,0,.91-.68.91-1.28"/><path class="cls-2" d="M99.42,22.61h7.33c.68,0,.91-.68.91-1.28H99.42Z"/><path class="cls-2" d="M98.64,17.67l0,1.28h9.26c.68,0,.9-.68.9-1.28Z"/><path class="cls-2" d="M99.4,27.7h7.26a1.17,1.17,0,0,0,1.22-1.3V23.17H99.4Zm1.54-3.17h5.26V26c0,.23,0,.31-.36.31h-4.91Z"/><path class="cls-2" d="M115.35,17.15c.68,0,.91-.63.91-1.22h-4.1v1.22Z"/><path class="cls-2" d="M116.12,19.53H112v1.22h3.23c.68,0,.91-.63.91-1.22"/><path class="cls-2" d="M112,22.5h3.23c.68,0,.91-.63.91-1.22H112Z"/><path class="cls-2" d="M111.44,19.06h4.71c.68,0,.91-.63.91-1.23h-5.62Z"/><path class="cls-2" d="M111.7,27.52h3.8a1.17,1.17,0,0,0,1.21-1.31V23h-5Zm1.46-3.18h2v1.47c0,.23,0,.41-.36.41h-1.66Z"/><path class="cls-2" d="M120.54,25.53V21.67h3.17c.94,0,1.17-.68,1.17-1.36h-4.32V17.56h3.18c.6,0,.85-.76.85-1.3h-7.31v1.32H119v2.74h-1.79v1.37H119v4.63a1.05,1.05,0,0,0,1,1.14h3.32c1.16,0,1.21-.74,1.21-1.34h-3.54c-.37,0-.51-.28-.51-.59"/><path class="cls-2" d="M70.9,41.5H67.49a2.6,2.6,0,0,1-2.18-1.13,4.57,4.57,0,0,1-.87-2.86,4.27,4.27,0,0,1,.86-2.77,2.7,2.7,0,0,1,2.19-1.05H70.9v1.36H67.67a1.73,1.73,0,0,0-1.43.72,2.89,2.89,0,0,0-.56,1.85,2.77,2.77,0,0,0,.56,1.82,1.74,1.74,0,0,0,1.43.7H70.9Z"/><path class="cls-2" d="M92.05,41.5H88.64a2.61,2.61,0,0,1-2.18-1.13,4.57,4.57,0,0,1-.86-2.86,4.26,4.26,0,0,1,.85-2.77,2.7,2.7,0,0,1,2.19-1.05h3.41v1.36H88.81a1.73,1.73,0,0,0-1.42.72,2.89,2.89,0,0,0-.56,1.85,2.77,2.77,0,0,0,.56,1.82,1.73,1.73,0,0,0,1.42.7h3.24Z"/><path class="cls-2" d="M85.1,39.24a2.29,2.29,0,0,1-.19.94,2.2,2.2,0,0,1-2.22,1.32H78.37V33.69h4.32a2.2,2.2,0,0,1,2.17,1.25A2.43,2.43,0,0,1,85.1,36a2.25,2.25,0,0,1-.64,1.64,2.14,2.14,0,0,1,.64,1.59M84,36a.81.81,0,0,0-.45-.75,1.56,1.56,0,0,0-.78-.2H79.42v5.09h3.36a1.67,1.67,0,0,0,.76-.17.79.79,0,0,0,0-1.45,1.51,1.51,0,0,0-.76-.19H80V37h2.74a1.56,1.56,0,0,0,.78-.2A.85.85,0,0,0,84,36"/><path class="cls-2" d="M102.68,39.24a2.29,2.29,0,0,1-.19.94,2.18,2.18,0,0,1-2.2,1.32H96V33.69h4.34a2.2,2.2,0,0,1,2.16,1.25,2.42,2.42,0,0,1,.23,1.07,2.29,2.29,0,0,1-.63,1.64,2.17,2.17,0,0,1,.63,1.59M101.59,36a.81.81,0,0,0-.44-.75,1.57,1.57,0,0,0-.79-.2H97v5.09h3.36a1.79,1.79,0,0,0,.78-.17.81.81,0,0,0,0-1.45,1.55,1.55,0,0,0-.78-.19H97.62V37h2.74a1.57,1.57,0,0,0,.79-.2.85.85,0,0,0,.44-.77"/><polygon class="cls-2" points="77.61 35.06 75.38 35.06 75.38 41.52 74.04 41.52 74.04 35.06 71.8 35.06 71.8 33.7 77.61 33.7 77.61 35.06"/><path class="cls-2" d="M111.11,41.53h-1.43l-1-2.23h-2.72l.44-1.1h1.8L107,35.62l-2.77,5.9h-1.38l3.34-7.19a1.91,1.91,0,0,1,.33-.54.7.7,0,0,1,.5-.24.64.64,0,0,1,.54.23,2.09,2.09,0,0,1,.3.55Z"/><path class="cls-2" d="M118.09,40.84c0,.5-.14.7-.4.75a1,1,0,0,1-.82-.46l-3.83-5v5.33h-1.3V34.39a.71.71,0,0,1,.08-.42.55.55,0,0,1,.36-.26.91.91,0,0,1,.83.4L116.79,39V33.71h1.3Z"/><path class="cls-2" d="M121.08,41.54h-1.27V33.66h1.27Zm5.08,0h-1.55l-3-3.27a1,1,0,0,1-.31-.63,1,1,0,0,1,.31-.62l3-3.36h1.55l-3.62,4Z"/><path class="cls-2" d="M131.15,15.6H129.8a7,7,0,0,1-2.9,2.56l1.17.74V20h1.43v1.15h-2v1.27h2v2.82s-.39-1-.73-1.73l-1.31.34a14.92,14.92,0,0,1,.76,2l1.3-.26v.69l-2.08.2.28,1.23s3.42-.29,4.16-.41,1.09-.45,1-1.39l-1.92.2V22.42h1c.52,0,.88-.52.88-1.25h-1.9V20h1.12c.51,0,.74-.57.74-1.22h-4.26a8.82,8.82,0,0,0,1.92-1.88A10.92,10.92,0,0,0,131.69,18a.74.74,0,0,0,.9.09,2.93,2.93,0,0,0,.7-.68s-1.8-1.19-2.23-1.56Z"/><polygon class="cls-2" points="131.17 24.46 132.29 24.96 133.01 23.01 131.86 22.57 131.17 24.46"/><path class="cls-2" d="M138.36,25.11a22.62,22.62,0,0,0,2.22-1.89l-1-1a20.64,20.64,0,0,1-2,1.76,5.57,5.57,0,0,1-.42-1.87h1.5a1.21,1.21,0,0,0,1.19-1.1V15.93h-6.48V26.24a1.36,1.36,0,0,0,1.24,1.47h1.21c.6,0,1-.85,1.15-1.43h-1.8c-.22,0-.37-.09-.37-.41V22.1h1a7,7,0,0,0,1,3.27,9.25,9.25,0,0,0,1.28,1.49,2.9,2.9,0,0,0,1.47.81,1.87,1.87,0,0,0,1.54-.74,7.81,7.81,0,0,1-2.79-1.82m-3.49-7.92h3.68V18.4h-3.68Zm0,3.75V19.7h3.66v.6a.7.7,0,0,1-.78.64Z"/><path class="cls-2" d="M146.78,16.09l-1.39-.55A9.11,9.11,0,0,1,142.8,19l1.26.8a9.43,9.43,0,0,0,2.72-3.69"/><path class="cls-2" d="M142.65,22.76l1.18.92a6.86,6.86,0,0,0,.87-.75v4.88h1.5V21.25a9.39,9.39,0,0,0,1-1.58L145.89,19a11,11,0,0,1-3.24,3.73"/><path class="cls-2" d="M155.84,16.09h-7.62v1.38h6.53c.84,0,1.09-.75,1.09-1.38"/><path class="cls-2" d="M147.73,19.18v1.3h5.33v5.68c0,.17-.09.26-.22.26h-4.12c0,.58.26,1.33.78,1.33h3.61a1.28,1.28,0,0,0,1.42-1.33V20.5h.86c.75,0,1-.77,1-1.32Z"/><circle class="cls-3" cx="34.06" cy="30.46" r="19.54"/><path class="cls-4" d="M13.64,29.55A19.54,19.54,0,1,1,33.18,49.09,19.54,19.54,0,0,1,13.64,29.55"/><g class="cls-5"><path class="cls-6" d="M14.17,32A19.72,19.72,0,1,1,33.89,51.71,19.71,19.71,0,0,1,14.17,32"/><path class="cls-7" d="M14.31,32A19.58,19.58,0,1,1,33.89,51.57,19.58,19.58,0,0,1,14.31,32"/><path class="cls-8" d="M14.45,32A19.44,19.44,0,1,1,33.89,51.43,19.44,19.44,0,0,1,14.45,32"/><path class="cls-9" d="M14.59,32a19.3,19.3,0,1,1,19.3,19.31A19.3,19.3,0,0,1,14.59,32"/><path class="cls-10" d="M14.73,32A19.16,19.16,0,1,1,33.89,51.15,19.16,19.16,0,0,1,14.73,32"/><path class="cls-11" d="M14.87,32a19,19,0,1,1,19,19,19,19,0,0,1-19-19"/><path class="cls-12" d="M15,32A18.88,18.88,0,1,1,33.89,50.87,18.88,18.88,0,0,1,15,32"/><path class="cls-13" d="M15.15,32A18.74,18.74,0,1,1,33.89,50.73,18.73,18.73,0,0,1,15.15,32"/><path class="cls-14" d="M15.29,32a18.6,18.6,0,1,1,18.6,18.61A18.6,18.6,0,0,1,15.29,32"/><path class="cls-15" d="M15.43,32A18.46,18.46,0,1,1,33.89,50.45,18.46,18.46,0,0,1,15.43,32"/><path class="cls-16" d="M15.57,32A18.32,18.32,0,1,1,33.89,50.31,18.33,18.33,0,0,1,15.57,32"/><path class="cls-17" d="M15.71,32A18.18,18.18,0,1,1,33.89,50.17,18.18,18.18,0,0,1,15.71,32"/><path class="cls-18" d="M15.85,32A18,18,0,1,1,33.89,50a18,18,0,0,1-18-18"/><path class="cls-19" d="M16,32a17.9,17.9,0,1,1,17.9,17.91A17.9,17.9,0,0,1,16,32"/><path class="cls-20" d="M16.13,32A17.76,17.76,0,1,1,33.89,49.75,17.76,17.76,0,0,1,16.13,32"/><path class="cls-21" d="M16.27,32A17.62,17.62,0,1,1,33.89,49.61,17.62,17.62,0,0,1,16.27,32"/><path class="cls-22" d="M16.41,32A17.48,17.48,0,1,1,33.89,49.47,17.47,17.47,0,0,1,16.41,32"/><path class="cls-23" d="M16.55,32A17.34,17.34,0,1,1,33.89,49.33,17.33,17.33,0,0,1,16.55,32"/><path class="cls-24" d="M16.69,32a17.2,17.2,0,1,1,17.2,17.21A17.2,17.2,0,0,1,16.69,32"/><path class="cls-25" d="M16.83,32A17.06,17.06,0,1,1,33.89,49.05,17,17,0,0,1,16.83,32"/><path class="cls-26" d="M17,32A16.92,16.92,0,1,1,33.89,48.91,16.91,16.91,0,0,1,17,32"/><path class="cls-27" d="M17.11,32A16.78,16.78,0,1,1,33.89,48.77,16.77,16.77,0,0,1,17.11,32"/><path class="cls-28" d="M17.25,32A16.64,16.64,0,1,1,33.89,48.62,16.64,16.64,0,0,1,17.25,32"/><path class="cls-29" d="M17.39,32a16.5,16.5,0,1,1,16.5,16.51A16.49,16.49,0,0,1,17.39,32"/><path class="cls-30" d="M17.53,32A16.36,16.36,0,1,1,33.89,48.34,16.35,16.35,0,0,1,17.53,32"/><path class="cls-31" d="M17.67,32A16.22,16.22,0,1,1,33.89,48.21,16.22,16.22,0,0,1,17.67,32"/><path class="cls-32" d="M17.81,32A16.08,16.08,0,1,1,33.89,48.06,16.08,16.08,0,0,1,17.81,32"/><path class="cls-33" d="M18,32A15.94,15.94,0,1,1,33.89,47.92,15.94,15.94,0,0,1,18,32"/><path class="cls-34" d="M18.09,32a15.8,15.8,0,1,1,15.8,15.8A15.79,15.79,0,0,1,18.09,32"/><path class="cls-35" d="M18.24,32A15.66,15.66,0,1,1,33.89,47.64,15.65,15.65,0,0,1,18.24,32"/><path class="cls-36" d="M18.38,32A15.51,15.51,0,1,1,33.89,47.5,15.51,15.51,0,0,1,18.38,32"/><path class="cls-37" d="M18.52,32A15.38,15.38,0,1,1,33.89,47.36,15.37,15.37,0,0,1,18.52,32"/><path class="cls-38" d="M18.66,32A15.23,15.23,0,1,1,33.89,47.22,15.23,15.23,0,0,1,18.66,32"/><path class="cls-39" d="M18.8,32a15.09,15.09,0,1,1,15.09,15.1A15.09,15.09,0,0,1,18.8,32"/><path class="cls-40" d="M18.94,32a15,15,0,1,1,15,15A15,15,0,0,1,18.94,32"/><path class="cls-41" d="M19.08,32A14.81,14.81,0,1,1,33.89,46.8,14.82,14.82,0,0,1,19.08,32"/><path class="cls-42" d="M19.22,32A14.67,14.67,0,1,1,33.89,46.66,14.67,14.67,0,0,1,19.22,32"/><path class="cls-43" d="M19.36,32A14.53,14.53,0,1,1,33.89,46.52,14.53,14.53,0,0,1,19.36,32"/><path class="cls-44" d="M19.5,32a14.39,14.39,0,1,1,14.39,14.4A14.39,14.39,0,0,1,19.5,32"/><path class="cls-45" d="M19.64,32A14.25,14.25,0,1,1,33.89,46.24,14.25,14.25,0,0,1,19.64,32"/><path class="cls-46" d="M19.78,32A14.11,14.11,0,1,1,33.89,46.1,14.11,14.11,0,0,1,19.78,32"/><path class="cls-47" d="M19.92,32a14,14,0,1,1,14,14,14,14,0,0,1-14-14"/><path class="cls-48" d="M20.06,32A13.83,13.83,0,1,1,33.89,45.82,13.83,13.83,0,0,1,20.06,32"/><path class="cls-49" d="M20.2,32a13.69,13.69,0,1,1,13.69,13.7A13.69,13.69,0,0,1,20.2,32"/><path class="cls-50" d="M20.34,32A13.55,13.55,0,1,1,33.89,45.54,13.55,13.55,0,0,1,20.34,32"/><path class="cls-51" d="M20.48,32A13.41,13.41,0,1,1,33.89,45.4,13.4,13.4,0,0,1,20.48,32"/><path class="cls-52" d="M20.62,32A13.27,13.27,0,1,1,33.89,45.26,13.27,13.27,0,0,1,20.62,32"/><path class="cls-53" d="M20.76,32A13.13,13.13,0,1,1,33.89,45.12,13.12,13.12,0,0,1,20.76,32"/><path class="cls-54" d="M20.9,32a13,13,0,1,1,13,13,13,13,0,0,1-13-13"/><path class="cls-55" d="M21,32A12.85,12.85,0,1,1,33.89,44.84,12.84,12.84,0,0,1,21,32"/><path class="cls-56" d="M21.18,32A12.71,12.71,0,1,1,33.89,44.69,12.71,12.71,0,0,1,21.18,32"/><path class="cls-57" d="M21.32,32A12.57,12.57,0,1,1,33.89,44.55,12.57,12.57,0,0,1,21.32,32"/><path class="cls-58" d="M21.46,32A12.43,12.43,0,1,1,33.89,44.42,12.42,12.42,0,0,1,21.46,32"/><path class="cls-59" d="M21.6,32A12.29,12.29,0,1,1,33.89,44.27,12.28,12.28,0,0,1,21.6,32"/><path class="cls-60" d="M21.74,32A12.15,12.15,0,1,1,33.89,44.13,12.15,12.15,0,0,1,21.74,32"/><path class="cls-61" d="M21.88,32a12,12,0,1,1,12,12,12,12,0,0,1-12-12"/><path class="cls-62" d="M22,32A11.87,11.87,0,1,1,33.89,43.85,11.87,11.87,0,0,1,22,32"/><path class="cls-63" d="M22.16,32A11.73,11.73,0,1,1,33.89,43.71,11.73,11.73,0,0,1,22.16,32"/><path class="cls-64" d="M22.31,32A11.59,11.59,0,1,1,33.89,43.57,11.58,11.58,0,0,1,22.31,32"/><path class="cls-65" d="M22.44,32A11.45,11.45,0,1,1,33.89,43.43,11.45,11.45,0,0,1,22.44,32"/><path class="cls-66" d="M22.58,32A11.31,11.31,0,1,1,33.89,43.29,11.3,11.3,0,0,1,22.58,32"/><path class="cls-67" d="M22.73,32A11.16,11.16,0,1,1,33.89,43.15,11.16,11.16,0,0,1,22.73,32"/><path class="cls-68" d="M22.87,32a11,11,0,1,1,11,11,11,11,0,0,1-11-11"/><path class="cls-69" d="M23,32A10.88,10.88,0,1,1,33.89,42.87,10.88,10.88,0,0,1,23,32"/><path class="cls-70" d="M23.15,32A10.74,10.74,0,1,1,33.89,42.73,10.74,10.74,0,0,1,23.15,32"/><path class="cls-71" d="M23.29,32a10.6,10.6,0,1,1,10.6,10.61A10.6,10.6,0,0,1,23.29,32"/><path class="cls-72" d="M23.43,32A10.46,10.46,0,1,1,33.89,42.45,10.46,10.46,0,0,1,23.43,32"/><path class="cls-73" d="M23.56,32A10.33,10.33,0,1,1,33.89,42.31,10.33,10.33,0,0,1,23.56,32"/><path class="cls-74" d="M23.71,32A10.18,10.18,0,1,1,33.89,42.17,10.18,10.18,0,0,1,23.71,32"/><path class="cls-75" d="M23.85,32A10,10,0,1,1,33.89,42a10,10,0,0,1-10-10"/><path class="cls-76" d="M24,32a9.9,9.9,0,1,1,9.9,9.91A9.9,9.9,0,0,1,24,32"/><path class="cls-77" d="M24.13,32a9.76,9.76,0,1,1,9.76,9.77A9.77,9.77,0,0,1,24.13,32"/><path class="cls-78" d="M24.27,32a9.62,9.62,0,1,1,9.62,9.63A9.62,9.62,0,0,1,24.27,32"/><path class="cls-79" d="M24.41,32a9.48,9.48,0,1,1,9.48,9.49A9.48,9.48,0,0,1,24.41,32"/><path class="cls-80" d="M24.55,32a9.34,9.34,0,1,1,9.34,9.34A9.34,9.34,0,0,1,24.55,32"/><path class="cls-81" d="M24.69,32a9.2,9.2,0,1,1,9.2,9.21A9.21,9.21,0,0,1,24.69,32"/><path class="cls-82" d="M24.83,32a9.06,9.06,0,1,1,9.06,9.07A9.06,9.06,0,0,1,24.83,32"/><path class="cls-83" d="M25,32a8.92,8.92,0,1,1,8.92,8.93A8.91,8.91,0,0,1,25,32"/><path class="cls-84" d="M25.11,32a8.78,8.78,0,1,1,8.78,8.79A8.78,8.78,0,0,1,25.11,32"/><path class="cls-85" d="M25.25,32a8.64,8.64,0,1,1,8.64,8.64A8.64,8.64,0,0,1,25.25,32"/><path class="cls-86" d="M25.39,32a8.5,8.5,0,1,1,8.5,8.51A8.51,8.51,0,0,1,25.39,32"/><path class="cls-87" d="M25.53,32a8.36,8.36,0,1,1,8.36,8.36A8.35,8.35,0,0,1,25.53,32"/><path class="cls-88" d="M25.67,32a8.22,8.22,0,1,1,8.22,8.22A8.22,8.22,0,0,1,25.67,32"/><path class="cls-88" d="M25.81,32a8.08,8.08,0,1,1,8.08,8.08A8.07,8.07,0,0,1,25.81,32"/><path class="cls-89" d="M26,32a7.94,7.94,0,1,1,7.94,7.94A7.94,7.94,0,0,1,26,32"/><path class="cls-90" d="M26.09,32a7.8,7.8,0,1,1,7.8,7.8,7.8,7.8,0,0,1-7.8-7.8"/><path class="cls-91" d="M26.23,32a7.66,7.66,0,1,1,7.66,7.66A7.66,7.66,0,0,1,26.23,32"/><path class="cls-92" d="M26.37,32a7.52,7.52,0,1,1,7.52,7.53A7.52,7.52,0,0,1,26.37,32"/><path class="cls-93" d="M26.51,32a7.38,7.38,0,1,1,7.38,7.38A7.37,7.37,0,0,1,26.51,32"/><path class="cls-94" d="M26.66,32a7.23,7.23,0,1,1,7.23,7.24A7.23,7.23,0,0,1,26.66,32"/><path class="cls-95" d="M26.79,32a7.1,7.1,0,1,1,7.1,7.1,7.1,7.1,0,0,1-7.1-7.1"/><path class="cls-96" d="M26.93,32a7,7,0,1,1,7,7,7,7,0,0,1-7-7"/><path class="cls-97" d="M27.08,32a6.81,6.81,0,1,1,6.81,6.82A6.81,6.81,0,0,1,27.08,32"/><path class="cls-98" d="M27.22,32a6.67,6.67,0,1,1,6.67,6.68A6.67,6.67,0,0,1,27.22,32"/><path class="cls-99" d="M27.36,32a6.53,6.53,0,1,1,6.53,6.54A6.53,6.53,0,0,1,27.36,32"/><path class="cls-100" d="M27.5,32a6.39,6.39,0,1,1,6.39,6.4A6.4,6.4,0,0,1,27.5,32"/><path class="cls-101" d="M27.64,32a6.25,6.25,0,1,1,6.25,6.26A6.25,6.25,0,0,1,27.64,32"/><path class="cls-102" d="M27.78,32a6.11,6.11,0,1,1,6.11,6.12A6.11,6.11,0,0,1,27.78,32"/><path class="cls-103" d="M27.92,32a6,6,0,1,1,6,6,6,6,0,0,1-6-6"/><path class="cls-104" d="M28.06,32a5.83,5.83,0,1,1,5.83,5.84A5.84,5.84,0,0,1,28.06,32"/><path class="cls-105" d="M28.2,32a5.69,5.69,0,1,1,5.69,5.7A5.69,5.69,0,0,1,28.2,32"/><path class="cls-106" d="M28.34,32a5.55,5.55,0,1,1,5.55,5.56A5.55,5.55,0,0,1,28.34,32"/><path class="cls-107" d="M28.48,32a5.41,5.41,0,1,1,5.41,5.42A5.41,5.41,0,0,1,28.48,32"/><path class="cls-108" d="M28.62,32a5.27,5.27,0,1,1,5.27,5.28A5.28,5.28,0,0,1,28.62,32"/><path class="cls-109" d="M28.76,32a5.13,5.13,0,1,1,5.13,5.14A5.13,5.13,0,0,1,28.76,32"/><path class="cls-110" d="M28.9,32a5,5,0,1,1,5,5,5,5,0,0,1-5-5"/><path class="cls-111" d="M29,32a4.85,4.85,0,1,1,4.85,4.86A4.85,4.85,0,0,1,29,32"/><path class="cls-112" d="M29.18,32a4.71,4.71,0,1,1,4.71,4.72A4.71,4.71,0,0,1,29.18,32"/><path class="cls-113" d="M29.32,32a4.57,4.57,0,1,1,4.57,4.57A4.56,4.56,0,0,1,29.32,32"/><path class="cls-114" d="M29.46,32a4.43,4.43,0,1,1,4.43,4.43A4.42,4.42,0,0,1,29.46,32"/><path class="cls-115" d="M29.6,32a4.29,4.29,0,1,1,4.29,4.29A4.29,4.29,0,0,1,29.6,32"/><path class="cls-116" d="M29.74,32a4.15,4.15,0,1,1,4.15,4.15A4.15,4.15,0,0,1,29.74,32"/><path class="cls-117" d="M29.88,32a4,4,0,1,1,4,4,4,4,0,0,1-4-4"/><path class="cls-118" d="M30,32a3.87,3.87,0,1,1,3.87,3.87A3.86,3.86,0,0,1,30,32"/><path class="cls-119" d="M30.16,32a3.73,3.73,0,1,1,3.73,3.73A3.73,3.73,0,0,1,30.16,32"/><path class="cls-120" d="M30.3,32a3.59,3.59,0,1,1,3.59,3.59A3.59,3.59,0,0,1,30.3,32"/><path class="cls-121" d="M30.44,32a3.45,3.45,0,1,1,3.45,3.45A3.44,3.44,0,0,1,30.44,32"/><path class="cls-122" d="M30.58,32a3.31,3.31,0,1,1,3.31,3.31A3.31,3.31,0,0,1,30.58,32"/><path class="cls-123" d="M30.72,32a3.17,3.17,0,1,1,3.17,3.17A3.17,3.17,0,0,1,30.72,32"/><path class="cls-124" d="M30.87,32a3,3,0,1,1,3,3,3,3,0,0,1-3-3"/><path class="cls-125" d="M31,32a2.89,2.89,0,1,1,2.89,2.89A2.88,2.88,0,0,1,31,32"/><path class="cls-126" d="M31.14,32a2.75,2.75,0,1,1,2.75,2.75A2.75,2.75,0,0,1,31.14,32"/><path class="cls-127" d="M31.29,32a2.6,2.6,0,1,1,2.6,2.61A2.6,2.6,0,0,1,31.29,32"/><path class="cls-128" d="M31.43,32a2.46,2.46,0,1,1,2.46,2.47A2.46,2.46,0,0,1,31.43,32"/><path class="cls-129" d="M31.56,32a2.33,2.33,0,1,1,2.33,2.33A2.32,2.32,0,0,1,31.56,32"/><path class="cls-130" d="M31.71,32a2.18,2.18,0,1,1,2.18,2.19A2.18,2.18,0,0,1,31.71,32"/><path class="cls-131" d="M31.85,32a2,2,0,1,1,2,2.05,2,2,0,0,1-2-2.05"/><path class="cls-132" d="M32,32a1.9,1.9,0,1,1,1.9,1.91A1.9,1.9,0,0,1,32,32"/><path class="cls-133" d="M32.13,32a1.76,1.76,0,1,1,1.76,1.77A1.76,1.76,0,0,1,32.13,32"/><path class="cls-134" d="M32.27,32a1.62,1.62,0,1,1,1.62,1.63A1.62,1.62,0,0,1,32.27,32"/><path class="cls-135" d="M32.41,32a1.48,1.48,0,1,1,1.48,1.49A1.48,1.48,0,0,1,32.41,32"/><path class="cls-136" d="M32.55,32a1.34,1.34,0,1,1,1.34,1.34A1.35,1.35,0,0,1,32.55,32"/><path class="cls-137" d="M32.69,32a1.2,1.2,0,1,1,1.2,1.21A1.2,1.2,0,0,1,32.69,32"/><path class="cls-138" d="M32.83,32A1.06,1.06,0,1,1,33.89,33,1.05,1.05,0,0,1,32.83,32"/><path class="cls-139" d="M33,32a.92.92,0,1,1,.92.93A.92.92,0,0,1,33,32"/><path class="cls-140" d="M33.11,32a.78.78,0,1,1,.78.79.78.78,0,0,1-.78-.79"/><path class="cls-141" d="M33.25,32a.64.64,0,1,1,.64.64.64.64,0,0,1-.64-.64"/><path class="cls-142" d="M33.39,32a.5.5,0,1,1,.5.51.51.51,0,0,1-.5-.51"/><path class="cls-143" d="M33.53,32a.36.36,0,0,1,.36-.35.35.35,0,0,1,.35.35.36.36,0,0,1-.35.37.37.37,0,0,1-.36-.37"/><path class="cls-144" d="M33.67,32a.22.22,0,0,1,.43,0,.22.22,0,1,1-.43,0"/><path class="cls-144" d="M33.81,32A.08.08,0,0,1,34,32a.08.08,0,0,1-.16,0"/></g><path class="cls-145" d="M32.35,42.17V44a.69.69,0,0,1-.69.69H28.44V37h3.22a.7.7,0,0,1,.69.7v1.71H30.46a.7.7,0,0,0-.71.7v1.38a.7.7,0,0,0,.71.7Zm.61,0V44a.69.69,0,0,0,.7.69h3.21V37H33.66a.7.7,0,0,0-.7.7v1.71h1.9a.69.69,0,0,1,.69.7v1.38a.69.69,0,0,1-.69.7Z"/><path class="cls-146" d="M18.85,21.07a4.87,4.87,0,0,1,.67-2.24,10.84,10.84,0,0,1,2.14-2.59,10.33,10.33,0,0,1,2.66-1.71,5.81,5.81,0,0,1,1.78-.48,3.65,3.65,0,0,1,3,1.08,3.38,3.38,0,0,1,.26,4.43,4,4,0,0,1-.88.85c-.19.14-.41.27-.65.43s-.61.33-.92.52c-.1.06-.16.07-.18.09s-.09.14-.19.29c-.21.33-.41.68-.63,1A5.11,5.11,0,0,1,24.5,24.1a3.67,3.67,0,0,1-3.44.35,3.5,3.5,0,0,1-2.21-3.38"/><path class="cls-147" d="M21.68,16.24a10.14,10.14,0,0,1,2.62-1.69A5.89,5.89,0,0,1,26,14.08h.07A3.66,3.66,0,0,1,29,15.13a3.24,3.24,0,0,1,.89,2.77c0,.13-.05.26-.08.38a3.23,3.23,0,0,1-.6,1.2,4.11,4.11,0,0,1-.87.84c-.19.14-.4.27-.64.42l-.72.4-.19.12c-.09.06-.15.07-.17.1a2.91,2.91,0,0,0-.19.28c-.2.31-.41.66-.62,1A5,5,0,0,1,24.44,24a1.32,1.32,0,0,1-.2.12,3.59,3.59,0,0,1-3.19.24,3.44,3.44,0,0,1-2.15-3c0-.1,0-.2,0-.3a4.8,4.8,0,0,1,.67-2.2,10.6,10.6,0,0,1,2.12-2.56"/><path class="cls-148" d="M21.69,16.25a9.66,9.66,0,0,1,2.59-1.67,5.38,5.38,0,0,1,1.65-.47H26a3.52,3.52,0,0,1,2.91,1,3.11,3.11,0,0,1,.86,2.73c0,.12-.05.25-.09.37a3.15,3.15,0,0,1-.6,1.18,3.7,3.7,0,0,1-.85.82c-.19.14-.4.27-.64.43s-.46.24-.71.39l-.19.11a1.56,1.56,0,0,1-.17.09c0,.05-.08.14-.18.28-.2.32-.4.66-.61,1a5.13,5.13,0,0,1-1.35,1.35l-.19.12a3.52,3.52,0,0,1-3.14.25,3.31,3.31,0,0,1-2.1-3c0-.1,0-.21,0-.3a4.87,4.87,0,0,1,.67-2.17,10.39,10.39,0,0,1,2.08-2.51"/><path class="cls-149" d="M21.71,16.25a9.73,9.73,0,0,1,2.54-1.65,5.63,5.63,0,0,1,1.63-.46l.07,0a3.5,3.5,0,0,1,2.87,1,3,3,0,0,1,.82,2.68c0,.12-.05.24-.09.36A3.11,3.11,0,0,1,29,19.33a4.44,4.44,0,0,1-.85.82l-.63.41-.7.39-.18.11c-.09.06-.15.07-.17.1a2.37,2.37,0,0,0-.18.27c-.2.31-.39.65-.6.94a5,5,0,0,1-1.33,1.34l-.19.12a3.41,3.41,0,0,1-3.09.26A3.27,3.27,0,0,1,19,21.15c0-.1,0-.2,0-.3a4.34,4.34,0,0,1,.66-2.12,10,10,0,0,1,2.06-2.48"/><path class="cls-150" d="M21.72,16.25a10,10,0,0,1,2.51-1.63,6.12,6.12,0,0,1,1.6-.45l.08,0a3.39,3.39,0,0,1,2.82,1,2.89,2.89,0,0,1,.78,2.64,3.59,3.59,0,0,1-.08.35,3.29,3.29,0,0,1-.6,1.14,4.25,4.25,0,0,1-.84.8l-.62.41c-.21.12-.46.24-.69.39L26.5,21l-.16.09a2.37,2.37,0,0,0-.18.27c-.2.3-.39.64-.6.92a4.79,4.79,0,0,1-1.3,1.33l-.19.12A3.33,3.33,0,0,1,21,24a3.17,3.17,0,0,1-2-2.9v-.29a4.63,4.63,0,0,1,.66-2.09,10.26,10.26,0,0,1,2-2.44"/><path class="cls-151" d="M21.73,16.26a10,10,0,0,1,2.48-1.61,5.28,5.28,0,0,1,1.58-.46h.07a3.29,3.29,0,0,1,2.78,1,2.77,2.77,0,0,1,.74,2.59,3.59,3.59,0,0,1-.08.35,3.48,3.48,0,0,1-.6,1.12,4,4,0,0,1-.83.78l-.61.41-.68.38-.17.11-.16.09a3.1,3.1,0,0,0-.18.26c-.19.31-.38.63-.59.92a5.09,5.09,0,0,1-1.28,1.31l-.18.12a3.26,3.26,0,0,1-3,.28A3.09,3.09,0,0,1,19.08,21v-.28a4.41,4.41,0,0,1,.66-2.06,9.85,9.85,0,0,1,2-2.39"/><path class="cls-152" d="M21.74,16.26a9.6,9.6,0,0,1,2.45-1.58,5.81,5.81,0,0,1,1.55-.46h.07a3.18,3.18,0,0,1,2.74.92,2.71,2.71,0,0,1,.71,2.55c0,.11-.05.23-.09.34a3.32,3.32,0,0,1-.59,1.09,4.24,4.24,0,0,1-.83.77c-.18.13-.38.26-.6.4l-.67.38-.17.11-.16.09-.17.26c-.19.3-.38.62-.58.9a4.81,4.81,0,0,1-1.26,1.3l-.18.12a3.21,3.21,0,0,1-2.95.29,3,3,0,0,1-1.88-2.81,1.41,1.41,0,0,1,0-.29,4.47,4.47,0,0,1,.65-2,10,10,0,0,1,2-2.36"/><path class="cls-153" d="M21.76,16.26a9.81,9.81,0,0,1,2.4-1.56,4.84,4.84,0,0,1,1.53-.45l.07,0a3.14,3.14,0,0,1,2.7.9,2.57,2.57,0,0,1,.67,2.5c0,.11-.05.22-.09.34A3.09,3.09,0,0,1,28.45,19a4.42,4.42,0,0,1-.81.76l-.6.4-.66.38-.16.1c-.08.06-.14.07-.16.09s-.08.13-.17.26c-.19.29-.38.61-.57.88a4.67,4.67,0,0,1-1.24,1.28l-.18.13a3.11,3.11,0,0,1-2.9.3,2.91,2.91,0,0,1-1.83-2.77v-.28a4.68,4.68,0,0,1,.65-2,9.92,9.92,0,0,1,1.94-2.32"/><path class="cls-154" d="M21.77,16.27a9.15,9.15,0,0,1,2.37-1.55,5.21,5.21,0,0,1,1.5-.45h.07a3.12,3.12,0,0,1,2.67.86A2.53,2.53,0,0,1,29,17.58a1.78,1.78,0,0,1-.09.33A3.14,3.14,0,0,1,28.32,19a4,4,0,0,1-.81.75l-.59.39c-.19.11-.42.23-.64.37l-.16.1c-.08.06-.13.07-.15.1a1.64,1.64,0,0,0-.17.25c-.19.28-.37.6-.56.87A4.83,4.83,0,0,1,24,23.05l-.18.12a3,3,0,0,1-2.85.32,2.84,2.84,0,0,1-1.78-2.73,2.44,2.44,0,0,1,0-.27,4.45,4.45,0,0,1,.64-1.95,9.78,9.78,0,0,1,1.91-2.27"/><path class="cls-155" d="M21.78,16.27a9.45,9.45,0,0,1,2.33-1.52,5.24,5.24,0,0,1,1.49-.45h.06a3,3,0,0,1,2.63.83,2.42,2.42,0,0,1,.59,2.42c0,.11-.06.21-.1.32a3.24,3.24,0,0,1-.59,1,4.14,4.14,0,0,1-.79.73l-.58.38-.64.37-.16.1c-.07.06-.12.07-.14.1a2,2,0,0,0-.17.24c-.19.29-.36.59-.55.86A4.85,4.85,0,0,1,24,22.92l-.17.12a3,3,0,0,1-2.8.33,2.78,2.78,0,0,1-1.73-2.69v-.27a4.3,4.3,0,0,1,.65-1.9,9.68,9.68,0,0,1,1.87-2.24"/><path class="cls-156" d="M21.8,16.27a9.43,9.43,0,0,1,2.29-1.5,4.83,4.83,0,0,1,1.46-.44l.07,0a3,3,0,0,1,2.58.81,2.31,2.31,0,0,1,.55,2.38c0,.1-.06.2-.1.31a3.07,3.07,0,0,1-.58,1,4.75,4.75,0,0,1-.79.72l-.57.38-.62.37-.16.1c-.08.05-.13.07-.14.09a2,2,0,0,0-.17.24c-.18.28-.36.58-.54.85a5,5,0,0,1-1.18,1.23l-.17.12a2.9,2.9,0,0,1-2.75.34A2.7,2.7,0,0,1,19.3,20.6c0-.08,0-.17,0-.26A4.34,4.34,0,0,1,20,18.47a10.08,10.08,0,0,1,1.85-2.2"/><path class="cls-157" d="M21.81,16.28a9.19,9.19,0,0,1,2.26-1.48,4.91,4.91,0,0,1,1.43-.45h.06a2.88,2.88,0,0,1,2.55.78,2.25,2.25,0,0,1,.51,2.33,2.11,2.11,0,0,1-.1.3,3.14,3.14,0,0,1-.58,1,4.15,4.15,0,0,1-.78.7l-.56.38c-.19.11-.41.23-.61.36l-.16.1-.14.09a2.37,2.37,0,0,0-.16.24c-.18.27-.35.57-.54.83a4.64,4.64,0,0,1-1.15,1.22l-.17.12a2.81,2.81,0,0,1-2.7.35,2.62,2.62,0,0,1-1.62-2.6,2.17,2.17,0,0,1,0-.26A4.3,4.3,0,0,1,20,18.43a9.67,9.67,0,0,1,1.82-2.15"/><path class="cls-158" d="M21.82,16.28A9.07,9.07,0,0,1,24,14.82a4.58,4.58,0,0,1,1.41-.44h.07a2.74,2.74,0,0,1,2.5.75,2.15,2.15,0,0,1,.47,2.29c0,.1-.06.19-.09.29a3.24,3.24,0,0,1-.59,1,4,4,0,0,1-.77.69l-.55.37-.6.36-.15.1-.14.09a2.37,2.37,0,0,0-.16.24c-.18.26-.35.55-.53.81a4.52,4.52,0,0,1-1.13,1.21l-.16.12A2.76,2.76,0,0,1,21,23a2.55,2.55,0,0,1-1.57-2.56c0-.09,0-.17,0-.25A3.94,3.94,0,0,1,20,18.4a9.14,9.14,0,0,1,1.78-2.12"/><path class="cls-159" d="M21.84,16.28A9.06,9.06,0,0,1,24,14.84a4.76,4.76,0,0,1,1.38-.43h.07a2.71,2.71,0,0,1,2.46.72,2.07,2.07,0,0,1,.44,2.24,2.47,2.47,0,0,1-.1.29,3.15,3.15,0,0,1-.59.94,4,4,0,0,1-.76.68l-.54.36-.59.36-.15.09-.13.09s-.08.12-.16.23c-.17.27-.34.55-.52.81a4.87,4.87,0,0,1-1.11,1.19l-.16.12a2.67,2.67,0,0,1-2.61.37,2.46,2.46,0,0,1-1.51-2.52,2.09,2.09,0,0,1,0-.25,4.19,4.19,0,0,1,.63-1.76,9.26,9.26,0,0,1,1.76-2.08"/><path class="cls-160" d="M21.85,16.29A9.11,9.11,0,0,1,24,14.87a5.31,5.31,0,0,1,1.36-.43l.06,0a2.66,2.66,0,0,1,2.43.7,2,2,0,0,1,.39,2.2c0,.09-.06.19-.1.28a3.19,3.19,0,0,1-.58.91,4.53,4.53,0,0,1-.75.67l-.54.36-.58.35-.14.1-.14.08a2.64,2.64,0,0,1-.15.23c-.17.26-.34.54-.51.79a4.74,4.74,0,0,1-1.09,1.18l-.16.12a2.61,2.61,0,0,1-2.55.38,2.41,2.41,0,0,1-1.47-2.48c0-.08,0-.16,0-.24a4.05,4.05,0,0,1,.62-1.73,9.12,9.12,0,0,1,1.73-2"/><path class="cls-161" d="M21.86,16.29A9.17,9.17,0,0,1,24,14.89a5.47,5.47,0,0,1,1.33-.43h.06a2.59,2.59,0,0,1,2.39.66,1.92,1.92,0,0,1,.36,2.16c0,.09-.07.19-.11.27a3.37,3.37,0,0,1-.58.9,4.38,4.38,0,0,1-.74.65l-.53.35-.57.36-.14.09c-.06.05-.11.06-.13.08l-.15.23c-.17.25-.33.53-.51.77a4.7,4.7,0,0,1-1.06,1.17l-.15.12a2.57,2.57,0,0,1-2.51.39,2.34,2.34,0,0,1-1.41-2.44c0-.08,0-.16,0-.23a4.19,4.19,0,0,1,.62-1.69,9.1,9.1,0,0,1,1.7-2"/><path class="cls-162" d="M21.88,16.29A8.76,8.76,0,0,1,24,14.92a5,5,0,0,1,1.31-.43l.07,0a2.53,2.53,0,0,1,2.34.64A1.84,1.84,0,0,1,28,17.22c0,.09-.07.19-.11.27a3,3,0,0,1-.58.87,4.25,4.25,0,0,1-.73.64l-.52.35-.56.35-.14.09c-.06.05-.1.06-.12.09a2,2,0,0,0-.15.21c-.17.25-.33.53-.5.77a4.73,4.73,0,0,1-1,1.15l-.15.11a2.43,2.43,0,0,1-2.46.41,2.26,2.26,0,0,1-1.36-2.4c0-.07,0-.15,0-.23a3.82,3.82,0,0,1,.62-1.65,8.69,8.69,0,0,1,1.67-2"/><path class="cls-163" d="M21.89,16.3a8.75,8.75,0,0,1,2-1.36,4.28,4.28,0,0,1,1.28-.42l.07,0a2.47,2.47,0,0,1,2.3.61,1.78,1.78,0,0,1,.28,2.07c0,.09-.07.17-.11.26a3.29,3.29,0,0,1-.58.85,3.69,3.69,0,0,1-.72.62c-.16.12-.33.23-.51.35l-.55.34-.13.09-.12.09A2,2,0,0,0,25,20c-.16.25-.32.52-.49.75a4.6,4.6,0,0,1-1,1.14l-.15.11a2.39,2.39,0,0,1-2.41.42,2.19,2.19,0,0,1-1.3-2.35,1.79,1.79,0,0,1,0-.23,4,4,0,0,1,.61-1.61,8.64,8.64,0,0,1,1.64-1.92"/><path class="cls-164" d="M21.9,16.3a8.66,8.66,0,0,1,2-1.33,5.17,5.17,0,0,1,1.26-.43h.06a2.39,2.39,0,0,1,2.26.58,1.7,1.7,0,0,1,.25,2l-.11.26a3.23,3.23,0,0,1-.58.82,4.46,4.46,0,0,1-.72.62l-.5.34c-.17.1-.36.21-.53.33l-.13.1-.13.08-.14.21-.48.74a4.82,4.82,0,0,1-1,1.12l-.14.11a2.32,2.32,0,0,1-2.37.43A2.11,2.11,0,0,1,19.66,20a1.64,1.64,0,0,0,0-.22,3.86,3.86,0,0,1,.61-1.58A9,9,0,0,1,21.9,16.3"/><path class="cls-165" d="M21.92,16.3a8.6,8.6,0,0,1,2-1.31,6.2,6.2,0,0,1,1.24-.42h.06a2.31,2.31,0,0,1,2.22.55,1.63,1.63,0,0,1,.21,2c0,.08-.07.16-.11.25a3.32,3.32,0,0,1-.58.8,4.82,4.82,0,0,1-.71.6l-.49.33-.52.34-.13.09-.12.08-.14.21c-.16.23-.31.49-.47.72a4.9,4.9,0,0,1-1,1.1l-.14.12a2.25,2.25,0,0,1-2.31.44,2,2,0,0,1-1.2-2.27c0-.07,0-.14,0-.21a4,4,0,0,1,.61-1.55,8.37,8.37,0,0,1,1.58-1.84"/><path class="cls-166" d="M21.93,16.31A8.72,8.72,0,0,1,23.86,15a4.53,4.53,0,0,1,1.21-.41l.06,0a2.27,2.27,0,0,1,2.18.53A1.54,1.54,0,0,1,27.48,17a1.08,1.08,0,0,1-.12.24,3,3,0,0,1-.57.78,4.13,4.13,0,0,1-.7.59l-.48.33c-.17.1-.34.22-.51.33L25,19.4l-.11.08a1.58,1.58,0,0,0-.14.2c-.16.23-.31.48-.46.71a4.76,4.76,0,0,1-1,1.09l-.14.12a2.21,2.21,0,0,1-2.26.45,2,2,0,0,1-1.15-2.23,1.49,1.49,0,0,0,0-.21,3.73,3.73,0,0,1,.61-1.5,8.09,8.09,0,0,1,1.55-1.8"/><path class="cls-167" d="M21.94,16.31A8.64,8.64,0,0,1,23.84,15,4.67,4.67,0,0,1,25,14.62h.06a2.19,2.19,0,0,1,2.14.5A1.49,1.49,0,0,1,27.36,17l-.12.23a3.41,3.41,0,0,1-.58.76,4.37,4.37,0,0,1-.69.57c-.14.11-.3.21-.47.33l-.5.33-.12.08c-.06,0-.1.06-.11.08a1.58,1.58,0,0,0-.14.2c-.15.23-.3.47-.46.69a4.33,4.33,0,0,1-.93,1.08l-.14.11a2.13,2.13,0,0,1-2.21.47,1.9,1.9,0,0,1-1.09-2.19c0-.06,0-.13,0-.2a4.2,4.2,0,0,1,.6-1.47,8.77,8.77,0,0,1,1.52-1.76"/><path class="cls-168" d="M22,16.31a8.59,8.59,0,0,1,1.85-1.25A6.07,6.07,0,0,1,25,14.65H25a2.13,2.13,0,0,1,2.11.47A1.42,1.42,0,0,1,27.23,17l-.12.22a3.21,3.21,0,0,1-.57.73,5.69,5.69,0,0,1-.68.57l-.47.31c-.16.1-.33.21-.49.33l-.12.09c-.05,0-.09.05-.11.08l-.13.19c-.15.22-.29.46-.45.68a4.56,4.56,0,0,1-.91,1.06l-.13.11a2.1,2.1,0,0,1-2.17.48,1.85,1.85,0,0,1-1-2.14l0-.2A3.61,3.61,0,0,1,20.46,18,8.43,8.43,0,0,1,22,16.31"/><path class="cls-169" d="M22,16.32a8.36,8.36,0,0,1,1.82-1.24,4.92,4.92,0,0,1,1.14-.4l.05,0a2.09,2.09,0,0,1,2.07.45,1.37,1.37,0,0,1,.05,1.8,2.39,2.39,0,0,1-.12.22,3.12,3.12,0,0,1-.57.71,5.46,5.46,0,0,1-.67.55l-.46.31L24.8,19l-.11.09c-.05,0-.09.05-.11.08l-.13.19c-.15.21-.29.45-.44.66a4.69,4.69,0,0,1-.89,1.05.69.69,0,0,1-.13.11,2,2,0,0,1-2.12.49,1.77,1.77,0,0,1-1-2.1,1.36,1.36,0,0,1,0-.2,3.65,3.65,0,0,1,.6-1.39A8,8,0,0,1,22,16.32"/><path class="cls-170" d="M22,16.32a8.67,8.67,0,0,1,1.79-1.21,4.4,4.4,0,0,1,1.11-.4l.05,0a2,2,0,0,1,2,.42,1.3,1.3,0,0,1,0,1.75c-.05.07-.08.15-.13.21a3.65,3.65,0,0,1-.57.7,6.11,6.11,0,0,1-.66.53l-.45.31c-.15.1-.32.2-.47.32l-.11.08c-.05,0-.09,0-.1.08l-.13.18c-.14.21-.28.45-.43.66a4.76,4.76,0,0,1-.87,1,.69.69,0,0,1-.13.11,1.94,1.94,0,0,1-2.06.5,1.72,1.72,0,0,1-.94-2.06l0-.19A4,4,0,0,1,20.55,18,8.22,8.22,0,0,1,22,16.32"/><path class="cls-171" d="M22,16.32a8.44,8.44,0,0,1,1.75-1.19,4.74,4.74,0,0,1,1.08-.4h.06a2,2,0,0,1,2,.39c.52.53.36,1.1,0,1.71a1.37,1.37,0,0,1-.13.2,3,3,0,0,1-.57.67,5.88,5.88,0,0,1-.65.52l-.44.31c-.15.09-.31.2-.46.31l-.1.08-.11.08-.12.18c-.14.21-.28.43-.43.64a4.5,4.5,0,0,1-.84,1l-.12.11a1.9,1.9,0,0,1-2,.51,1.66,1.66,0,0,1-.89-2c0-.06,0-.12,0-.18a3.71,3.71,0,0,1,.58-1.33A8.82,8.82,0,0,1,22,16.32"/><path class="cls-172" d="M22,16.33a8,8,0,0,1,1.71-1.17,4.76,4.76,0,0,1,1.06-.4l.06,0a1.91,1.91,0,0,1,1.94.36c.51.53.34,1.09-.06,1.67l-.12.2a4.3,4.3,0,0,1-.58.65,5.91,5.91,0,0,1-.64.51l-.43.29-.45.32-.1.08-.1.07-.12.18c-.14.2-.27.42-.42.62a5.27,5.27,0,0,1-.82,1l-.12.11a1.8,1.8,0,0,1-2,.52,1.59,1.59,0,0,1-.83-2l0-.17a3.76,3.76,0,0,1,.59-1.29A7.74,7.74,0,0,1,22,16.33"/><path class="cls-173" d="M22,16.33a8.34,8.34,0,0,1,1.68-1.15,4.4,4.4,0,0,1,1-.39l.05,0a1.87,1.87,0,0,1,1.9.33c.5.52.31,1.06-.09,1.63a1.27,1.27,0,0,0-.13.19,4.15,4.15,0,0,1-.58.62,5.68,5.68,0,0,1-.63.5l-.42.29a4.25,4.25,0,0,0-.43.31l-.11.08-.09.07-.12.18c-.14.19-.27.41-.41.61a5,5,0,0,1-.8,1l-.12.11a1.75,1.75,0,0,1-1.92.53c-.8-.32-.94-1.1-.77-1.93l0-.17a3.68,3.68,0,0,1,.58-1.26A8.32,8.32,0,0,1,22,16.33"/><path class="cls-174" d="M22,16.33a7.68,7.68,0,0,1,1.64-1.12,4.34,4.34,0,0,1,1-.4h0a1.82,1.82,0,0,1,1.87.3c.48.51.27,1-.14,1.58l-.13.18a4.59,4.59,0,0,1-.57.61c-.22.19-.44.35-.62.48s-.28.18-.42.29a4,4,0,0,0-.42.3l-.1.08-.09.07s-.07.1-.13.17-.25.4-.39.6a5.26,5.26,0,0,1-.78,1l-.11.12a1.71,1.71,0,0,1-1.88.54c-.78-.31-.91-1.08-.72-1.89a1,1,0,0,1,0-.17,3.73,3.73,0,0,1,.57-1.22A8.24,8.24,0,0,1,22,16.33"/><path class="cls-175" d="M22.05,16.33a8.41,8.41,0,0,1,1.6-1.1,5.83,5.83,0,0,1,1-.39l.05,0a1.81,1.81,0,0,1,1.83.28c.47.49.25,1-.18,1.54a1.92,1.92,0,0,1-.13.17,3.89,3.89,0,0,1-.57.58,6.34,6.34,0,0,1-.61.47l-.41.28-.41.3-.1.08s-.07.05-.09.08l-.11.16-.39.59a5.09,5.09,0,0,1-.76.95l-.11.12a1.65,1.65,0,0,1-1.82.55c-.76-.3-.85-1-.67-1.85a.75.75,0,0,1,0-.16,3.7,3.7,0,0,1,.56-1.18,8.28,8.28,0,0,1,1.29-1.45"/><path class="cls-176" d="M22.06,16.34a8.47,8.47,0,0,1,1.57-1.09,4.27,4.27,0,0,1,1-.38l.06,0a1.7,1.7,0,0,1,1.78.25c.46.48.23,1-.21,1.49l-.14.17a4.33,4.33,0,0,1-.57.56c-.21.18-.43.33-.6.45l-.4.28-.41.3-.08.07-.09.08-.11.15-.38.58a5.82,5.82,0,0,1-.74.94.57.57,0,0,1-.11.11,1.59,1.59,0,0,1-1.77.57c-.74-.3-.82-1-.62-1.81,0-.05,0-.1,0-.15a3.64,3.64,0,0,1,.57-1.15,8.53,8.53,0,0,1,1.25-1.4"/><path class="cls-177" d="M22.08,16.34a7.73,7.73,0,0,1,1.53-1.06,5.52,5.52,0,0,1,.93-.39h.05a1.66,1.66,0,0,1,1.75.22c.45.47.2.93-.25,1.45l-.14.16a4.19,4.19,0,0,1-.57.53,4.72,4.72,0,0,1-.59.44L24.4,18c-.13.09-.27.19-.39.29l-.09.07-.08.08-.11.15c-.13.18-.25.38-.37.56a6.17,6.17,0,0,1-.72.93l-.1.11a1.54,1.54,0,0,1-1.73.58c-.71-.29-.77-1-.56-1.77a.83.83,0,0,1,0-.15,3.85,3.85,0,0,1,.56-1.11,7.71,7.71,0,0,1,1.23-1.36"/><path class="cls-178" d="M22.09,16.34a8.12,8.12,0,0,1,1.49-1,4.44,4.44,0,0,1,.92-.38l.05,0a1.61,1.61,0,0,1,1.7.2c.44.46.18.91-.29,1.4l-.13.16a7.31,7.31,0,0,1-.57.51c-.21.17-.42.31-.59.43l-.38.26-.38.29-.08.08a.3.3,0,0,0-.08.07l-.11.15c-.12.17-.24.37-.37.55a5.2,5.2,0,0,1-.69.91l-.1.11a1.53,1.53,0,0,1-1.68.59c-.69-.27-.73-1-.51-1.73,0-.05,0-.09,0-.14a3.74,3.74,0,0,1,.56-1.07,7.75,7.75,0,0,1,1.2-1.33"/><path class="cls-179" d="M22.1,16.35a7.66,7.66,0,0,1,1.46-1,5.41,5.41,0,0,1,.89-.38l.05,0a1.55,1.55,0,0,1,1.66.17c.43.44.15.87-.33,1.36l-.13.14a5.6,5.6,0,0,1-.57.49c-.2.16-.41.3-.58.42l-.37.26c-.13.09-.25.19-.37.29l-.08.07-.08.07-.1.15-.36.53a6.14,6.14,0,0,1-.67.9l-.1.11a1.47,1.47,0,0,1-1.63.6c-.66-.26-.7-.94-.46-1.68,0,0,0-.1.05-.14a4,4,0,0,1,.55-1,8.57,8.57,0,0,1,1.17-1.28"/><path class="cls-180" d="M22.11,16.35a7.82,7.82,0,0,1,1.43-1A3.85,3.85,0,0,1,24.4,15l.05,0a1.51,1.51,0,0,1,1.62.13c.43.44.13.86-.36,1.32l-.14.14c-.17.16-.37.31-.57.47s-.39.28-.57.4l-.36.26c-.12.09-.25.18-.36.28l-.08.07-.07.07-.1.15c-.12.16-.23.34-.35.52a7.6,7.6,0,0,1-.65.88l-.1.11c-.44.51-1,.86-1.57.61s-.65-.91-.41-1.64c0-.05,0-.09.05-.13a4.08,4.08,0,0,1,.55-1,8,8,0,0,1,1.13-1.24"/><path class="cls-181" d="M22.13,16.35a8.18,8.18,0,0,1,1.38-1,5.71,5.71,0,0,1,.84-.38l0,0a1.52,1.52,0,0,1,1.59.11c.41.43.1.83-.41,1.28l-.14.13a5.34,5.34,0,0,1-.57.44c-.19.15-.39.28-.55.39l-.36.25-.35.28-.07.08a.23.23,0,0,0-.07.07l-.1.13c-.12.16-.23.34-.34.51a6.53,6.53,0,0,1-.63.87l-.09.11c-.44.5-.95.86-1.53.62s-.61-.88-.36-1.6a.69.69,0,0,0,0-.13,3.76,3.76,0,0,1,.55-1,7.64,7.64,0,0,1,1.11-1.21"/><path class="cls-182" d="M22.14,16.36a7.89,7.89,0,0,1,1.35-1,5,5,0,0,1,.82-.37l0,0a1.47,1.47,0,0,1,1.55.08c.4.41.08.81-.44,1.23a.93.93,0,0,0-.15.13,7,7,0,0,1-.57.42l-.55.38-.34.24a3.17,3.17,0,0,0-.34.28l-.07.07s-.05,0-.06.07a.73.73,0,0,0-.1.13c-.11.15-.23.32-.34.49a7.09,7.09,0,0,1-.6.86l-.09.11c-.43.5-.91.86-1.48.63s-.56-.85-.3-1.56a.61.61,0,0,1,.05-.12,4.71,4.71,0,0,1,.54-.93,8.65,8.65,0,0,1,1.08-1.16"/><path class="cls-183" d="M22.15,16.36a7.49,7.49,0,0,1,1.32-.93,3.54,3.54,0,0,1,.79-.37l0,0a1.41,1.41,0,0,1,1.5.05c.39.4.05.77-.48,1.19l-.15.11c-.17.14-.36.27-.56.41s-.38.24-.54.36a2.62,2.62,0,0,0-.34.24c-.12.09-.22.18-.32.27l-.08.07s0,.05-.05.07a.45.45,0,0,0-.1.13q-.17.22-.33.48a9.79,9.79,0,0,1-.58.84.44.44,0,0,0-.08.11c-.43.49-.89.86-1.44.64s-.54-.83-.25-1.52l0-.11a4,4,0,0,1,.55-.89,7.58,7.58,0,0,1,1-1.13"/><path class="cls-184" d="M22.17,16.36a7.24,7.24,0,0,1,1.28-.91,3.77,3.77,0,0,1,.76-.36l.05,0c.59-.24,1.16-.29,1.46,0s0,.74-.52,1.14a.83.83,0,0,1-.15.11l-.56.38-.53.35a3.88,3.88,0,0,0-.33.23c-.11.09-.22.18-.31.27l-.07.07-.06.07-.09.12c-.11.15-.21.31-.32.47a9.32,9.32,0,0,1-.56.83l-.08.1c-.41.51-.86.88-1.39.66s-.51-.81-.19-1.47a1.17,1.17,0,0,1,.05-.11,5.16,5.16,0,0,1,.54-.86,8.92,8.92,0,0,1,1-1.09"/><path class="cls-185" d="M22.18,16.37a7.26,7.26,0,0,1,1.24-.9,4.19,4.19,0,0,1,.74-.36l.05,0c.59-.24,1.14-.29,1.42,0s0,.73-.55,1.1l-.16.1-.56.35-.52.34-.32.23-.3.27-.06.06-.06.07-.09.12a4.1,4.1,0,0,0-.31.46,9.37,9.37,0,0,1-.54.8l-.08.11c-.37.53-.82.88-1.34.67s-.45-.78-.14-1.43l.06-.11a4.57,4.57,0,0,1,.53-.82,8.21,8.21,0,0,1,1-1"/><path class="cls-186" d="M22.2,16.37a7.34,7.34,0,0,1,1.2-.87,5.27,5.27,0,0,1,.71-.36l.05,0c.59-.24,1.12-.3,1.38,0s0,.7-.59,1.05l-.15.1-.57.33c-.17.11-.35.21-.51.33a3,3,0,0,0-.31.22,1.84,1.84,0,0,0-.29.26l-.06.07-.06.06a.47.47,0,0,1-.09.12l-.29.44c-.17.25-.34.54-.52.8L22,19c-.38.51-.79.88-1.29.68s-.41-.75-.08-1.39a.47.47,0,0,0,.05-.1,7.67,7.67,0,0,1,.53-.78,7.8,7.8,0,0,1,1-1"/><path class="cls-187" d="M22.21,16.37a7.45,7.45,0,0,1,1.86-1.2c.61-.27,1.13-.34,1.38-.08s0,.67-.63,1A7.81,7.81,0,0,0,23,17.29,16.61,16.61,0,0,0,22,18.84c-.37.51-.77.88-1.24.69s-.38-.73,0-1.35a7.87,7.87,0,0,1,1.52-1.81"/><path class="cls-187" d="M32,30.11l0,.11-.07.08a.58.58,0,0,1-.15.12c-.28-.35-1.86-.2-2.6.2-1.15.62-2.83,2.56-1.95,3.24.63.5,2.52-1.73,2.72-3.11l.29-.07a2.21,2.21,0,0,1-.26,1,3.53,3.53,0,0,1-.38.71l.11.12c.08,0,.06,0,.26-.09l.27-.11h.1a1.68,1.68,0,0,1,0,.18,2.19,2.19,0,0,1-.14.5c-.1.31-.17.47-.29.77,0,.06,0,.12,0,.14s.08,0,.08,0a3.45,3.45,0,0,0,.52-.16l-.7.51c-.45.32-.72.53-.89.68a.17.17,0,0,1-.1,0,.07.07,0,0,1-.06,0,6.3,6.3,0,0,1,.51-1.75l-.13-.1-.5.52a6.63,6.63,0,0,1-.73.63,1.9,1.9,0,0,1-1.6.49c-.61-.2-.1-2.69,2.83-4.25A5.44,5.44,0,0,1,32,29.63a2,2,0,0,1,0,.48"/><path class="cls-187" d="M32.1,30.39,32,30.22a5,5,0,0,0,.69-.15,2.56,2.56,0,0,0,1-.59.38.38,0,0,1,.15-.1.2.2,0,0,1,.11,0,1,1,0,0,1,0,.16c0,.13,0,.3-.09.47a4.11,4.11,0,0,1-.26.83l.13.09c.44-.46,1.92-1.3,2.18-1.16a.5.5,0,0,1,.18.48l-.06.31a1.46,1.46,0,0,1-.07.24l-.06.25.19-.15A9.37,9.37,0,0,1,37.43,30a4.49,4.49,0,0,1,.57-.24c.16,0,.25,0,.29,0s0,.92-.27,1.8-.65,1.75-.78,2.12l-.05.16.16,0a3.44,3.44,0,0,1,.51-.11c-.07.07-.21.14-.36.25a9.3,9.3,0,0,0-1,.69.87.87,0,0,1-.45.2.11.11,0,0,1,0-.1,1.61,1.61,0,0,1,.09-.44c.12-.38.34-.88.57-1.41s.46-1.05.62-1.49a2.9,2.9,0,0,0,.17-.57.44.44,0,0,0,0-.38.16.16,0,0,0-.19,0,.53.53,0,0,0-.21.09,3.56,3.56,0,0,0-.53.36c-.36.28-.72.6-.72.6s-.24.57-.48,1.19a14.8,14.8,0,0,0-.52,1.44c-.39.2-.68.36-.89.48l-.27.16a.75.75,0,0,1-.2.08.25.25,0,0,1-.12,0c.14-.27.55-1.08.93-1.91.23-.5.46-1,.61-1.41.08-.2.13-.37.17-.5a1.41,1.41,0,0,0,0-.18.15.15,0,0,0-.06-.14c-.24-.17-1.14.39-1.57.86a13.54,13.54,0,0,0-1.19,2.65,2.4,2.4,0,0,1-1.23.59c-.09,0-.1-.11,0-.19.8-.71,1.69-3.2,1.91-4a.12.12,0,0,0,0-.12.14.14,0,0,0-.08-.05.52.52,0,0,0-.23-.06.8.8,0,0,0-.45.08"/><path class="cls-187" d="M42.46,33.39s0,.09-.07.11a4.84,4.84,0,0,1-1.74,1.21c-.24,0-.31,0-.34-.06a.26.26,0,0,1-.05-.09.35.35,0,0,0,0-.12s.65-1.67,1.36-3.4l1-2.32.44-1.1a.18.18,0,0,0-.09-.27,1,1,0,0,0-.31-.06h-.41v0c.12,0,.38-.07.66-.14a3.27,3.27,0,0,0,1.07-.46h.48c-.18.39-.84,1.86-1.45,3.28a17.68,17.68,0,0,0-1.34,3.65l0,.06a.21.21,0,0,0,0,.06.15.15,0,0,0,.16.06.65.65,0,0,0,.36-.18l.14-.13a.35.35,0,0,1,.09-.06Z"/><path class="cls-144" d="M40.7,27.75a.48.48,0,0,1,.56.39c0,.2-.19.42-.51.44a.48.48,0,0,1-.56-.37.5.5,0,0,1,.51-.46"/><path class="cls-187" d="M40.21,33.91a.78.78,0,0,1-.19.14,5.94,5.94,0,0,1-.69.31,3.5,3.5,0,0,1-1.23.29c-.33-.15,1.51-4.07,1.56-4.15l.07-.15-1,.2c-.05,0-.15,0-.13-.12s.35-.13.61-.21l.38-.13a1.13,1.13,0,0,0,.25-.09,3.94,3.94,0,0,1,.44-.23.65.65,0,0,1,.49-.08,0,0,0,0,0,0,0,.2.2,0,0,1,0,.13,2.25,2.25,0,0,1-.13.49c-.15.4-.38.92-.62,1.43s-.47,1-.63,1.46a2.57,2.57,0,0,0-.14.52.45.45,0,0,0,0,.2.2.2,0,0,0,.1.14A.62.62,0,0,0,40,34l.11,0,.08-.05h.06"/><path class="cls-187" d="M17,28c-1.34.82-2.17,3.48-.86,4.94,2.38,2.66,6.64,1.9,8.08.72l0,0,0-.08C23.9,30.18,19.77,26.23,17,28m13.13.64a.09.09,0,0,1-.05,0,1.22,1.22,0,0,0-.82-.75,2.89,2.89,0,0,0-.49-.07l-.49,0h-.07l0,0a26.1,26.1,0,0,1-.91,2.45,11.39,11.39,0,0,1-2.07,3.13c-2.66,2.76-7.45,2.5-9.5.52-1-.93-2-3.41.69-5.7,3.48-2.95,8,.71,8.08,5.09v.2l.14-.16a11,11,0,0,0,1.76-3.23c.42-1.07.67-2,.79-2.31l0-.1h-.11c-.34,0-1.42,0-2.46,0-.52,0-1,0-1.41,0s-.54,0-.66,0a4.56,4.56,0,0,1,.42-.59c.4,0,4-.06,4.38-.1h0v0c.15-.3.34-1,.74-1.78A5.21,5.21,0,0,1,30.09,23a7.27,7.27,0,0,1,1-.47,2,2,0,0,1,.55-.15c.16,0,.23,0,.26,0a.25.25,0,0,1,0,.16c0,.09-.08.2-.14.33s-.27.52-.38.8a.3.3,0,0,1,0-.1.6.6,0,0,0-.16-.23c-.16-.16-.45-.24-.92-.05a3.33,3.33,0,0,0-1.43,2A9.75,9.75,0,0,0,28.43,27s1,0,1.55,0a.35.35,0,0,0,.14,0l.1,0c.05,0,.08,0,.11,0s0,0,.05.13a1.93,1.93,0,0,1-.06.4c-.05.32-.16.73-.22,1.2"/><path class="cls-187" d="M44,34.76c-.55.15-1.17.31-1.79.5a5.7,5.7,0,0,0-3,1.72c-.74,1.1-.36,2.45,1.3,2.18,1.47-.25,4-2.76,4.95-4.76l.09-.21-.21.11a7.87,7.87,0,0,1-1.34.46m-1-4.21c.3-.24,1.25-.94,1.48-.78,0,0,.09.13.1.31a4.66,4.66,0,0,1,0,.61c-.08.43-.2.87-.24,1l.14.07a6.64,6.64,0,0,1,2.6-2.41c.15,0,.42.33.45.49a4.06,4.06,0,0,1-.45,1.87c-.29.74-.63,1.43-.72,1.62l-.07.16.17,0c1.77-.51,5.58-2.77,5.55-5.61a4.23,4.23,0,0,0-2.09-3.35l0,0a4.64,4.64,0,0,1,2.31,3.28c0,2.81-2.6,5.18-6.16,6.28h0l0,0c-1.76,4.24-5.17,6.61-7.1,6.17-1.42-.33-1.24-2.51-.09-3.65a6.89,6.89,0,0,1,3-1.56,32.27,32.27,0,0,0,3.9-1.33h0v0c.06-.17.36-.89.58-1.59a5.74,5.74,0,0,0,.25-1,1.17,1.17,0,0,0,0-.37.32.32,0,0,0-.14-.25C46,30.2,44,32.67,43,34.33a.44.44,0,0,1-.05-.09c.42-1,1.08-3.38.62-3.79a.13.13,0,0,0-.15,0l-.14.05-.17.13Z"/><path class="cls-187" d="M34.87,25.16l-1,.21c-.64.16-.93.45-.93,1a.83.83,0,0,0,.84.91,1.52,1.52,0,0,0,1-.43.55.55,0,0,0,.17-.45Zm1.32,2.33a2.09,2.09,0,0,1-.71.05c-.34,0-.5-.16-.59-.56a1.86,1.86,0,0,1-1.43.64c-.84,0-1.33-.44-1.33-1.19s.49-1.08,1.44-1.29,1.1-.21,1.33-.37c0-1-.15-1.45-1.11-1.45a1.38,1.38,0,0,0-1.18.66h-.09v-.5A2.48,2.48,0,0,1,34.12,23a1.3,1.3,0,0,1,1.48,1.49c0,2.65,0,2.87.45,2.87h.11Z"/><path class="cls-187" d="M42,24.78c0-1-.49-1.69-1.19-1.69s-1.34.68-1.34,1.69Zm.76.34H39.42c0,1.3.61,2,1.64,2a2,2,0,0,0,1.35-.55.44.44,0,0,0-.07.26.4.4,0,0,0,0,.22,2.39,2.39,0,0,1-3.8-1.93,2.18,2.18,0,0,1,2.22-2.33c1,0,1.92.47,1.92,2.31"/><path class="cls-187" d="M38.83,23a6,6,0,0,0,0,.73l-.07,0a1.33,1.33,0,0,0-.48-.12c-.47,0-1,.16-1,2.27,0,.42,0,.9.06,1.61a4.28,4.28,0,0,0-.77,0,38.21,38.21,0,0,0,0-4.59A2,2,0,0,0,37,23a1.83,1.83,0,0,0,.34,0c0,.22,0,.59,0,1.13C37.7,23.24,38,23,38.55,23a.9.9,0,0,1,.28,0"/><path class="cls-187" d="M35.59,15.71H34.9l-1.72,5.84-1.95-5.84h-.64l-1.78,5.93-1.75-5.93H26c1.28,3.65,1.61,5,2.17,6.9h.72L30.72,17l1.88,5.64h.71s1.4-4.71,2.28-6.9"/><path class="cls-187" d="M38.85,20.45c0-1.85-1-2.3-1.93-2.3a2.16,2.16,0,0,0-2.21,2.32A2.24,2.24,0,0,0,37,22.86a2.28,2.28,0,0,0,1.65-.56,2.28,2.28,0,0,1,0-.47,2.07,2.07,0,0,1-1.45.64c-1,0-1.62-.71-1.64-2Zm-.76-.34H35.56a1.5,1.5,0,0,1,1.34-1.68c.69,0,1.18.63,1.19,1.68"/></svg>