<svg viewBox="0 0 300 300" xmlns="http://www.w3.org/2000/svg" xmlns:xlink="http://www.w3.org/1999/xlink"><path d="m273 174a27.7 27.7 0 0 0 -6.5 6.41c.3-1.15.59-2.3.85-3.46.69-2.46.88-4.67 1.35-7s.89-4.62 1.12-7l.56-7.24.26-3.62v-.64a27.79 27.79 0 0 0 18.78-26.45 28.15 28.15 0 0 0 -14.6 10 27.43 27.43 0 0 0 -4.27 8.34v-2.18c-.15-2.39-.47-4.78-.7-7.17-.31-4.79-1.52-9.44-2.4-14.09a44 44 0 0 0 -1.49-5.43 27.82 27.82 0 0 0 9.64-30.84 28.13 28.13 0 0 0 -10.79 14 27.75 27.75 0 0 0 -1.49 8.5c-1.77-4.2-3.17-8.5-5.37-12.36l-3.07-6c-1.12-1.91-2.34-3.73-3.49-5.58-.59-1-1.21-2-1.85-2.9a27.78 27.78 0 0 0 -.54-31.92 28.15 28.15 0 0 0 -5.91 16.69 27.6 27.6 0 0 0 1.12 8.26l-.21-.32a120.68 120.68 0 0 0 -16.21-16.7 35.54 35.54 0 0 0 -4.17-3.3l-1.1-.81a27.81 27.81 0 0 0 -10.38-30.41 28.06 28.06 0 0 0 -.47 17.7 27.6 27.6 0 0 0 3.71 7.64c-1.25-.77-2.48-1.49-3.66-2.21a97.54 97.54 0 0 0 -12.19-6.4 27.78 27.78 0 0 0 -29.76-9.69 27.81 27.81 0 0 0 28.88 12.57 89.8 89.8 0 0 1 11.54 6.07c1.31.81 2.7 1.61 4.1 2.48a27.7 27.7 0 0 0 -9.2-1.42 28.12 28.12 0 0 0 -16.69 5.92 27.82 27.82 0 0 0 32.48.24c.31.23.61.44.92.68a34.57 34.57 0 0 1 4 3.24 118.15 118.15 0 0 1 15.81 16.29l.81 1a27.64 27.64 0 0 0 -8.42-4.26 28.16 28.16 0 0 0 -17.7.48 27.8 27.8 0 0 0 30.89 10.23c.57.85 1.12 1.72 1.64 2.61 1.12 1.8 2.32 3.58 3.41 5.44l3 5.83c2.19 3.83 3.55 8.12 5.34 12.28a.19.19 0 0 0 0 .07 27.42 27.42 0 0 0 -6.47-6.37 28.16 28.16 0 0 0 -17-5 27.81 27.81 0 0 0 25.93 19.28 39.91 39.91 0 0 1 1.42 5.2c.85 4.54 2 9.06 2.34 13.74.22 2.33.54 4.65.69 7v1a27.19 27.19 0 0 0 -3.92-7.28 28.15 28.15 0 0 0 -14.57-10.14 27.79 27.79 0 0 0 18.6 26.32v.68l-.32 3.48-.66 6.95c-.27 2.31-.85 4.64-1.26 7s-.79 4.75-1.44 6.78c-.06.27-.14.54-.21.8a27.4 27.4 0 0 0 -1.37-6.35 28 28 0 0 0 -10.78-14 27.77 27.77 0 0 0 9 30.37 121.06 121.06 0 0 1 -6.37 14.42q-1.83 3.48-3.83 6.76a26.27 26.27 0 0 0 .21-3.83 28.15 28.15 0 0 0 -5.91-16.69 27.78 27.78 0 0 0 -1.32 30.84c-1 1.33-2.05 2.63-3.12 3.88a129.4 129.4 0 0 1 -12.1 12.45c.24-.63.47-1.27.68-1.94a28.06 28.06 0 0 0 -.47-17.7 28.08 28.08 0 0 0 -10.31 14.4 28.38 28.38 0 0 0 -.65 13.68 102.14 102.14 0 0 1 -8.92 5.64c-2.46 1.4-4.77 2.7-7 3.7s-4.22 2.07-6.1 2.76l-5 2-3.89 1.29-3.25 1.07 1.92 5.63 3.22-1.13 3.88-1.36 5.29-2.23c2-.8 4.1-1.89 6.39-3s4.72-2.51 7.26-4c2.71-1.58 5.52-3.42 8.39-5.49a27.79 27.79 0 0 0 32.49-.22 28.1 28.1 0 0 0 -16.69-5.92 27.79 27.79 0 0 0 -9.93 1.67l1.92-1.57a126.38 126.38 0 0 0 16.39-16.77 92.83 92.83 0 0 0 2.79-3.6 27.8 27.8 0 0 0 30.78-10.28 28.13 28.13 0 0 0 -17.7-.47 27.49 27.49 0 0 0 -8.78 4.55 131.2 131.2 0 0 0 7-12.21 125.39 125.39 0 0 0 6.24-14.87 27.84 27.84 0 0 0 25.93-19.49 28.16 28.16 0 0 0 -17 5zm-160.46-145.48a28.2 28.2 0 0 0 -12.07 9 97.54 97.54 0 0 0 -12.19 6.4c-1.18.72-2.41 1.44-3.66 2.21a27.6 27.6 0 0 0 3.71-7.64 28.06 28.06 0 0 0 -.47-17.7 27.81 27.81 0 0 0 -10.38 30.38l-1.1.81a35.54 35.54 0 0 0 -4.12 3.33 120.68 120.68 0 0 0 -16.21 16.69l-.24.31a27.29 27.29 0 0 0 1.12-8.26 28.15 28.15 0 0 0 -5.93-16.68 27.78 27.78 0 0 0 -.53 32.07c-.64.94-1.26 1.91-1.85 2.9-1.15 1.85-2.37 3.67-3.49 5.58l-3.07 6c-2.2 3.86-3.6 8.16-5.37 12.36a27.75 27.75 0 0 0 -1.49-8.5 28.13 28.13 0 0 0 -10.79-14 27.82 27.82 0 0 0 9.64 30.84 44 44 0 0 0 -1.47 5.38c-.88 4.65-2.09 9.3-2.4 14.09-.23 2.39-.55 4.78-.7 7.17v2.18a27.43 27.43 0 0 0 -4.27-8.34 28.15 28.15 0 0 0 -14.6-10 27.79 27.79 0 0 0 18.77 26.38v.64l.26 3.62.56 7.24c.23 2.4.76 4.68 1.12 7s.66 4.56 1.35 7c.26 1.16.54 2.31.85 3.46a27.7 27.7 0 0 0 -6.52-6.44 28.16 28.16 0 0 0 -17-5 27.84 27.84 0 0 0 25.87 19.29 125.39 125.39 0 0 0 6.24 14.87 131.2 131.2 0 0 0 7 12.21 27.49 27.49 0 0 0 -8.78-4.55 28.13 28.13 0 0 0 -17.7.47 27.8 27.8 0 0 0 30.78 10.28 92.83 92.83 0 0 0 2.79 3.6 126.38 126.38 0 0 0 16.39 16.77l1.92 1.57a27.79 27.79 0 0 0 -9.93-1.67 28.1 28.1 0 0 0 -16.69 5.92 27.79 27.79 0 0 0 32.49.22c2.87 2.07 5.68 3.91 8.39 5.49 2.54 1.51 4.94 2.92 7.26 4s4.37 2.24 6.39 3l5.29 2.23 3.88 1.36 3.22 1.13 1.92-5.63-3.25-1.07-3.89-1.29-5-2c-1.88-.69-3.89-1.7-6.1-2.76s-4.55-2.3-7-3.7a102.14 102.14 0 0 1 -8.92-5.64 28.38 28.38 0 0 0 -.65-13.68 28.08 28.08 0 0 0 -10.31-14.4 28.06 28.06 0 0 0 -.47 17.7c.21.67.44 1.31.68 1.93a128.11 128.11 0 0 1 -12.1-12.44c-1.07-1.25-2.1-2.55-3.12-3.88a27.78 27.78 0 0 0 -1.32-30.84 28.15 28.15 0 0 0 -5.91 16.69 26.27 26.27 0 0 0 .21 3.83q-2-3.28-3.83-6.76a121.06 121.06 0 0 1 -6.37-14.42 27.77 27.77 0 0 0 9-30.37 28 28 0 0 0 -10.78 14 27.4 27.4 0 0 0 -1.37 6.35c-.07-.26-.15-.53-.21-.8-.64-2-.95-4.53-1.44-6.78s-1-4.64-1.26-7l-.66-6.95-.3-3.28v-.59a27.79 27.79 0 0 0 18.64-26.41 28.15 28.15 0 0 0 -14.6 10 27.19 27.19 0 0 0 -3.92 7.28v-1c.15-2.34.47-4.66.69-7 .3-4.68 1.49-9.2 2.34-13.74a39.91 39.91 0 0 1 1.42-5.2 27.81 27.81 0 0 0 25.9-19.16 28.16 28.16 0 0 0 -17 5 27.42 27.42 0 0 0 -6.47 6.37.19.19 0 0 0 0-.07c1.79-4.16 3.15-8.45 5.34-12.28l3-5.83c1.13-1.84 2.3-3.62 3.45-5.37.52-.89 1.07-1.76 1.64-2.61a27.8 27.8 0 0 0 30.89-10.28 28.16 28.16 0 0 0 -17.68-.48 27.64 27.64 0 0 0 -8.42 4.28l.81-1a118.15 118.15 0 0 1 15.79-16.33 34.57 34.57 0 0 1 4-3.24c.31-.24.61-.45.92-.68a27.82 27.82 0 0 0 32.48-.24 28.12 28.12 0 0 0 -16.67-5.92 27.7 27.7 0 0 0 -9.2 1.42c1.4-.87 2.79-1.67 4.1-2.48a89.8 89.8 0 0 1 11.54-6.07 27.81 27.81 0 0 0 28.88-12.57 28 28 0 0 0 -17.69.72z" fill="#1cbfa5"/><image height="767" transform="matrix(1.42 0 0 1.42 -723.22 -144.89)" width="1000" xlink:href="../../../../02_%E5%B7%A5%E4%BD%9C/1_%E4%B8%AD%E5%9C%8B%E4%BF%A1%E8%A8%97/202006_%E6%95%B8%E4%BD%8D%E9%87%91%E8%9E%8D%E5%8D%80%E5%A1%8A%E9%8D%8ARWD(%E7%8E%8B%E5%AE%87%E8%81%96)/%E8%A3%BD%E4%BD%9C%E6%AA%94/RWD/%E5%8E%9F%E5%A7%8B%E6%AA%94/link/PIXTA/47971035.jpg"/></svg>