<svg id="圖層_1" data-name="圖層 1" xmlns="http://www.w3.org/2000/svg" xmlns:xlink="http://www.w3.org/1999/xlink" viewBox="0 0 100 100"><defs><style>.cls-1{fill:#003894;}.cls-2{fill:#ea5514;}</style><symbol id="Logo_全國加油站_短型彩色_CMYK" data-name="Logo_全國加油站_短型彩色_CMYK" viewBox="0 0 600.48 324.05"><path class="cls-1" d="M548.94,75.16l50.62-12.32s3.67-13.18-3.68-33.48c0,0-8.2-27.71-51.43-29.07,0,0-25.7-2.82-55.47,9.15,0,0-33.72,14.13-55.93,45.79,0,0-32.48,43.47-32.8,100.48,0,0-.26,49.34,49.48,55.31,0,0,45.35,10.75,92.28-23.91,0,0,16.31-10.76,35.08-45l-44.85-15.5s-14,30.9-32.31,36.61c0,0-24.83,12.76-40.37-5.58,0,0-10.18-14.32.42-45.78,0,0,14.31-49.82,44.85-63C504.83,48.87,550.19,30.55,548.94,75.16Z"/><path class="cls-2" d="M403.54,23.77C395.73,4.84,365.51,6,365.51,6l-95,.23L204.8,204.64h49.34l25-76.89h31.16c27.94,0,37.77-4.8,37.77-4.8,35.1-10.32,50.11-47.69,50.11-47.69C415.13,38.4,403.54,23.77,403.54,23.77ZM348.4,77.93s-9.74,13.81-23.57,15.28c0,0-3.45,1.4-34.21,1.23l17.86-55h22.46s14,.17,20,7.33C351,46.81,361.11,58.53,348.4,77.93Z"/><polygon class="cls-1" points="0 204.12 45.74 204.12 86.82 80.54 122.81 203.71 171.52 203.71 236.71 6.12 191.84 6.12 150.33 129.72 113.91 5.74 66.05 5.74 0 204.12"/><path class="cls-1" d="M145.15,311.83v11.85H61V311.83H95.78V298.46H63.46V286.62H95.78V275.3H62.39V264.8h-.27l-2.07-9.06H70a3.5,3.5,0,0,0,3.4-1.88l2.33-3.06H66.6V239.68h61.94l9.06,13.38c.9,1.87,1.89,2.68,3.05,2.68h5.2v10.5h-2.41v9.06H110.5v11.32h31.85v11.84H110.5v13.37Zm-18.58-48.37L125,261.12l-7.81-10.32H92.54l-7.27,9.87A11.53,11.53,0,0,1,82,263.46Z"/><path class="cls-1" d="M160.67,239.68h82v75.75c0,5.74-3,8.61-8.62,8.61H160.67V239.68Zm65.52,73.24a1.88,1.88,0,0,0,2.16-2.16v-60H175v62.12Zm-24.14-60.06H215l.45,2.88h3.32l-.72-3.23h5.57l.72,3.23h2.06v9.79h-9.51l2.77,17.59L221.17,268h5.55l-2,22.44c-.27,2.86-1.25,4.75-3,5.74v.45c.17,1.52.89,2.34,2.14,2.34h2.52v11.13h-8.61c-5.21,0-8.17-2.52-8.53-7.46l-.9-5.92h-2.41L204,286.26h2.79l-3-20.73H177.63v-9.79h24.78Zm1.17,47.4v9.79H177.63v-9.79Zm-25.49-31.15h24.76V288.5c0,5.65-2.87,8.52-8.53,8.52H177.73V269.11Zm12.93,18.22c1.42,0,2.14-.71,2.14-2.24v-6.28h-5.38v8.52Z"/><path class="cls-1" d="M257.79,256.73V244.88h4.48v-6.73h14.28v6.73H298.8v70.55q0,8.61-8.61,8.61h-9l-2-11.84h2.69c1.54,0,2.24-.73,2.24-2.15V256.73h-7.62v58.51a9.71,9.71,0,0,1-2.25,5.93,8.42,8.42,0,0,1-6.55,2.87h-8.89l-2-11.84h2.24a3.33,3.33,0,0,0,2.43-.91,3.64,3.64,0,0,0,.71-2.23V256.73Zm46.41-16.07h36.7v74.77q0,8.61-8.62,8.61H304.2V240.66ZM324,312.2c1.53,0,2.23-.73,2.23-2.15V252.51h-7.45V312.2Z"/><path class="cls-1" d="M377.7,290.39l-4.4,25.94c-.8,5.2-3.95,7.71-9.34,7.71h-5.91l-2.16-11.84H358c1.16,0,2-.81,2.24-2.42l3.23-19.39Zm-5-44.44C373,247.4,374,248,375.73,248h1.79v11.85h-9.24c-4.49,0-7.36-2.69-8.79-8.08l-3.06-12.57H370.7Zm-.35,24.51c.35,1.45,1.35,2.14,3.05,2.14h2.15v11.86h-9.6c-4.49,0-7.36-2.78-8.8-8.08l-2.69-12.29H370.7ZM439.64,247v68.39q0,8.61-8.62,8.61h-49.9V247h22.07v-8.53h14.72V247Zm-36.45,31.85v-20h-9.51v20Zm-9.51,11.85V312.2h9.51V290.74Zm33.38-11.85v-20h-9.15v20Zm-9.15,11.85V312.2h7a1.9,1.9,0,0,0,2.14-2.15V290.74Z"/><path class="cls-1" d="M469.71,238.15h14.63v5.39h13.37V255.3H455.26V243.54h14.45Zm26.56,74V324H455.61V312.2h19.74l7-52.69h13.9l-7,52.69Zm-25.4-22.27c.36,1.35,1.35,2,3.05,2h.64v11.84h-7c-4.67,0-7.63-2.59-9.06-7.62l-2.07-36.62h13.2Zm28.28-21.18h10.23v-30.6H524v8.16h16.43v11.85H524v10.59h15.36v46.68c0,5.74-2.88,8.61-8.54,8.61H499.15V268.75Zm23.42,43.45a1.88,1.88,0,0,0,2.16-2.15V280.6h-11v31.6Z"/></symbol></defs><use width="600.47" height="324.04" transform="translate(18 32.73) scale(0.11)" xlink:href="#Logo_全國加油站_短型彩色_CMYK"/></svg>