<svg id="圖層_1" data-name="圖層 1" xmlns="http://www.w3.org/2000/svg" xmlns:xlink="http://www.w3.org/1999/xlink" viewBox="0 0 100 100"><defs><style>.cls-1{fill:#00d145;}.cls-2{fill:#222;}</style><symbol id="LOGO_LINETV_方_RGB" data-name="LOGO_LINETV_方_RGB" viewBox="0 0 203.92 148.97"><path class="cls-1" d="M137.38,41.91h0a3.3,3.3,0,0,0-1.55-2.78L73.53.53A3.24,3.24,0,0,0,71.74,0a3.3,3.3,0,0,0-3.3,3.23V80.58a3.31,3.31,0,0,0,5.09,2.71l62.3-38.59a3.33,3.33,0,0,0,1.55-2.79ZM85.16,56.42v-29l23.43,14.51Z"/><path class="cls-2" d="M166.49,108.19h9.38a1.45,1.45,0,0,1,1.38,1l8.22,25.69h0l8.22-25.69a1.45,1.45,0,0,1,1.39-1h7.56a1.26,1.26,0,0,1,1.2,1.67l-13.67,37.78a2,2,0,0,1-1.85,1.32h-5.71a1.94,1.94,0,0,1-1.84-1.32l-14.29-39.45Z"/><path class="cls-2" d="M132.74,108.18a1.47,1.47,0,0,0-1.46,1.47v5.48a1.46,1.46,0,0,0,1.46,1.46h10V147.5a1.47,1.47,0,0,0,1.46,1.47h5.92a1.46,1.46,0,0,0,1.45-1.47V116.59H164.1l-3-8.41Z"/><path class="cls-2" d="M40.78,108.2H34.69a1.4,1.4,0,0,0-1.41,1.4v38A1.41,1.41,0,0,0,34.69,149h6.09a1.41,1.41,0,0,0,1.4-1.41v-38a1.39,1.39,0,0,0-1.4-1.4"/><path class="cls-2" d="M117.65,117.09a1.41,1.41,0,0,0,1.41-1.4V109.6a1.41,1.41,0,0,0-1.41-1.4H93.27a1.4,1.4,0,0,0-1.4,1.4v38a1.41,1.41,0,0,0,1.4,1.41h24.38a1.42,1.42,0,0,0,1.41-1.41v-6.09a1.42,1.42,0,0,0-1.41-1.41H100.77v-7h15a1.4,1.4,0,0,0,1.41-1.4v-6.1a1.41,1.41,0,0,0-1.41-1.4h-15v-7Z"/><path class="cls-2" d="M25.78,140.06H8.9V109.6a1.4,1.4,0,0,0-1.4-1.4H1.41A1.4,1.4,0,0,0,0,109.6v38A1.41,1.41,0,0,0,1.41,149H25.78a1.41,1.41,0,0,0,1.41-1.41v-6.09a1.41,1.41,0,0,0-1.41-1.41"/><path class="cls-2" d="M83.43,108.2H77.34a1.4,1.4,0,0,0-1.41,1.4h0v23.53L58,108.93a1.65,1.65,0,0,0-.26-.32,1.51,1.51,0,0,0-.74-.39h0l-.07,0H50.63a1.4,1.4,0,0,0-1.41,1.4v38A1.41,1.41,0,0,0,50.63,149h6.09a1.41,1.41,0,0,0,1.4-1.41h0V124.18L76,148.33a1.57,1.57,0,0,0,1.32.64h6.13a1.41,1.41,0,0,0,1.41-1.41v-38a1.4,1.4,0,0,0-1.41-1.4"/></symbol></defs><use width="203.92" height="148.97" transform="translate(20.63 28.54) scale(0.29)" xlink:href="#LOGO_LINETV_方_RGB"/></svg>