<svg viewBox="0 0 100 100" xmlns="http://www.w3.org/2000/svg" xmlns:xlink="http://www.w3.org/1999/xlink"><symbol id="a" viewBox="0 0 203.92 148.97"><path d="m137.38 41.91a3.3 3.3 0 0 0 -1.55-2.78l-62.3-38.6a3.24 3.24 0 0 0 -1.79-.53 3.3 3.3 0 0 0 -3.3 3.23v77.35a3.31 3.31 0 0 0 5.09 2.71l62.3-38.59a3.33 3.33 0 0 0 1.55-2.79zm-52.22 14.51v-29l23.43 14.51z" fill="#00d145"/><path d="m166.49 108.19h9.38a1.45 1.45 0 0 1 1.38 1l8.22 25.69 8.22-25.69a1.45 1.45 0 0 1 1.39-1h7.56a1.26 1.26 0 0 1 1.2 1.67l-13.67 37.78a2 2 0 0 1 -1.85 1.32h-5.71a1.94 1.94 0 0 1 -1.84-1.32l-14.29-39.45z" fill="#222"/><path d="m132.74 108.18a1.47 1.47 0 0 0 -1.46 1.47v5.48a1.46 1.46 0 0 0 1.46 1.46h10v30.91a1.47 1.47 0 0 0 1.46 1.47h5.92a1.46 1.46 0 0 0 1.45-1.47v-30.91h12.53l-3-8.41z" fill="#222"/><path d="m40.78 108.2h-6.09a1.4 1.4 0 0 0 -1.41 1.4v38a1.41 1.41 0 0 0 1.41 1.4h6.09a1.41 1.41 0 0 0 1.4-1.41v-38a1.39 1.39 0 0 0 -1.4-1.4" fill="#222"/><path d="m117.65 117.09a1.41 1.41 0 0 0 1.41-1.4v-6.09a1.41 1.41 0 0 0 -1.41-1.4h-24.38a1.4 1.4 0 0 0 -1.4 1.4v38a1.41 1.41 0 0 0 1.4 1.41h24.38a1.42 1.42 0 0 0 1.41-1.41v-6.09a1.42 1.42 0 0 0 -1.41-1.41h-16.88v-7h15a1.4 1.4 0 0 0 1.41-1.4v-6.1a1.41 1.41 0 0 0 -1.41-1.4h-15v-7z" fill="#222"/><path d="m25.78 140.06h-16.88v-30.46a1.4 1.4 0 0 0 -1.4-1.4h-6.09a1.4 1.4 0 0 0 -1.41 1.4v38a1.41 1.41 0 0 0 1.41 1.4h24.37a1.41 1.41 0 0 0 1.41-1.41v-6.09a1.41 1.41 0 0 0 -1.41-1.41" fill="#222"/><path d="m83.43 108.2h-6.09a1.4 1.4 0 0 0 -1.41 1.4v23.53l-17.93-24.2a1.65 1.65 0 0 0 -.26-.32 1.51 1.51 0 0 0 -.74-.39h-.07-6.3a1.4 1.4 0 0 0 -1.41 1.4v38a1.41 1.41 0 0 0 1.41 1.38h6.09a1.41 1.41 0 0 0 1.4-1.41v-23.41l17.88 24.15a1.57 1.57 0 0 0 1.32.64h6.13a1.41 1.41 0 0 0 1.41-1.41v-38a1.4 1.4 0 0 0 -1.41-1.4" fill="#222"/></symbol><use height="148.97" transform="matrix(.29 0 0 .29 20.63 28.54)" width="203.92" xlink:href="#a"/></svg>