<svg viewBox="0 0 100 100" xmlns="http://www.w3.org/2000/svg" xmlns:xlink="http://www.w3.org/1999/xlink"><symbol id="a" viewBox="0 0 288 288"><path d="m0 0h288v288h-288z" fill="#fff" opacity="0"/><path d="m170.1 146.33c-8.7.28-14.1 1.85-14.1 7.58 0 3.71 2.95 7.73 10.46 7.73 10.07 0 15.44-5.48 15.44-14.48v-1c-3.53.01-7.9.04-11.8.17zm21.39 11.89c0 2.79.08 5.54.33 8h-8.93a54.3 54.3 0 0 1 -.32-6.05c-4.83 5.93-10.56 7.64-18.52 7.64-11.81 0-18.13-6.24-18.13-13.46 0-10.46 8.6-14.14 23.52-14.48 4.08-.1 8.67-.11 12.46-.11v-1c0-7-4.49-9.88-12.27-9.88-5.77 0-10 2.39-10.46 6.52h-10.08c1.07-10.29 11.88-12.9 21.39-12.9 11.39 0 21 4.06 21 16.1z" fill="#01718f"/><path d="m87.13 141.22c-.38-9-6.85-12.33-13.78-12.33-7.46 0-13.42 3.78-14.47 12.33zm-28.45 6.38c.52 8.71 6.52 13.86 14.78 13.86 5.72 0 10.8-2.33 12.51-7.4h9.89c-1.92 10.29-12.86 13.78-22.26 13.78-17.11 0-24.69-9.42-24.69-22.13 0-14 7.84-23.2 24.84-23.2 13.54 0 23.45 7.09 23.45 22.54v2.55z" fill="#01718f"/><path d="m121.81 161.28c8.92 0 15-6.42 15-16.1s-6.1-16.1-15-16.1-15 6.41-15 16.1 6.19 16.1 15 16.1zm-24.61-55.64h9.6v24.1c4.71-5.6 11.18-7.23 17.56-7.23 10.69 0 22.56 7.21 22.56 22.79 0 13-9.44 22.54-22.74 22.54-7 0-13.51-2.5-17.55-7.44a51.09 51.09 0 0 1 -.33 5.85h-9.42c.16-3.05.32-6.84.32-9.91z" fill="#01718f"/><path d="m240.34 124.11-29.66 58.25h-10.74l8.53-16.18-22.32-42.07h11.22l16.42 32.89 16.38-32.87z" fill="#01718f"/></symbol><use height="288" transform="matrix(.3 0 0 .3 6.34 6.34)" width="288" xlink:href="#a"/></svg>