<svg id="圖層_1" data-name="圖層 1" xmlns="http://www.w3.org/2000/svg" xmlns:xlink="http://www.w3.org/1999/xlink" viewBox="0 0 100 100"><defs><style>.cls-1{fill:#fff;opacity:0;}.cls-2{fill:#01718f;}</style><symbol id="Logo_ebay_橫式藍綠字_RGB" data-name="Logo_ebay_橫式藍綠字_RGB" viewBox="0 0 288 288"><rect class="cls-1" width="288" height="288"/><path class="cls-2" d="M170.1,146.33c-8.7.28-14.1,1.85-14.1,7.58,0,3.71,2.95,7.73,10.46,7.73,10.07,0,15.44-5.48,15.44-14.48v-1C178.37,146.17,174,146.2,170.1,146.33Zm21.39,11.89c0,2.79.08,5.54.33,8h-8.93a54.3,54.3,0,0,1-.32-6.05c-4.83,5.93-10.56,7.64-18.52,7.64-11.81,0-18.13-6.24-18.13-13.46,0-10.46,8.6-14.14,23.52-14.48,4.08-.1,8.67-.11,12.46-.11v-1c0-7-4.49-9.88-12.27-9.88-5.77,0-10,2.39-10.46,6.52H149.09c1.07-10.29,11.88-12.9,21.39-12.9,11.39,0,21,4.06,21,16.1Z"/><path class="cls-2" d="M87.13,141.22c-.38-9-6.85-12.33-13.78-12.33-7.46,0-13.42,3.78-14.47,12.33ZM58.68,147.6c.52,8.71,6.52,13.86,14.78,13.86,5.72,0,10.8-2.33,12.51-7.4h9.89C93.94,164.35,83,167.84,73.6,167.84c-17.11,0-24.69-9.42-24.69-22.13,0-14,7.84-23.2,24.84-23.2,13.54,0,23.45,7.09,23.45,22.54v2.55Z"/><path class="cls-2" d="M121.81,161.28c8.92,0,15-6.42,15-16.1s-6.1-16.1-15-16.1-15,6.41-15,16.1S113,161.28,121.81,161.28ZM97.2,105.64h9.6v24.1c4.71-5.6,11.18-7.23,17.56-7.23,10.69,0,22.56,7.21,22.56,22.79,0,13-9.44,22.54-22.74,22.54-7,0-13.51-2.5-17.55-7.44a51.09,51.09,0,0,1-.33,5.85H96.88c.16-3.05.32-6.84.32-9.91Z"/><path class="cls-2" d="M240.34,124.11l-29.66,58.25H199.94l8.53-16.18-22.32-42.07h11.22L213.79,157l16.38-32.87Z"/></symbol></defs><use width="288" height="288" transform="translate(6.34 6.34) scale(0.3)" xlink:href="#Logo_ebay_橫式藍綠字_RGB"/></svg>