<svg viewBox="0 0 100 100" xmlns="http://www.w3.org/2000/svg" xmlns:xlink="http://www.w3.org/1999/xlink"><symbol id="a" viewBox="0 0 600.48 324.05"><path d="m548.94 75.16 50.62-12.32s3.67-13.18-3.68-33.48c0 0-8.2-27.71-51.43-29.07 0 0-25.7-2.82-55.47 9.15 0 0-33.72 14.13-55.93 45.79 0 0-32.48 43.47-32.8 100.48 0 0-.26 49.34 49.48 55.31 0 0 45.35 10.75 92.28-23.91 0 0 16.31-10.76 35.08-45l-44.85-15.5s-14 30.9-32.31 36.61c0 0-24.83 12.76-40.37-5.58 0 0-10.18-14.32.42-45.78 0 0 14.31-49.82 44.85-63 0 .01 45.36-18.31 44.11 26.3z" fill="#003894"/><path d="m403.54 23.77c-7.81-18.93-38.03-17.77-38.03-17.77l-95 .23-65.71 198.41h49.34l25-76.89h31.16c27.94 0 37.77-4.8 37.77-4.8 35.1-10.32 50.11-47.69 50.11-47.69 16.95-36.86 5.36-51.49 5.36-51.49zm-55.14 54.16s-9.74 13.81-23.57 15.28c0 0-3.45 1.4-34.21 1.23l17.86-55h22.46s14 .17 20 7.33c.06.04 10.17 11.76-2.54 31.16z" fill="#ea5514"/><path d="m0 204.12h45.74l41.08-123.58 35.99 123.17h48.71l65.19-197.59h-44.87l-41.51 123.6-36.42-123.98h-47.86z" fill="#003894"/><path d="m145.15 311.83v11.85h-84.15v-11.85h34.78v-13.37h-32.32v-11.84h32.32v-11.32h-33.39v-10.5h-.27l-2.07-9.06h9.95a3.5 3.5 0 0 0 3.4-1.88l2.33-3.06h-9.13v-11.12h61.94l9.06 13.38c.9 1.87 1.89 2.68 3.05 2.68h5.2v10.5h-2.41v9.06h-32.94v11.32h31.85v11.84h-31.85v13.37zm-18.58-48.37-1.57-2.34-7.81-10.32h-24.65l-7.27 9.87a11.53 11.53 0 0 1 -3.27 2.79z" fill="#003894"/><path d="m160.67 239.68h82v75.75c0 5.74-3 8.61-8.62 8.61h-73.38zm65.52 73.24a1.88 1.88 0 0 0 2.16-2.16v-60h-53.35v62.12zm-24.14-60.06h12.95l.45 2.88h3.32l-.72-3.23h5.57l.72 3.23h2.06v9.79h-9.51l2.77 17.59 1.51-15.12h5.55l-2 22.44c-.27 2.86-1.25 4.75-3 5.74v.45c.17 1.52.89 2.34 2.14 2.34h2.52v11.13h-8.61c-5.21 0-8.17-2.52-8.53-7.46l-.9-5.92h-2.41l-1.93-10.46h2.79l-3-20.73h-26.16v-9.79h24.78zm1.17 47.4v9.79h-25.59v-9.79zm-25.49-31.15h24.76v19.39c0 5.65-2.87 8.52-8.53 8.52h-16.23zm12.93 18.22c1.42 0 2.14-.71 2.14-2.24v-6.28h-5.38v8.52z" fill="#003894"/><path d="m257.79 256.73v-11.85h4.48v-6.73h14.28v6.73h22.25v70.55q0 8.61-8.61 8.61h-9l-2-11.84h2.69c1.54 0 2.24-.73 2.24-2.15v-53.32h-7.62v58.51a9.71 9.71 0 0 1 -2.25 5.93 8.42 8.42 0 0 1 -6.55 2.87h-8.89l-2-11.84h2.24a3.33 3.33 0 0 0 2.43-.91 3.64 3.64 0 0 0 .71-2.23v-52.33zm46.41-16.07h36.7v74.77q0 8.61-8.62 8.61h-28.08zm19.8 71.54c1.53 0 2.23-.73 2.23-2.15v-57.54h-7.45v59.69z" fill="#003894"/><path d="m377.7 290.39-4.4 25.94c-.8 5.2-3.95 7.71-9.34 7.71h-5.91l-2.16-11.84h2.11c1.16 0 2-.81 2.24-2.42l3.23-19.39zm-5-44.44c.3 1.45 1.3 2.05 3.03 2.05h1.79v11.85h-9.24c-4.49 0-7.36-2.69-8.79-8.08l-3.06-12.57h14.27zm-.35 24.51c.35 1.45 1.35 2.14 3.05 2.14h2.15v11.86h-9.6c-4.49 0-7.36-2.78-8.8-8.08l-2.69-12.29h14.24zm67.29-23.46v68.39q0 8.61-8.62 8.61h-49.9v-77h22.07v-8.53h14.72v8.53zm-36.45 31.85v-20h-9.51v20zm-9.51 11.85v21.5h9.51v-21.46zm33.38-11.85v-20h-9.15v20zm-9.15 11.85v21.5h7a1.9 1.9 0 0 0 2.14-2.15v-19.31z" fill="#003894"/><path d="m469.71 238.15h14.63v5.39h13.37v11.76h-42.45v-11.76h14.45zm26.56 74v11.85h-40.66v-11.8h19.74l7-52.69h13.9l-7 52.69zm-25.4-22.27c.36 1.35 1.35 2 3.05 2h.64v11.84h-7c-4.67 0-7.63-2.59-9.06-7.62l-2.07-36.62h13.2zm28.28-21.18h10.23v-30.6h14.62v8.16h16.43v11.85h-16.43v10.59h15.36v46.68c0 5.74-2.88 8.61-8.54 8.61h-31.67v-55.24zm23.42 43.45a1.88 1.88 0 0 0 2.16-2.15v-29.4h-11v31.6z" fill="#003894"/></symbol><use height="324.04" transform="matrix(.11 0 0 .11 18 32.73)" width="600.47" xlink:href="#a"/></svg>