<svg id="圖層_1" data-name="圖層 1" xmlns="http://www.w3.org/2000/svg" xmlns:xlink="http://www.w3.org/1999/xlink" viewBox="0 0 100 100"><defs><style>.cls-1{fill:#f1a923;}.cls-1,.cls-2{fill-rule:evenodd;}.cls-2{fill:#221e1f;}</style><symbol id="LOGO_amazon_RGB" data-name="LOGO_amazon_RGB" viewBox="0 0 440.11 132.63"><path class="cls-1" d="M273,103.72c-25.57,18.87-62.64,28.91-94.57,28.91A171.14,171.14,0,0,1,63,88.56c-2.39-2.16-.26-5.12,2.62-3.45,32.89,19.15,73.58,30.68,115.59,30.68a229.94,229.94,0,0,0,88.16-18c4.32-1.83,7.95,2.85,3.72,6"/><path class="cls-1" d="M283.68,91.58c-3.28-4.2-21.62-2-29.87-1-2.49.3-2.88-1.88-.62-3.46,14.63-10.29,38.61-7.31,41.4-3.88s-.73,27.52-14.45,39c-2.11,1.77-4.12.82-3.18-1.51,3.08-7.7,10-25,6.72-29.15"/><path class="cls-2" d="M254.4,14.49V4.5A2.47,2.47,0,0,1,256.93,2h44.78a2.49,2.49,0,0,1,2.57,2.53v8.56c0,1.44-1.21,3.32-3.37,6.29L277.73,52.46c8.6-.2,17.71,1.09,25.53,5.48a4.55,4.55,0,0,1,2.37,3.9V72.5c0,1.47-1.6,3.17-3.29,2.28a51.54,51.54,0,0,0-47.3.09c-1.57.82-3.19-.85-3.19-2.32V62.42a12,12,0,0,1,1.66-6.86L280.38,17H257a2.49,2.49,0,0,1-2.59-2.51"/><path class="cls-2" d="M91.07,76.88H77.45A2.55,2.55,0,0,1,75,74.58V4.67a2.58,2.58,0,0,1,2.64-2.52H90.34A2.56,2.56,0,0,1,92.82,4.5v9.13h.25C96.37,4.8,102.61.68,111,.68s13.86,4.12,17.68,13C132,4.8,139.48.68,147.49.68c5.72,0,12,2.35,15.76,7.65,4.33,5.88,3.45,14.42,3.45,21.92V74.37a2.57,2.57,0,0,1-2.63,2.51H150.45a2.54,2.54,0,0,1-2.44-2.5V37.31c0-2.94.25-10.3-.39-13.09-1-4.71-4.07-6-8-6a9,9,0,0,0-8.14,5.75c-1.4,3.52-1.27,9.4-1.27,13.38V74.37a2.57,2.57,0,0,1-2.62,2.51H114a2.54,2.54,0,0,1-2.44-2.5l0-37.07c0-7.8,1.27-19.27-8.39-19.27s-9.41,11.17-9.41,19.27V74.37a2.56,2.56,0,0,1-2.63,2.51"/><path class="cls-2" d="M342.83.67C363.05.67,374,18,374,40.11c0,21.33-12.08,38.25-31.15,38.25-19.84,0-30.64-17.37-30.64-39S323.12.67,342.83.67M343,15c-10,0-10.69,13.68-10.69,22.2s-.12,26.79,10.56,26.79,11.06-14.72,11.06-23.69c0-5.89-.25-12.95-2-18.54C350.33,16.86,347.28,15,343,15"/><path class="cls-2" d="M400.2,76.88H386.63a2.56,2.56,0,0,1-2.45-2.5l0-69.95a2.59,2.59,0,0,1,2.62-2.28h12.64a2.59,2.59,0,0,1,2.42,1.95V14.8h.25C405.91,5.23,411.25.68,420.65.68c6.11,0,12.08,2.21,15.9,8.24,3.56,5.59,3.56,15,3.56,21.77v44a2.58,2.58,0,0,1-2.61,2.2H423.84a2.57,2.57,0,0,1-2.42-2.2v-38c0-7.65.89-18.83-8.52-18.83A8.92,8.92,0,0,0,405,23.48c-1.9,4.26-2.17,8.53-2.17,13.24V74.37a2.6,2.6,0,0,1-2.65,2.51"/><path class="cls-2" d="M218.71,43.49c0,5.31.12,9.73-2.55,14.45-2.17,3.83-5.6,6.19-9.43,6.19-5.23,0-8.29-4-8.29-9.87,0-11.6,10.41-13.71,20.27-13.71Zm13.73,33.22a2.83,2.83,0,0,1-3.22.31c-4.52-3.76-5.33-5.49-7.8-9.07-7.48,7.61-12.78,9.9-22.46,9.9-11.47,0-20.39-7.08-20.39-21.23,0-11.06,6-18.57,14.52-22.27,7.4-3.24,17.72-3.83,25.62-4.71V27.87c0-3.25.25-7.08-1.66-9.88-1.65-2.51-4.84-3.54-7.65-3.54-5.19,0-9.8,2.66-11,8.18a2.87,2.87,0,0,1-2.36,2.51l-13.2-1.44a2.38,2.38,0,0,1-2-2.84c3-16,17.5-20.86,30.45-20.86,6.63,0,15.3,1.77,20.52,6.78,6.63,6.19,6,14.45,6,23.45V51.45c0,6.38,2.65,9.18,5.15,12.62.86,1.24,1.06,2.71-.05,3.62-2.78,2.33-7.73,6.63-10.44,9Z"/><path class="cls-2" d="M40.14,43.49c0,5.31.12,9.73-2.55,14.45-2.17,3.83-5.6,6.19-9.43,6.19-5.23,0-8.29-4-8.29-9.87,0-11.6,10.42-13.71,20.27-13.71ZM53.87,76.71a2.81,2.81,0,0,1-3.21.31c-4.53-3.76-5.34-5.49-7.82-9.07-7.47,7.61-12.77,9.9-22.45,9.9C8.92,77.85,0,70.77,0,56.62,0,45.56,6,38.05,14.52,34.35c7.4-3.24,17.72-3.83,25.62-4.71V27.87c0-3.25.25-7.08-1.66-9.88-1.65-2.51-4.84-3.54-7.65-3.54-5.19,0-9.81,2.66-10.95,8.18a2.86,2.86,0,0,1-2.36,2.51L4.32,23.7a2.38,2.38,0,0,1-2-2.84C5.32,4.84,19.79,0,32.75,0,39.37,0,48,1.77,53.27,6.78c6.62,6.19,6,14.45,6,23.45V51.45c0,6.38,2.64,9.18,5.14,12.62.87,1.24,1.06,2.71-.05,3.62-2.78,2.33-7.73,6.63-10.44,9Z"/></symbol></defs><use width="440.11" height="132.63" transform="translate(11.56 38.42) scale(0.17)" xlink:href="#LOGO_amazon_RGB"/></svg>