<svg id="圖層_1" data-name="圖層 1" xmlns="http://www.w3.org/2000/svg" xmlns:xlink="http://www.w3.org/1999/xlink" viewBox="0 0 100 100"><defs><style>.cls-1{fill:#231916}.cls-2{fill:none}</style><symbol id="Logo_dyson_黑字橫式_CMYK" data-name="Logo_dyson_黑字橫式_CMYK" viewBox="0 0 195.74 80.57"><path class="cls-1" d="M54.33 13.76h-7.08v13.09h-6.4a13.45 13.45 0 1 0 13.48 13.44V26.83zm-7.08 26.53a6.4 6.4 0 1 1-6.4-6.4h6.39zm65.12 0a13.45 13.45 0 1 1 13.44 13.44 13.45 13.45 0 0 1-13.44-13.44zm13.42 6.42a6.43 6.43 0 1 0-6.42-6.42 6.42 6.42 0 0 0 6.42 6.42z"/><path class="cls-2" d="M112.37 67.13a13.45 13.45 0 1 1 13.44 13.44 13.45 13.45 0 0 1-13.44-13.44zm13.42 6.42a6.43 6.43 0 1 0-6.42-6.42 6.42 6.42 0 0 0 6.42 6.42zm-13.42-60.1a13.45 13.45 0 1 1 13.44 13.44 13.45 13.45 0 0 1-13.44-13.44zm13.42 6.42a6.43 6.43 0 1 0-6.42-6.42 6.42 6.42 0 0 0 6.42 6.42zM0 41.49a13.45 13.45 0 1 1 13.44 13.44A13.45 13.45 0 0 1 0 41.49zm13.42 6.42A6.42 6.42 0 1 0 7 41.49a6.42 6.42 0 0 0 6.42 6.42zm155.43-6.42a13.45 13.45 0 1 1 13.45 13.44 13.45 13.45 0 0 1-13.45-13.44zm13.42 6.42a6.42 6.42 0 1 0-6.42-6.42 6.43 6.43 0 0 0 6.42 6.42z"/><path class="cls-1" d="M161.87 40.3a6.35 6.35 0 1 0-12.7 0v12.89h-7.09V40.3a13.44 13.44 0 1 1 26.87 0v12.88h-7.09zm-66.05-4.68c-1-.67-.69-1.92 1-2.37 2.19-.61 5.81-.12 9.06 1.31L109.2 30c-1.46-1.22-4.58-2.77-9.21-3.07 0 0-7.73-1-10.86 4.91 0 0-2.77 5.49 2.7 8.9 3.32 2.08 9.1 2.81 10.85 3.8 1.49.84 1 2.43-1.21 2.93-3.66.83-8.59-1.26-10.25-2.5l-3.38 4.67a20.65 20.65 0 0 0 9.8 4s7.27 1.26 11.28-3.74c.74-.92 4-7.09-2.58-10.61-3.28-1.75-8.77-2.54-10.52-3.67zM62.79 58.43c.29.18 3.6 2.44 6.8 2.51 7.69.16 8.18-7.85 8.18-9.74a10.1 10.1 0 0 1-6.35 2.53A13.22 13.22 0 0 1 58 40.48V27.35h7.08v13.11a6.35 6.35 0 1 0 12.69 0V27.35h7.09v13.13c0 11.64.57 23.58-10.76 26.29a17.35 17.35 0 0 1-14.87-3.55z"/></symbol></defs><use width="195.74" height="80.57" transform="matrix(.42 0 0 .42 9.3 33.25)" xlink:href="#Logo_dyson_黑字橫式_CMYK"/></svg>